G75*
%MOIN*%
%OFA0B0*%
%FSLAX25Y25*%
%IPPOS*%
%LPD*%
%AMOC8*
5,1,8,0,0,1.08239X$1,22.5*
%
%ADD10OC8,0.05200*%
%ADD11C,0.06600*%
%ADD12C,0.05200*%
%ADD13C,0.05200*%
%ADD14C,0.07800*%
%ADD15C,0.03200*%
D10*
X0076000Y0066000D03*
X0076000Y0076000D03*
X0091000Y0126000D03*
X0101000Y0126000D03*
X0061000Y0166000D03*
X0041000Y0166000D03*
X0041000Y0196000D03*
X0061000Y0196000D03*
X0166000Y0196000D03*
X0186000Y0196000D03*
X0186000Y0166000D03*
X0166000Y0166000D03*
X0216000Y0126000D03*
X0226000Y0126000D03*
X0281000Y0166000D03*
X0301000Y0166000D03*
X0301000Y0196000D03*
X0281000Y0196000D03*
X0336000Y0126000D03*
X0346000Y0126000D03*
X0316000Y0076000D03*
X0316000Y0066000D03*
X0201000Y0066000D03*
X0201000Y0076000D03*
D11*
X0201000Y0196000D03*
X0241000Y0196000D03*
X0316000Y0196000D03*
X0356000Y0196000D03*
X0116000Y0196000D03*
X0076000Y0196000D03*
D12*
X0071000Y0126000D03*
X0061000Y0126000D03*
X0051000Y0126000D03*
X0041000Y0126000D03*
X0041000Y0096000D03*
X0051000Y0096000D03*
X0061000Y0096000D03*
X0071000Y0096000D03*
X0166000Y0096000D03*
X0176000Y0096000D03*
X0186000Y0096000D03*
X0196000Y0096000D03*
X0196000Y0126000D03*
X0186000Y0126000D03*
X0176000Y0126000D03*
X0166000Y0126000D03*
X0281000Y0126000D03*
X0291000Y0126000D03*
X0301000Y0126000D03*
X0311000Y0126000D03*
X0311000Y0096000D03*
X0301000Y0096000D03*
X0291000Y0096000D03*
X0281000Y0096000D03*
D13*
X0041100Y0056000D02*
X0035900Y0056000D01*
X0035900Y0066000D02*
X0041100Y0066000D01*
X0041100Y0076000D02*
X0035900Y0076000D01*
X0160900Y0076000D02*
X0166100Y0076000D01*
X0166100Y0066000D02*
X0160900Y0066000D01*
X0160900Y0056000D02*
X0166100Y0056000D01*
X0270900Y0056000D02*
X0276100Y0056000D01*
X0276100Y0066000D02*
X0270900Y0066000D01*
X0270900Y0076000D02*
X0276100Y0076000D01*
D14*
X0245400Y0242100D02*
X0245400Y0249900D01*
X0225700Y0249900D02*
X0225700Y0242100D01*
X0206000Y0242100D02*
X0206000Y0249900D01*
X0186300Y0249900D02*
X0186300Y0242100D01*
X0166600Y0242100D02*
X0166600Y0249900D01*
D15*
X0166600Y0246000D02*
X0181600Y0231000D01*
X0196000Y0231000D01*
X0196000Y0261000D01*
X0216000Y0261000D01*
X0236000Y0261000D01*
X0236000Y0236000D01*
X0271000Y0236000D01*
X0271000Y0166000D01*
X0281000Y0166000D01*
X0281000Y0126000D01*
X0281000Y0116000D01*
X0301374Y0116000D01*
X0311000Y0106374D01*
X0311000Y0096000D01*
X0315800Y0094012D02*
X0315800Y0111574D01*
X0307574Y0119800D01*
X0307200Y0119800D01*
X0301000Y0126000D01*
X0301000Y0166000D01*
X0356000Y0166000D01*
X0356000Y0196000D01*
X0316000Y0196000D02*
X0301000Y0196000D01*
X0291000Y0196000D01*
X0291000Y0126000D01*
X0301000Y0111000D02*
X0261000Y0111000D01*
X0261000Y0211000D01*
X0256000Y0216000D01*
X0226000Y0216000D01*
X0226000Y0246000D01*
X0216000Y0261000D02*
X0216000Y0211000D01*
X0156000Y0211000D01*
X0156000Y0116000D01*
X0166000Y0116000D01*
X0186000Y0116000D01*
X0196000Y0106000D01*
X0196000Y0096000D01*
X0200800Y0094012D02*
X0200800Y0111574D01*
X0192574Y0119800D01*
X0192200Y0119800D01*
X0186000Y0126000D01*
X0186000Y0166000D01*
X0241000Y0166000D01*
X0241000Y0196000D01*
X0201000Y0196000D02*
X0186000Y0196000D01*
X0176000Y0196000D01*
X0176000Y0126000D01*
X0166000Y0126000D02*
X0166000Y0116000D01*
X0166000Y0126000D02*
X0166000Y0166000D01*
X0166000Y0196000D02*
X0176000Y0196000D01*
X0151000Y0226000D02*
X0206000Y0226000D01*
X0206000Y0246000D01*
X0186000Y0246000D02*
X0186000Y0266000D01*
X0011000Y0266000D01*
X0011000Y0156000D01*
X0031000Y0156000D01*
X0031000Y0111000D01*
X0056000Y0111000D01*
X0061000Y0106000D01*
X0061000Y0096000D01*
X0059012Y0091200D02*
X0072988Y0091200D01*
X0075800Y0094012D01*
X0075800Y0111574D01*
X0067574Y0119800D01*
X0067200Y0119800D01*
X0061000Y0126000D01*
X0061000Y0166000D01*
X0116000Y0166000D01*
X0116000Y0196000D01*
X0076000Y0196000D02*
X0061000Y0196000D01*
X0051000Y0196000D01*
X0051000Y0126000D01*
X0041000Y0126000D02*
X0041000Y0166000D01*
X0026000Y0166000D01*
X0026000Y0246000D01*
X0166600Y0246000D01*
X0156000Y0246000D01*
X0151000Y0226000D02*
X0151000Y0111000D01*
X0181000Y0111000D01*
X0186000Y0106000D01*
X0186000Y0096000D01*
X0184012Y0091200D02*
X0197988Y0091200D01*
X0200800Y0094012D01*
X0184012Y0091200D02*
X0179212Y0096000D01*
X0176000Y0096000D01*
X0176000Y0106000D01*
X0156000Y0106000D01*
X0156000Y0081000D01*
X0163500Y0076000D01*
X0163500Y0066000D02*
X0201000Y0066000D01*
X0201000Y0076000D02*
X0226000Y0081000D01*
X0226000Y0046000D01*
X0101000Y0046000D01*
X0101000Y0076000D01*
X0076000Y0076000D01*
X0056000Y0081000D01*
X0041000Y0096000D01*
X0051000Y0096000D02*
X0054212Y0096000D01*
X0059012Y0091200D01*
X0051000Y0096000D02*
X0051000Y0106000D01*
X0031000Y0106000D01*
X0031000Y0081000D01*
X0038500Y0076000D01*
X0038500Y0066000D02*
X0076000Y0066000D01*
X0101000Y0076000D02*
X0101000Y0126000D01*
X0091000Y0126000D02*
X0071000Y0126000D01*
X0061000Y0116000D02*
X0071000Y0106000D01*
X0071000Y0096000D01*
X0061000Y0116000D02*
X0041000Y0116000D01*
X0041000Y0126000D01*
X0041000Y0196000D02*
X0051000Y0196000D01*
X0166000Y0096000D02*
X0181000Y0081000D01*
X0201000Y0076000D01*
X0226000Y0081000D02*
X0226000Y0126000D01*
X0216000Y0126000D02*
X0196000Y0126000D01*
X0266000Y0106000D02*
X0266000Y0081000D01*
X0273500Y0076000D01*
X0273500Y0066000D02*
X0316000Y0066000D01*
X0316000Y0076000D02*
X0346000Y0081000D01*
X0346000Y0046000D01*
X0381000Y0046000D01*
X0381000Y0246000D01*
X0245400Y0246000D01*
X0281000Y0196000D02*
X0291000Y0196000D01*
X0311000Y0126000D02*
X0336000Y0126000D01*
X0346000Y0126000D02*
X0346000Y0081000D01*
X0316000Y0076000D02*
X0296000Y0081000D01*
X0281000Y0096000D01*
X0291000Y0096000D02*
X0294212Y0096000D01*
X0299012Y0091200D01*
X0312988Y0091200D01*
X0315800Y0094012D01*
X0301000Y0096000D02*
X0301000Y0111000D01*
X0291000Y0106000D02*
X0291000Y0096000D01*
X0291000Y0106000D02*
X0266000Y0106000D01*
X0226000Y0046000D02*
X0346000Y0046000D01*
M02*
