G75*
%MOIN*%
%OFA0B0*%
%FSLAX25Y25*%
%IPPOS*%
%LPD*%
%AMOC8*
5,1,8,0,0,1.08239X$1,22.5*
%
%ADD10C,0.00600*%
%ADD11OC8,0.05200*%
%ADD12C,0.06600*%
%ADD13C,0.05200*%
%ADD14C,0.05200*%
%ADD15C,0.07800*%
D10*
X0299770Y0281300D02*
X0301904Y0287700D01*
X0304364Y0287700D02*
X0307208Y0287700D01*
X0308223Y0289667D02*
X0308223Y0296067D01*
X0310001Y0296067D01*
X0310065Y0296065D01*
X0310130Y0296059D01*
X0310193Y0296050D01*
X0310256Y0296036D01*
X0310318Y0296019D01*
X0310379Y0295998D01*
X0310439Y0295973D01*
X0310497Y0295945D01*
X0310553Y0295913D01*
X0310607Y0295878D01*
X0310659Y0295840D01*
X0310709Y0295799D01*
X0310755Y0295754D01*
X0310800Y0295708D01*
X0310841Y0295658D01*
X0310879Y0295606D01*
X0310914Y0295552D01*
X0310946Y0295496D01*
X0310974Y0295438D01*
X0310999Y0295378D01*
X0311020Y0295317D01*
X0311037Y0295255D01*
X0311051Y0295192D01*
X0311060Y0295129D01*
X0311066Y0295064D01*
X0311068Y0295000D01*
X0311068Y0292867D01*
X0311066Y0292803D01*
X0311060Y0292738D01*
X0311051Y0292675D01*
X0311037Y0292612D01*
X0311020Y0292550D01*
X0310999Y0292489D01*
X0310974Y0292429D01*
X0310946Y0292371D01*
X0310914Y0292315D01*
X0310879Y0292261D01*
X0310841Y0292209D01*
X0310800Y0292159D01*
X0310755Y0292113D01*
X0310709Y0292068D01*
X0310659Y0292027D01*
X0310607Y0291989D01*
X0310553Y0291954D01*
X0310497Y0291922D01*
X0310439Y0291894D01*
X0310379Y0291869D01*
X0310318Y0291848D01*
X0310256Y0291831D01*
X0310193Y0291817D01*
X0310130Y0291808D01*
X0310065Y0291802D01*
X0310001Y0291800D01*
X0308223Y0291800D01*
X0305295Y0291800D02*
X0305295Y0296067D01*
X0302451Y0296067D02*
X0302451Y0292867D01*
X0302453Y0292803D01*
X0302459Y0292738D01*
X0302468Y0292675D01*
X0302482Y0292612D01*
X0302499Y0292550D01*
X0302520Y0292489D01*
X0302545Y0292429D01*
X0302573Y0292371D01*
X0302605Y0292315D01*
X0302640Y0292261D01*
X0302678Y0292209D01*
X0302719Y0292159D01*
X0302764Y0292113D01*
X0302810Y0292068D01*
X0302860Y0292027D01*
X0302912Y0291989D01*
X0302966Y0291954D01*
X0303022Y0291922D01*
X0303080Y0291894D01*
X0303140Y0291869D01*
X0303201Y0291848D01*
X0303263Y0291831D01*
X0303326Y0291817D01*
X0303389Y0291808D01*
X0303454Y0291802D01*
X0303518Y0291800D01*
X0305295Y0291800D01*
X0304364Y0287700D02*
X0304364Y0281300D01*
X0307208Y0281300D01*
X0309768Y0281300D02*
X0309768Y0287700D01*
X0311546Y0287700D01*
X0311629Y0287698D01*
X0311712Y0287692D01*
X0311795Y0287682D01*
X0311878Y0287669D01*
X0311959Y0287651D01*
X0312040Y0287630D01*
X0312119Y0287605D01*
X0312197Y0287576D01*
X0312274Y0287544D01*
X0312349Y0287508D01*
X0312423Y0287469D01*
X0312494Y0287426D01*
X0312564Y0287380D01*
X0312631Y0287330D01*
X0312696Y0287278D01*
X0312758Y0287223D01*
X0312818Y0287164D01*
X0312875Y0287103D01*
X0312929Y0287040D01*
X0312980Y0286974D01*
X0313027Y0286905D01*
X0313072Y0286835D01*
X0313113Y0286762D01*
X0313150Y0286688D01*
X0313185Y0286612D01*
X0313215Y0286534D01*
X0313242Y0286456D01*
X0313265Y0286375D01*
X0313285Y0286294D01*
X0313300Y0286212D01*
X0313312Y0286130D01*
X0313320Y0286047D01*
X0313324Y0285964D01*
X0313324Y0285880D01*
X0313320Y0285797D01*
X0313312Y0285714D01*
X0313300Y0285632D01*
X0313285Y0285550D01*
X0313265Y0285469D01*
X0313242Y0285388D01*
X0313215Y0285310D01*
X0313185Y0285232D01*
X0313150Y0285156D01*
X0313113Y0285082D01*
X0313072Y0285009D01*
X0313027Y0284939D01*
X0312980Y0284870D01*
X0312929Y0284804D01*
X0312875Y0284741D01*
X0312818Y0284680D01*
X0312758Y0284621D01*
X0312696Y0284566D01*
X0312631Y0284514D01*
X0312564Y0284464D01*
X0312494Y0284418D01*
X0312423Y0284375D01*
X0312349Y0284336D01*
X0312274Y0284300D01*
X0312197Y0284268D01*
X0312119Y0284239D01*
X0312040Y0284214D01*
X0311959Y0284193D01*
X0311878Y0284175D01*
X0311795Y0284162D01*
X0311712Y0284152D01*
X0311629Y0284146D01*
X0311546Y0284144D01*
X0309768Y0284144D01*
X0306497Y0284856D02*
X0304364Y0284856D01*
X0299770Y0281300D02*
X0297637Y0287700D01*
X0292933Y0285034D02*
X0292869Y0285074D01*
X0292808Y0285117D01*
X0292749Y0285163D01*
X0292692Y0285212D01*
X0292638Y0285264D01*
X0292587Y0285318D01*
X0292539Y0285376D01*
X0292493Y0285435D01*
X0292451Y0285497D01*
X0292412Y0285562D01*
X0292377Y0285628D01*
X0292345Y0285695D01*
X0292316Y0285765D01*
X0292291Y0285835D01*
X0292270Y0285907D01*
X0292253Y0285980D01*
X0292239Y0286054D01*
X0292230Y0286128D01*
X0292224Y0286203D01*
X0292222Y0286278D01*
X0292224Y0286352D01*
X0292230Y0286427D01*
X0292240Y0286500D01*
X0292253Y0286574D01*
X0292270Y0286646D01*
X0292292Y0286717D01*
X0292316Y0286788D01*
X0292345Y0286856D01*
X0292377Y0286924D01*
X0292413Y0286989D01*
X0292451Y0287052D01*
X0292494Y0287114D01*
X0292539Y0287173D01*
X0292587Y0287230D01*
X0292638Y0287284D01*
X0292693Y0287335D01*
X0292749Y0287383D01*
X0292808Y0287428D01*
X0292870Y0287471D01*
X0292933Y0287509D01*
X0292998Y0287545D01*
X0293066Y0287577D01*
X0293134Y0287606D01*
X0293205Y0287630D01*
X0293276Y0287652D01*
X0293348Y0287669D01*
X0293422Y0287682D01*
X0293495Y0287692D01*
X0293570Y0287698D01*
X0293644Y0287700D01*
X0293745Y0287698D01*
X0293846Y0287692D01*
X0293946Y0287683D01*
X0294046Y0287669D01*
X0294146Y0287652D01*
X0294245Y0287632D01*
X0294342Y0287607D01*
X0294439Y0287579D01*
X0294535Y0287547D01*
X0294630Y0287511D01*
X0294723Y0287472D01*
X0294814Y0287430D01*
X0294904Y0287384D01*
X0294992Y0287334D01*
X0295078Y0287282D01*
X0295162Y0287226D01*
X0295244Y0287167D01*
X0292044Y0282189D02*
X0292121Y0282114D01*
X0292201Y0282041D01*
X0292284Y0281972D01*
X0292369Y0281905D01*
X0292456Y0281842D01*
X0292545Y0281782D01*
X0292637Y0281725D01*
X0292730Y0281671D01*
X0292826Y0281621D01*
X0292923Y0281574D01*
X0293022Y0281531D01*
X0293122Y0281491D01*
X0293223Y0281455D01*
X0293326Y0281423D01*
X0293430Y0281394D01*
X0293535Y0281369D01*
X0293641Y0281348D01*
X0293747Y0281331D01*
X0293854Y0281317D01*
X0293962Y0281308D01*
X0294069Y0281302D01*
X0294177Y0281300D01*
X0294251Y0281302D01*
X0294326Y0281308D01*
X0294399Y0281318D01*
X0294473Y0281331D01*
X0294545Y0281348D01*
X0294616Y0281370D01*
X0294687Y0281394D01*
X0294755Y0281423D01*
X0294823Y0281455D01*
X0294888Y0281491D01*
X0294951Y0281529D01*
X0295013Y0281572D01*
X0295072Y0281617D01*
X0295129Y0281665D01*
X0295183Y0281716D01*
X0295234Y0281770D01*
X0295282Y0281827D01*
X0295327Y0281886D01*
X0295370Y0281948D01*
X0295408Y0282011D01*
X0295444Y0282076D01*
X0295476Y0282144D01*
X0295505Y0282212D01*
X0295529Y0282283D01*
X0295551Y0282354D01*
X0295568Y0282426D01*
X0295581Y0282500D01*
X0295591Y0282573D01*
X0295597Y0282648D01*
X0295599Y0282722D01*
X0294888Y0283967D02*
X0292933Y0285033D01*
X0294888Y0283966D02*
X0294952Y0283926D01*
X0295013Y0283883D01*
X0295072Y0283837D01*
X0295129Y0283788D01*
X0295183Y0283736D01*
X0295234Y0283682D01*
X0295282Y0283624D01*
X0295328Y0283565D01*
X0295370Y0283503D01*
X0295409Y0283438D01*
X0295444Y0283372D01*
X0295476Y0283305D01*
X0295505Y0283235D01*
X0295530Y0283165D01*
X0295551Y0283093D01*
X0295568Y0283020D01*
X0295582Y0282946D01*
X0295591Y0282872D01*
X0295597Y0282797D01*
X0295599Y0282722D01*
X0289144Y0283967D02*
X0287189Y0285033D01*
X0287900Y0287700D02*
X0288001Y0287698D01*
X0288102Y0287692D01*
X0288202Y0287683D01*
X0288302Y0287669D01*
X0288402Y0287652D01*
X0288501Y0287632D01*
X0288598Y0287607D01*
X0288695Y0287579D01*
X0288791Y0287547D01*
X0288886Y0287511D01*
X0288979Y0287472D01*
X0289070Y0287430D01*
X0289160Y0287384D01*
X0289248Y0287334D01*
X0289334Y0287282D01*
X0289418Y0287226D01*
X0289500Y0287167D01*
X0287189Y0285034D02*
X0287125Y0285074D01*
X0287064Y0285117D01*
X0287005Y0285163D01*
X0286948Y0285212D01*
X0286894Y0285264D01*
X0286843Y0285318D01*
X0286795Y0285376D01*
X0286749Y0285435D01*
X0286707Y0285497D01*
X0286668Y0285562D01*
X0286633Y0285628D01*
X0286601Y0285695D01*
X0286572Y0285765D01*
X0286547Y0285835D01*
X0286526Y0285907D01*
X0286509Y0285980D01*
X0286495Y0286054D01*
X0286486Y0286128D01*
X0286480Y0286203D01*
X0286478Y0286278D01*
X0286480Y0286352D01*
X0286486Y0286427D01*
X0286496Y0286500D01*
X0286509Y0286574D01*
X0286526Y0286646D01*
X0286548Y0286717D01*
X0286572Y0286788D01*
X0286601Y0286856D01*
X0286633Y0286924D01*
X0286669Y0286989D01*
X0286707Y0287052D01*
X0286750Y0287114D01*
X0286795Y0287173D01*
X0286843Y0287230D01*
X0286894Y0287284D01*
X0286949Y0287335D01*
X0287005Y0287383D01*
X0287064Y0287428D01*
X0287126Y0287471D01*
X0287189Y0287509D01*
X0287254Y0287545D01*
X0287322Y0287577D01*
X0287390Y0287606D01*
X0287461Y0287630D01*
X0287532Y0287652D01*
X0287604Y0287669D01*
X0287678Y0287682D01*
X0287751Y0287692D01*
X0287826Y0287698D01*
X0287900Y0287700D01*
X0286300Y0282189D02*
X0286377Y0282114D01*
X0286457Y0282041D01*
X0286540Y0281972D01*
X0286625Y0281905D01*
X0286712Y0281842D01*
X0286801Y0281782D01*
X0286893Y0281725D01*
X0286986Y0281671D01*
X0287082Y0281621D01*
X0287179Y0281574D01*
X0287278Y0281531D01*
X0287378Y0281491D01*
X0287479Y0281455D01*
X0287582Y0281423D01*
X0287686Y0281394D01*
X0287791Y0281369D01*
X0287897Y0281348D01*
X0288003Y0281331D01*
X0288110Y0281317D01*
X0288218Y0281308D01*
X0288325Y0281302D01*
X0288433Y0281300D01*
X0288507Y0281302D01*
X0288582Y0281308D01*
X0288655Y0281318D01*
X0288729Y0281331D01*
X0288801Y0281348D01*
X0288872Y0281370D01*
X0288943Y0281394D01*
X0289011Y0281423D01*
X0289079Y0281455D01*
X0289144Y0281491D01*
X0289207Y0281529D01*
X0289269Y0281572D01*
X0289328Y0281617D01*
X0289385Y0281665D01*
X0289439Y0281716D01*
X0289490Y0281770D01*
X0289538Y0281827D01*
X0289583Y0281886D01*
X0289626Y0281948D01*
X0289664Y0282011D01*
X0289700Y0282076D01*
X0289732Y0282144D01*
X0289761Y0282212D01*
X0289785Y0282283D01*
X0289807Y0282354D01*
X0289824Y0282426D01*
X0289837Y0282500D01*
X0289847Y0282573D01*
X0289853Y0282648D01*
X0289855Y0282722D01*
X0289853Y0282797D01*
X0289847Y0282872D01*
X0289838Y0282946D01*
X0289824Y0283020D01*
X0289807Y0283093D01*
X0289786Y0283165D01*
X0289761Y0283235D01*
X0289732Y0283305D01*
X0289700Y0283372D01*
X0289665Y0283438D01*
X0289626Y0283503D01*
X0289584Y0283565D01*
X0289538Y0283624D01*
X0289490Y0283682D01*
X0289439Y0283736D01*
X0289385Y0283788D01*
X0289328Y0283837D01*
X0289269Y0283883D01*
X0289208Y0283926D01*
X0289144Y0283966D01*
X0289856Y0291800D02*
X0287722Y0291800D01*
X0287648Y0291802D01*
X0287573Y0291808D01*
X0287500Y0291818D01*
X0287426Y0291831D01*
X0287354Y0291848D01*
X0287283Y0291870D01*
X0287212Y0291894D01*
X0287144Y0291923D01*
X0287076Y0291955D01*
X0287011Y0291991D01*
X0286948Y0292029D01*
X0286886Y0292072D01*
X0286827Y0292117D01*
X0286770Y0292165D01*
X0286716Y0292216D01*
X0286665Y0292270D01*
X0286617Y0292327D01*
X0286572Y0292386D01*
X0286529Y0292448D01*
X0286491Y0292511D01*
X0286455Y0292576D01*
X0286423Y0292644D01*
X0286394Y0292712D01*
X0286370Y0292783D01*
X0286348Y0292854D01*
X0286331Y0292926D01*
X0286318Y0293000D01*
X0286308Y0293073D01*
X0286302Y0293148D01*
X0286300Y0293222D01*
X0286300Y0296778D01*
X0286302Y0296852D01*
X0286308Y0296927D01*
X0286318Y0297000D01*
X0286331Y0297074D01*
X0286348Y0297146D01*
X0286370Y0297217D01*
X0286394Y0297288D01*
X0286423Y0297356D01*
X0286455Y0297424D01*
X0286491Y0297489D01*
X0286529Y0297552D01*
X0286572Y0297614D01*
X0286617Y0297673D01*
X0286665Y0297729D01*
X0286716Y0297784D01*
X0286770Y0297835D01*
X0286827Y0297883D01*
X0286886Y0297928D01*
X0286948Y0297971D01*
X0287011Y0298009D01*
X0287076Y0298045D01*
X0287144Y0298077D01*
X0287212Y0298106D01*
X0287283Y0298130D01*
X0287354Y0298152D01*
X0287426Y0298169D01*
X0287500Y0298182D01*
X0287573Y0298192D01*
X0287648Y0298198D01*
X0287722Y0298200D01*
X0289856Y0298200D01*
X0289856Y0295356D02*
X0288789Y0295356D01*
X0289856Y0295356D02*
X0289856Y0291800D01*
X0292843Y0291800D02*
X0292843Y0296067D01*
X0294976Y0296067D01*
X0294976Y0295356D01*
X0296912Y0294644D02*
X0296912Y0293222D01*
X0296914Y0293148D01*
X0296920Y0293073D01*
X0296930Y0293000D01*
X0296943Y0292926D01*
X0296960Y0292854D01*
X0296982Y0292783D01*
X0297006Y0292712D01*
X0297035Y0292644D01*
X0297067Y0292576D01*
X0297103Y0292511D01*
X0297141Y0292448D01*
X0297184Y0292386D01*
X0297229Y0292327D01*
X0297277Y0292270D01*
X0297328Y0292216D01*
X0297382Y0292165D01*
X0297439Y0292117D01*
X0297498Y0292072D01*
X0297560Y0292029D01*
X0297623Y0291991D01*
X0297688Y0291955D01*
X0297756Y0291923D01*
X0297824Y0291894D01*
X0297895Y0291870D01*
X0297966Y0291848D01*
X0298038Y0291831D01*
X0298112Y0291818D01*
X0298185Y0291808D01*
X0298260Y0291802D01*
X0298334Y0291800D01*
X0298408Y0291802D01*
X0298483Y0291808D01*
X0298556Y0291818D01*
X0298630Y0291831D01*
X0298702Y0291848D01*
X0298773Y0291870D01*
X0298844Y0291894D01*
X0298912Y0291923D01*
X0298980Y0291955D01*
X0299045Y0291991D01*
X0299108Y0292029D01*
X0299170Y0292072D01*
X0299229Y0292117D01*
X0299286Y0292165D01*
X0299340Y0292216D01*
X0299391Y0292270D01*
X0299439Y0292327D01*
X0299484Y0292386D01*
X0299527Y0292448D01*
X0299565Y0292511D01*
X0299601Y0292576D01*
X0299633Y0292644D01*
X0299662Y0292712D01*
X0299686Y0292783D01*
X0299708Y0292854D01*
X0299725Y0292926D01*
X0299738Y0293000D01*
X0299748Y0293073D01*
X0299754Y0293148D01*
X0299756Y0293222D01*
X0299757Y0293222D02*
X0299757Y0294644D01*
X0299756Y0294644D02*
X0299754Y0294718D01*
X0299748Y0294793D01*
X0299738Y0294866D01*
X0299725Y0294940D01*
X0299708Y0295012D01*
X0299686Y0295083D01*
X0299662Y0295154D01*
X0299633Y0295222D01*
X0299601Y0295290D01*
X0299565Y0295355D01*
X0299527Y0295418D01*
X0299484Y0295480D01*
X0299439Y0295539D01*
X0299391Y0295596D01*
X0299340Y0295650D01*
X0299286Y0295701D01*
X0299229Y0295749D01*
X0299170Y0295794D01*
X0299108Y0295837D01*
X0299045Y0295875D01*
X0298980Y0295911D01*
X0298912Y0295943D01*
X0298844Y0295972D01*
X0298773Y0295996D01*
X0298702Y0296018D01*
X0298630Y0296035D01*
X0298556Y0296048D01*
X0298483Y0296058D01*
X0298408Y0296064D01*
X0298334Y0296066D01*
X0298260Y0296064D01*
X0298185Y0296058D01*
X0298112Y0296048D01*
X0298038Y0296035D01*
X0297966Y0296018D01*
X0297895Y0295996D01*
X0297824Y0295972D01*
X0297756Y0295943D01*
X0297688Y0295911D01*
X0297623Y0295875D01*
X0297560Y0295837D01*
X0297498Y0295794D01*
X0297439Y0295749D01*
X0297382Y0295701D01*
X0297328Y0295650D01*
X0297277Y0295596D01*
X0297229Y0295539D01*
X0297184Y0295480D01*
X0297141Y0295418D01*
X0297103Y0295355D01*
X0297067Y0295290D01*
X0297035Y0295222D01*
X0297006Y0295154D01*
X0296982Y0295083D01*
X0296960Y0295012D01*
X0296943Y0294940D01*
X0296930Y0294866D01*
X0296920Y0294793D01*
X0296914Y0294718D01*
X0296912Y0294644D01*
X0316865Y0291800D02*
X0318643Y0291800D01*
X0318726Y0291802D01*
X0318809Y0291808D01*
X0318892Y0291818D01*
X0318975Y0291831D01*
X0319056Y0291849D01*
X0319137Y0291870D01*
X0319216Y0291895D01*
X0319294Y0291924D01*
X0319371Y0291956D01*
X0319446Y0291992D01*
X0319520Y0292031D01*
X0319591Y0292074D01*
X0319661Y0292120D01*
X0319728Y0292170D01*
X0319793Y0292222D01*
X0319855Y0292277D01*
X0319915Y0292336D01*
X0319972Y0292397D01*
X0320026Y0292460D01*
X0320077Y0292526D01*
X0320124Y0292595D01*
X0320169Y0292665D01*
X0320210Y0292738D01*
X0320247Y0292812D01*
X0320282Y0292888D01*
X0320312Y0292966D01*
X0320339Y0293044D01*
X0320362Y0293125D01*
X0320382Y0293206D01*
X0320397Y0293288D01*
X0320409Y0293370D01*
X0320417Y0293453D01*
X0320421Y0293536D01*
X0320421Y0293620D01*
X0320417Y0293703D01*
X0320409Y0293786D01*
X0320397Y0293868D01*
X0320382Y0293950D01*
X0320362Y0294031D01*
X0320339Y0294112D01*
X0320312Y0294190D01*
X0320282Y0294268D01*
X0320247Y0294344D01*
X0320210Y0294418D01*
X0320169Y0294491D01*
X0320124Y0294561D01*
X0320077Y0294630D01*
X0320026Y0294696D01*
X0319972Y0294759D01*
X0319915Y0294820D01*
X0319855Y0294879D01*
X0319793Y0294934D01*
X0319728Y0294986D01*
X0319661Y0295036D01*
X0319591Y0295082D01*
X0319520Y0295125D01*
X0319446Y0295164D01*
X0319371Y0295200D01*
X0319294Y0295232D01*
X0319216Y0295261D01*
X0319137Y0295286D01*
X0319056Y0295307D01*
X0318975Y0295325D01*
X0318892Y0295338D01*
X0318809Y0295348D01*
X0318726Y0295354D01*
X0318643Y0295356D01*
X0318998Y0295356D02*
X0317576Y0295356D01*
X0318998Y0295356D02*
X0319072Y0295358D01*
X0319147Y0295364D01*
X0319220Y0295374D01*
X0319294Y0295387D01*
X0319366Y0295404D01*
X0319437Y0295426D01*
X0319508Y0295450D01*
X0319576Y0295479D01*
X0319644Y0295511D01*
X0319709Y0295547D01*
X0319772Y0295585D01*
X0319834Y0295628D01*
X0319893Y0295673D01*
X0319950Y0295721D01*
X0320004Y0295772D01*
X0320055Y0295826D01*
X0320103Y0295883D01*
X0320148Y0295942D01*
X0320191Y0296004D01*
X0320229Y0296067D01*
X0320265Y0296132D01*
X0320297Y0296200D01*
X0320326Y0296268D01*
X0320350Y0296339D01*
X0320372Y0296410D01*
X0320389Y0296482D01*
X0320402Y0296556D01*
X0320412Y0296629D01*
X0320418Y0296704D01*
X0320420Y0296778D01*
X0320418Y0296852D01*
X0320412Y0296927D01*
X0320402Y0297000D01*
X0320389Y0297074D01*
X0320372Y0297146D01*
X0320350Y0297217D01*
X0320326Y0297288D01*
X0320297Y0297356D01*
X0320265Y0297424D01*
X0320229Y0297489D01*
X0320191Y0297552D01*
X0320148Y0297614D01*
X0320103Y0297673D01*
X0320055Y0297730D01*
X0320004Y0297784D01*
X0319950Y0297835D01*
X0319893Y0297883D01*
X0319834Y0297928D01*
X0319772Y0297971D01*
X0319709Y0298009D01*
X0319644Y0298045D01*
X0319576Y0298077D01*
X0319508Y0298106D01*
X0319437Y0298130D01*
X0319366Y0298152D01*
X0319294Y0298169D01*
X0319220Y0298182D01*
X0319147Y0298192D01*
X0319072Y0298198D01*
X0318998Y0298200D01*
X0316865Y0298200D01*
X0323019Y0296778D02*
X0324797Y0298200D01*
X0324797Y0291800D01*
X0323019Y0291800D02*
X0326575Y0291800D01*
X0324083Y0287700D02*
X0324083Y0282367D01*
X0324085Y0282303D01*
X0324091Y0282238D01*
X0324100Y0282175D01*
X0324114Y0282112D01*
X0324131Y0282050D01*
X0324152Y0281989D01*
X0324177Y0281929D01*
X0324205Y0281871D01*
X0324237Y0281815D01*
X0324272Y0281761D01*
X0324310Y0281709D01*
X0324351Y0281659D01*
X0324396Y0281613D01*
X0324442Y0281568D01*
X0324492Y0281527D01*
X0324544Y0281489D01*
X0324598Y0281454D01*
X0324654Y0281422D01*
X0324712Y0281394D01*
X0324772Y0281369D01*
X0324833Y0281348D01*
X0324895Y0281331D01*
X0324958Y0281317D01*
X0325021Y0281308D01*
X0325086Y0281302D01*
X0325150Y0281300D01*
X0328488Y0281300D02*
X0330088Y0281300D01*
X0330088Y0284500D01*
X0330088Y0283789D02*
X0328488Y0283789D01*
X0330088Y0284500D02*
X0330086Y0284564D01*
X0330080Y0284629D01*
X0330071Y0284692D01*
X0330057Y0284755D01*
X0330040Y0284817D01*
X0330019Y0284878D01*
X0329994Y0284938D01*
X0329966Y0284996D01*
X0329934Y0285052D01*
X0329899Y0285106D01*
X0329861Y0285158D01*
X0329820Y0285208D01*
X0329775Y0285254D01*
X0329729Y0285299D01*
X0329679Y0285340D01*
X0329627Y0285378D01*
X0329573Y0285413D01*
X0329517Y0285445D01*
X0329459Y0285473D01*
X0329399Y0285498D01*
X0329338Y0285519D01*
X0329276Y0285536D01*
X0329213Y0285550D01*
X0329150Y0285559D01*
X0329085Y0285565D01*
X0329021Y0285567D01*
X0327599Y0285567D01*
X0328488Y0283788D02*
X0328418Y0283786D01*
X0328349Y0283780D01*
X0328280Y0283770D01*
X0328211Y0283757D01*
X0328144Y0283739D01*
X0328077Y0283718D01*
X0328012Y0283693D01*
X0327948Y0283665D01*
X0327886Y0283633D01*
X0327826Y0283597D01*
X0327768Y0283559D01*
X0327712Y0283517D01*
X0327659Y0283472D01*
X0327608Y0283424D01*
X0327560Y0283373D01*
X0327515Y0283320D01*
X0327473Y0283264D01*
X0327435Y0283206D01*
X0327399Y0283146D01*
X0327367Y0283084D01*
X0327339Y0283020D01*
X0327314Y0282955D01*
X0327293Y0282888D01*
X0327275Y0282821D01*
X0327262Y0282752D01*
X0327252Y0282683D01*
X0327246Y0282614D01*
X0327244Y0282544D01*
X0327246Y0282474D01*
X0327252Y0282405D01*
X0327262Y0282336D01*
X0327275Y0282267D01*
X0327293Y0282200D01*
X0327314Y0282133D01*
X0327339Y0282068D01*
X0327367Y0282004D01*
X0327399Y0281942D01*
X0327435Y0281882D01*
X0327473Y0281824D01*
X0327515Y0281768D01*
X0327560Y0281715D01*
X0327608Y0281664D01*
X0327659Y0281616D01*
X0327712Y0281571D01*
X0327768Y0281529D01*
X0327826Y0281491D01*
X0327886Y0281455D01*
X0327948Y0281423D01*
X0328012Y0281395D01*
X0328077Y0281370D01*
X0328144Y0281349D01*
X0328211Y0281331D01*
X0328280Y0281318D01*
X0328349Y0281308D01*
X0328418Y0281302D01*
X0328488Y0281300D01*
X0333700Y0285567D02*
X0333818Y0285563D01*
X0333935Y0285556D01*
X0334053Y0285546D01*
X0334170Y0285532D01*
X0334286Y0285515D01*
X0334402Y0285495D01*
X0334518Y0285471D01*
X0334633Y0285444D01*
X0334747Y0285413D01*
X0334859Y0285379D01*
X0334971Y0285342D01*
X0335082Y0285301D01*
X0335192Y0285258D01*
X0335300Y0285211D01*
X0333699Y0285567D02*
X0333640Y0285566D01*
X0333580Y0285561D01*
X0333522Y0285552D01*
X0333463Y0285540D01*
X0333406Y0285523D01*
X0333350Y0285504D01*
X0333295Y0285480D01*
X0333242Y0285453D01*
X0333191Y0285423D01*
X0333142Y0285389D01*
X0333095Y0285353D01*
X0333051Y0285313D01*
X0333009Y0285271D01*
X0332970Y0285226D01*
X0332934Y0285178D01*
X0332901Y0285129D01*
X0332872Y0285077D01*
X0332845Y0285024D01*
X0332823Y0284969D01*
X0332804Y0284912D01*
X0332788Y0284855D01*
X0332777Y0284797D01*
X0332769Y0284738D01*
X0332765Y0284678D01*
X0332764Y0284619D01*
X0332768Y0284559D01*
X0332775Y0284500D01*
X0332787Y0284442D01*
X0332802Y0284384D01*
X0332820Y0284328D01*
X0332843Y0284273D01*
X0332868Y0284219D01*
X0332898Y0284167D01*
X0332930Y0284117D01*
X0332966Y0284070D01*
X0333004Y0284024D01*
X0333046Y0283982D01*
X0333090Y0283942D01*
X0333136Y0283905D01*
X0333185Y0283871D01*
X0333236Y0283840D01*
X0333289Y0283813D01*
X0333344Y0283789D01*
X0335122Y0283078D01*
X0335121Y0283078D02*
X0335176Y0283054D01*
X0335229Y0283027D01*
X0335280Y0282996D01*
X0335329Y0282962D01*
X0335375Y0282925D01*
X0335419Y0282885D01*
X0335461Y0282843D01*
X0335499Y0282797D01*
X0335535Y0282750D01*
X0335567Y0282700D01*
X0335597Y0282648D01*
X0335622Y0282594D01*
X0335645Y0282539D01*
X0335663Y0282483D01*
X0335678Y0282425D01*
X0335690Y0282367D01*
X0335697Y0282308D01*
X0335701Y0282248D01*
X0335700Y0282189D01*
X0335696Y0282129D01*
X0335688Y0282070D01*
X0335677Y0282012D01*
X0335661Y0281955D01*
X0335642Y0281898D01*
X0335620Y0281843D01*
X0335593Y0281790D01*
X0335564Y0281738D01*
X0335531Y0281689D01*
X0335495Y0281641D01*
X0335456Y0281596D01*
X0335414Y0281554D01*
X0335370Y0281514D01*
X0335323Y0281478D01*
X0335274Y0281444D01*
X0335223Y0281414D01*
X0335170Y0281387D01*
X0335115Y0281363D01*
X0335059Y0281344D01*
X0335002Y0281327D01*
X0334943Y0281315D01*
X0334885Y0281306D01*
X0334825Y0281301D01*
X0334766Y0281300D01*
X0339033Y0285567D02*
X0339151Y0285563D01*
X0339268Y0285556D01*
X0339386Y0285546D01*
X0339503Y0285532D01*
X0339619Y0285515D01*
X0339735Y0285495D01*
X0339851Y0285471D01*
X0339966Y0285444D01*
X0340080Y0285413D01*
X0340192Y0285379D01*
X0340304Y0285342D01*
X0340415Y0285301D01*
X0340525Y0285258D01*
X0340633Y0285211D01*
X0339033Y0285567D02*
X0338974Y0285566D01*
X0338914Y0285561D01*
X0338856Y0285552D01*
X0338797Y0285540D01*
X0338740Y0285523D01*
X0338684Y0285504D01*
X0338629Y0285480D01*
X0338576Y0285453D01*
X0338525Y0285423D01*
X0338476Y0285389D01*
X0338429Y0285353D01*
X0338385Y0285313D01*
X0338343Y0285271D01*
X0338304Y0285226D01*
X0338268Y0285178D01*
X0338235Y0285129D01*
X0338206Y0285077D01*
X0338179Y0285024D01*
X0338157Y0284969D01*
X0338138Y0284912D01*
X0338122Y0284855D01*
X0338111Y0284797D01*
X0338103Y0284738D01*
X0338099Y0284678D01*
X0338098Y0284619D01*
X0338102Y0284559D01*
X0338109Y0284500D01*
X0338121Y0284442D01*
X0338136Y0284384D01*
X0338154Y0284328D01*
X0338177Y0284273D01*
X0338202Y0284219D01*
X0338232Y0284167D01*
X0338264Y0284117D01*
X0338300Y0284070D01*
X0338338Y0284024D01*
X0338380Y0283982D01*
X0338424Y0283942D01*
X0338470Y0283905D01*
X0338519Y0283871D01*
X0338570Y0283840D01*
X0338623Y0283813D01*
X0338678Y0283789D01*
X0340455Y0283078D01*
X0340510Y0283054D01*
X0340563Y0283027D01*
X0340614Y0282996D01*
X0340663Y0282962D01*
X0340709Y0282925D01*
X0340753Y0282885D01*
X0340795Y0282843D01*
X0340833Y0282797D01*
X0340869Y0282750D01*
X0340901Y0282700D01*
X0340931Y0282648D01*
X0340956Y0282594D01*
X0340979Y0282539D01*
X0340997Y0282483D01*
X0341012Y0282425D01*
X0341024Y0282367D01*
X0341031Y0282308D01*
X0341035Y0282248D01*
X0341034Y0282189D01*
X0341030Y0282129D01*
X0341022Y0282070D01*
X0341011Y0282012D01*
X0340995Y0281955D01*
X0340976Y0281898D01*
X0340954Y0281843D01*
X0340927Y0281790D01*
X0340898Y0281738D01*
X0340865Y0281689D01*
X0340829Y0281641D01*
X0340790Y0281596D01*
X0340748Y0281554D01*
X0340704Y0281514D01*
X0340657Y0281478D01*
X0340608Y0281444D01*
X0340557Y0281414D01*
X0340504Y0281387D01*
X0340449Y0281363D01*
X0340393Y0281344D01*
X0340336Y0281327D01*
X0340277Y0281315D01*
X0340219Y0281306D01*
X0340159Y0281301D01*
X0340100Y0281300D01*
X0343464Y0281300D02*
X0343464Y0285567D01*
X0343642Y0287344D02*
X0343286Y0287344D01*
X0343286Y0287700D01*
X0343642Y0287700D01*
X0343642Y0287344D01*
X0345578Y0285567D02*
X0347711Y0285567D01*
X0346289Y0286633D02*
X0346291Y0286697D01*
X0346297Y0286762D01*
X0346306Y0286825D01*
X0346320Y0286888D01*
X0346337Y0286950D01*
X0346358Y0287011D01*
X0346383Y0287071D01*
X0346411Y0287129D01*
X0346443Y0287185D01*
X0346478Y0287239D01*
X0346516Y0287291D01*
X0346557Y0287341D01*
X0346602Y0287387D01*
X0346648Y0287432D01*
X0346698Y0287473D01*
X0346750Y0287511D01*
X0346804Y0287546D01*
X0346860Y0287578D01*
X0346918Y0287606D01*
X0346978Y0287631D01*
X0347039Y0287652D01*
X0347101Y0287669D01*
X0347164Y0287683D01*
X0347227Y0287692D01*
X0347292Y0287698D01*
X0347356Y0287700D01*
X0347711Y0287700D01*
X0349235Y0287700D02*
X0349591Y0287700D01*
X0349591Y0287344D01*
X0349235Y0287344D01*
X0349235Y0287700D01*
X0349413Y0285567D02*
X0349413Y0281300D01*
X0351895Y0282367D02*
X0351895Y0284500D01*
X0351897Y0284564D01*
X0351903Y0284629D01*
X0351912Y0284692D01*
X0351926Y0284755D01*
X0351943Y0284817D01*
X0351964Y0284878D01*
X0351989Y0284938D01*
X0352017Y0284996D01*
X0352049Y0285052D01*
X0352084Y0285106D01*
X0352122Y0285158D01*
X0352163Y0285208D01*
X0352208Y0285254D01*
X0352254Y0285299D01*
X0352304Y0285340D01*
X0352356Y0285378D01*
X0352410Y0285413D01*
X0352466Y0285445D01*
X0352524Y0285473D01*
X0352584Y0285498D01*
X0352645Y0285519D01*
X0352707Y0285536D01*
X0352770Y0285550D01*
X0352833Y0285559D01*
X0352898Y0285565D01*
X0352962Y0285567D01*
X0354384Y0285567D01*
X0356933Y0285567D02*
X0358355Y0285567D01*
X0358419Y0285565D01*
X0358484Y0285559D01*
X0358547Y0285550D01*
X0358610Y0285536D01*
X0358672Y0285519D01*
X0358733Y0285498D01*
X0358793Y0285473D01*
X0358851Y0285445D01*
X0358907Y0285413D01*
X0358961Y0285378D01*
X0359013Y0285340D01*
X0359063Y0285299D01*
X0359109Y0285254D01*
X0359154Y0285208D01*
X0359195Y0285158D01*
X0359233Y0285106D01*
X0359268Y0285052D01*
X0359300Y0284996D01*
X0359328Y0284938D01*
X0359353Y0284878D01*
X0359374Y0284817D01*
X0359391Y0284755D01*
X0359405Y0284692D01*
X0359414Y0284629D01*
X0359420Y0284564D01*
X0359422Y0284500D01*
X0359422Y0281300D01*
X0357822Y0281300D01*
X0357752Y0281302D01*
X0357683Y0281308D01*
X0357614Y0281318D01*
X0357545Y0281331D01*
X0357478Y0281349D01*
X0357411Y0281370D01*
X0357346Y0281395D01*
X0357282Y0281423D01*
X0357220Y0281455D01*
X0357160Y0281491D01*
X0357102Y0281529D01*
X0357046Y0281571D01*
X0356993Y0281616D01*
X0356942Y0281664D01*
X0356894Y0281715D01*
X0356849Y0281768D01*
X0356807Y0281824D01*
X0356769Y0281882D01*
X0356733Y0281942D01*
X0356701Y0282004D01*
X0356673Y0282068D01*
X0356648Y0282133D01*
X0356627Y0282200D01*
X0356609Y0282267D01*
X0356596Y0282336D01*
X0356586Y0282405D01*
X0356580Y0282474D01*
X0356578Y0282544D01*
X0356580Y0282614D01*
X0356586Y0282683D01*
X0356596Y0282752D01*
X0356609Y0282821D01*
X0356627Y0282888D01*
X0356648Y0282955D01*
X0356673Y0283020D01*
X0356701Y0283084D01*
X0356733Y0283146D01*
X0356769Y0283206D01*
X0356807Y0283264D01*
X0356849Y0283320D01*
X0356894Y0283373D01*
X0356942Y0283424D01*
X0356993Y0283472D01*
X0357046Y0283517D01*
X0357102Y0283559D01*
X0357160Y0283597D01*
X0357220Y0283633D01*
X0357282Y0283665D01*
X0357346Y0283693D01*
X0357411Y0283718D01*
X0357478Y0283739D01*
X0357545Y0283757D01*
X0357614Y0283770D01*
X0357683Y0283780D01*
X0357752Y0283786D01*
X0357822Y0283788D01*
X0357822Y0283789D02*
X0359422Y0283789D01*
X0361634Y0285567D02*
X0363768Y0285567D01*
X0366029Y0285567D02*
X0366029Y0281300D01*
X0363768Y0281300D02*
X0363412Y0281300D01*
X0363348Y0281302D01*
X0363283Y0281308D01*
X0363220Y0281317D01*
X0363157Y0281331D01*
X0363095Y0281348D01*
X0363034Y0281369D01*
X0362974Y0281394D01*
X0362916Y0281422D01*
X0362860Y0281454D01*
X0362806Y0281489D01*
X0362754Y0281527D01*
X0362704Y0281568D01*
X0362658Y0281613D01*
X0362613Y0281659D01*
X0362572Y0281709D01*
X0362534Y0281761D01*
X0362499Y0281815D01*
X0362467Y0281871D01*
X0362439Y0281929D01*
X0362414Y0281989D01*
X0362393Y0282050D01*
X0362376Y0282112D01*
X0362362Y0282175D01*
X0362353Y0282238D01*
X0362347Y0282303D01*
X0362345Y0282367D01*
X0362345Y0287700D01*
X0365851Y0287700D02*
X0366207Y0287700D01*
X0366207Y0287344D01*
X0365851Y0287344D01*
X0365851Y0287700D01*
X0368504Y0284144D02*
X0368504Y0282722D01*
X0368506Y0282648D01*
X0368512Y0282573D01*
X0368522Y0282500D01*
X0368535Y0282426D01*
X0368552Y0282354D01*
X0368574Y0282283D01*
X0368598Y0282212D01*
X0368627Y0282144D01*
X0368659Y0282076D01*
X0368695Y0282011D01*
X0368733Y0281948D01*
X0368776Y0281886D01*
X0368821Y0281827D01*
X0368869Y0281770D01*
X0368920Y0281716D01*
X0368974Y0281665D01*
X0369031Y0281617D01*
X0369090Y0281572D01*
X0369152Y0281529D01*
X0369215Y0281491D01*
X0369280Y0281455D01*
X0369348Y0281423D01*
X0369416Y0281394D01*
X0369487Y0281370D01*
X0369558Y0281348D01*
X0369630Y0281331D01*
X0369704Y0281318D01*
X0369777Y0281308D01*
X0369852Y0281302D01*
X0369926Y0281300D01*
X0370000Y0281302D01*
X0370075Y0281308D01*
X0370148Y0281318D01*
X0370222Y0281331D01*
X0370294Y0281348D01*
X0370365Y0281370D01*
X0370436Y0281394D01*
X0370504Y0281423D01*
X0370572Y0281455D01*
X0370637Y0281491D01*
X0370700Y0281529D01*
X0370762Y0281572D01*
X0370821Y0281617D01*
X0370878Y0281665D01*
X0370932Y0281716D01*
X0370983Y0281770D01*
X0371031Y0281827D01*
X0371076Y0281886D01*
X0371119Y0281948D01*
X0371157Y0282011D01*
X0371193Y0282076D01*
X0371225Y0282144D01*
X0371254Y0282212D01*
X0371278Y0282283D01*
X0371300Y0282354D01*
X0371317Y0282426D01*
X0371330Y0282500D01*
X0371340Y0282573D01*
X0371346Y0282648D01*
X0371348Y0282722D01*
X0371349Y0282722D02*
X0371349Y0284144D01*
X0371348Y0284144D02*
X0371346Y0284218D01*
X0371340Y0284293D01*
X0371330Y0284366D01*
X0371317Y0284440D01*
X0371300Y0284512D01*
X0371278Y0284583D01*
X0371254Y0284654D01*
X0371225Y0284722D01*
X0371193Y0284790D01*
X0371157Y0284855D01*
X0371119Y0284918D01*
X0371076Y0284980D01*
X0371031Y0285039D01*
X0370983Y0285096D01*
X0370932Y0285150D01*
X0370878Y0285201D01*
X0370821Y0285249D01*
X0370762Y0285294D01*
X0370700Y0285337D01*
X0370637Y0285375D01*
X0370572Y0285411D01*
X0370504Y0285443D01*
X0370436Y0285472D01*
X0370365Y0285496D01*
X0370294Y0285518D01*
X0370222Y0285535D01*
X0370148Y0285548D01*
X0370075Y0285558D01*
X0370000Y0285564D01*
X0369926Y0285566D01*
X0369852Y0285564D01*
X0369777Y0285558D01*
X0369704Y0285548D01*
X0369630Y0285535D01*
X0369558Y0285518D01*
X0369487Y0285496D01*
X0369416Y0285472D01*
X0369348Y0285443D01*
X0369280Y0285411D01*
X0369215Y0285375D01*
X0369152Y0285337D01*
X0369090Y0285294D01*
X0369031Y0285249D01*
X0368974Y0285201D01*
X0368920Y0285150D01*
X0368869Y0285096D01*
X0368821Y0285039D01*
X0368776Y0284980D01*
X0368733Y0284918D01*
X0368695Y0284855D01*
X0368659Y0284790D01*
X0368627Y0284722D01*
X0368598Y0284654D01*
X0368574Y0284583D01*
X0368552Y0284512D01*
X0368535Y0284440D01*
X0368522Y0284366D01*
X0368512Y0284293D01*
X0368506Y0284218D01*
X0368504Y0284144D01*
X0374043Y0285567D02*
X0374043Y0281300D01*
X0376887Y0281300D02*
X0376887Y0284500D01*
X0376885Y0284564D01*
X0376879Y0284629D01*
X0376870Y0284692D01*
X0376856Y0284755D01*
X0376839Y0284817D01*
X0376818Y0284878D01*
X0376793Y0284938D01*
X0376765Y0284996D01*
X0376733Y0285052D01*
X0376698Y0285106D01*
X0376660Y0285158D01*
X0376619Y0285208D01*
X0376574Y0285254D01*
X0376528Y0285299D01*
X0376478Y0285340D01*
X0376426Y0285378D01*
X0376372Y0285413D01*
X0376316Y0285445D01*
X0376258Y0285473D01*
X0376198Y0285498D01*
X0376137Y0285519D01*
X0376075Y0285536D01*
X0376012Y0285550D01*
X0375949Y0285559D01*
X0375884Y0285565D01*
X0375820Y0285567D01*
X0374043Y0285567D01*
X0354384Y0281300D02*
X0352962Y0281300D01*
X0352898Y0281302D01*
X0352833Y0281308D01*
X0352770Y0281317D01*
X0352707Y0281331D01*
X0352645Y0281348D01*
X0352584Y0281369D01*
X0352524Y0281394D01*
X0352466Y0281422D01*
X0352410Y0281454D01*
X0352356Y0281489D01*
X0352304Y0281527D01*
X0352254Y0281568D01*
X0352208Y0281613D01*
X0352163Y0281659D01*
X0352122Y0281709D01*
X0352084Y0281761D01*
X0352049Y0281815D01*
X0352017Y0281871D01*
X0351989Y0281929D01*
X0351964Y0281989D01*
X0351943Y0282050D01*
X0351926Y0282112D01*
X0351912Y0282175D01*
X0351903Y0282238D01*
X0351897Y0282303D01*
X0351895Y0282367D01*
X0346289Y0281300D02*
X0346289Y0286633D01*
X0340100Y0281300D02*
X0339946Y0281304D01*
X0339793Y0281312D01*
X0339640Y0281324D01*
X0339487Y0281340D01*
X0339335Y0281359D01*
X0339183Y0281383D01*
X0339032Y0281410D01*
X0338882Y0281442D01*
X0338732Y0281477D01*
X0338583Y0281516D01*
X0338436Y0281559D01*
X0338289Y0281605D01*
X0338144Y0281655D01*
X0334766Y0281300D02*
X0334612Y0281304D01*
X0334459Y0281312D01*
X0334306Y0281324D01*
X0334153Y0281340D01*
X0334001Y0281359D01*
X0333849Y0281383D01*
X0333698Y0281410D01*
X0333548Y0281442D01*
X0333398Y0281477D01*
X0333249Y0281516D01*
X0333102Y0281559D01*
X0332955Y0281605D01*
X0332810Y0281655D01*
X0321745Y0281300D02*
X0320323Y0281300D01*
X0320249Y0281302D01*
X0320174Y0281308D01*
X0320101Y0281318D01*
X0320027Y0281331D01*
X0319955Y0281348D01*
X0319884Y0281370D01*
X0319813Y0281394D01*
X0319745Y0281423D01*
X0319677Y0281455D01*
X0319612Y0281491D01*
X0319549Y0281529D01*
X0319487Y0281572D01*
X0319428Y0281617D01*
X0319371Y0281665D01*
X0319317Y0281716D01*
X0319266Y0281770D01*
X0319218Y0281827D01*
X0319173Y0281886D01*
X0319130Y0281948D01*
X0319092Y0282011D01*
X0319056Y0282076D01*
X0319024Y0282144D01*
X0318995Y0282212D01*
X0318971Y0282283D01*
X0318949Y0282354D01*
X0318932Y0282426D01*
X0318919Y0282500D01*
X0318909Y0282573D01*
X0318903Y0282648D01*
X0318901Y0282722D01*
X0318901Y0286278D01*
X0318903Y0286352D01*
X0318909Y0286427D01*
X0318919Y0286500D01*
X0318932Y0286574D01*
X0318949Y0286646D01*
X0318971Y0286717D01*
X0318995Y0286788D01*
X0319024Y0286856D01*
X0319056Y0286924D01*
X0319092Y0286989D01*
X0319130Y0287052D01*
X0319173Y0287114D01*
X0319218Y0287173D01*
X0319266Y0287229D01*
X0319317Y0287284D01*
X0319371Y0287335D01*
X0319428Y0287383D01*
X0319487Y0287428D01*
X0319549Y0287471D01*
X0319612Y0287509D01*
X0319677Y0287545D01*
X0319745Y0287577D01*
X0319813Y0287606D01*
X0319884Y0287630D01*
X0319955Y0287652D01*
X0320027Y0287669D01*
X0320101Y0287682D01*
X0320174Y0287692D01*
X0320249Y0287698D01*
X0320323Y0287700D01*
X0321745Y0287700D01*
D11*
X0301000Y0196000D03*
X0281000Y0196000D03*
X0281000Y0166000D03*
X0301000Y0166000D03*
X0336000Y0126000D03*
X0346000Y0126000D03*
X0316000Y0076000D03*
X0316000Y0066000D03*
X0226000Y0126000D03*
X0216000Y0126000D03*
X0186000Y0166000D03*
X0166000Y0166000D03*
X0166000Y0196000D03*
X0186000Y0196000D03*
X0101000Y0126000D03*
X0091000Y0126000D03*
X0061000Y0166000D03*
X0041000Y0166000D03*
X0041000Y0196000D03*
X0061000Y0196000D03*
X0076000Y0076000D03*
X0076000Y0066000D03*
X0201000Y0066000D03*
X0201000Y0076000D03*
D12*
X0201000Y0196000D03*
X0241000Y0196000D03*
X0316000Y0196000D03*
X0356000Y0196000D03*
X0116000Y0196000D03*
X0076000Y0196000D03*
D13*
X0071000Y0126000D03*
X0061000Y0126000D03*
X0051000Y0126000D03*
X0041000Y0126000D03*
X0041000Y0096000D03*
X0051000Y0096000D03*
X0061000Y0096000D03*
X0071000Y0096000D03*
X0166000Y0096000D03*
X0176000Y0096000D03*
X0186000Y0096000D03*
X0196000Y0096000D03*
X0196000Y0126000D03*
X0186000Y0126000D03*
X0176000Y0126000D03*
X0166000Y0126000D03*
X0281000Y0126000D03*
X0291000Y0126000D03*
X0301000Y0126000D03*
X0311000Y0126000D03*
X0311000Y0096000D03*
X0301000Y0096000D03*
X0291000Y0096000D03*
X0281000Y0096000D03*
D14*
X0041100Y0056000D02*
X0035900Y0056000D01*
X0035900Y0066000D02*
X0041100Y0066000D01*
X0041100Y0076000D02*
X0035900Y0076000D01*
X0160900Y0076000D02*
X0166100Y0076000D01*
X0166100Y0066000D02*
X0160900Y0066000D01*
X0160900Y0056000D02*
X0166100Y0056000D01*
X0270900Y0056000D02*
X0276100Y0056000D01*
X0276100Y0066000D02*
X0270900Y0066000D01*
X0270900Y0076000D02*
X0276100Y0076000D01*
D15*
X0245400Y0242100D02*
X0245400Y0249900D01*
X0225700Y0249900D02*
X0225700Y0242100D01*
X0206000Y0242100D02*
X0206000Y0249900D01*
X0186300Y0249900D02*
X0186300Y0242100D01*
X0166600Y0242100D02*
X0166600Y0249900D01*
M02*
