G75*
%MOIN*%
%OFA0B0*%
%FSLAX25Y25*%
%IPPOS*%
%LPD*%
%AMOC8*
5,1,8,0,0,1.08239X$1,22.5*
%
%ADD10C,0.00000*%
%ADD11C,0.00600*%
%ADD12C,0.01200*%
%ADD13C,0.00500*%
%ADD14R,0.02000X0.10000*%
%ADD15R,0.07500X0.03000*%
%ADD16C,0.00400*%
%ADD17R,0.02000X0.01500*%
%ADD18R,0.02500X0.05000*%
%ADD19R,0.01000X0.02000*%
%ADD20C,0.00700*%
D10*
X0001000Y0001000D02*
X0001000Y0315961D01*
X0394701Y0315961D01*
X0394701Y0001000D01*
X0001000Y0001000D01*
D11*
X0024000Y0052500D02*
X0036000Y0052500D01*
X0041000Y0052500D02*
X0050000Y0052500D01*
X0050000Y0056000D01*
X0043000Y0056000D01*
X0050000Y0056000D02*
X0050000Y0076000D01*
X0043000Y0076000D01*
X0045500Y0074000D02*
X0045500Y0065500D01*
X0044000Y0065500D01*
X0043500Y0066000D01*
X0047500Y0066000D01*
X0047000Y0065500D01*
X0045500Y0065500D01*
X0045500Y0064000D01*
X0046000Y0064500D01*
X0046500Y0065000D01*
X0047000Y0065500D01*
X0046500Y0065000D02*
X0044500Y0065000D01*
X0045000Y0064500D01*
X0046000Y0064500D01*
X0045500Y0064000D02*
X0045000Y0064500D01*
X0044500Y0065000D02*
X0044000Y0065500D01*
X0050000Y0076000D02*
X0050000Y0079500D01*
X0041000Y0079500D01*
X0036000Y0079500D02*
X0024000Y0079500D01*
X0024000Y0052500D01*
X0071500Y0064500D02*
X0071500Y0077500D01*
X0071502Y0077587D01*
X0071508Y0077674D01*
X0071517Y0077761D01*
X0071530Y0077847D01*
X0071547Y0077933D01*
X0071568Y0078018D01*
X0071593Y0078101D01*
X0071621Y0078184D01*
X0071652Y0078265D01*
X0071687Y0078345D01*
X0071726Y0078423D01*
X0071768Y0078500D01*
X0071813Y0078575D01*
X0071862Y0078647D01*
X0071913Y0078718D01*
X0071968Y0078786D01*
X0072025Y0078851D01*
X0072086Y0078914D01*
X0072149Y0078975D01*
X0072214Y0079032D01*
X0072282Y0079087D01*
X0072353Y0079138D01*
X0072425Y0079187D01*
X0072500Y0079232D01*
X0072577Y0079274D01*
X0072655Y0079313D01*
X0072735Y0079348D01*
X0072816Y0079379D01*
X0072899Y0079407D01*
X0072982Y0079432D01*
X0073067Y0079453D01*
X0073153Y0079470D01*
X0073239Y0079483D01*
X0073326Y0079492D01*
X0073413Y0079498D01*
X0073500Y0079500D01*
X0078500Y0079500D01*
X0078587Y0079498D01*
X0078674Y0079492D01*
X0078761Y0079483D01*
X0078847Y0079470D01*
X0078933Y0079453D01*
X0079018Y0079432D01*
X0079101Y0079407D01*
X0079184Y0079379D01*
X0079265Y0079348D01*
X0079345Y0079313D01*
X0079423Y0079274D01*
X0079500Y0079232D01*
X0079575Y0079187D01*
X0079647Y0079138D01*
X0079718Y0079087D01*
X0079786Y0079032D01*
X0079851Y0078975D01*
X0079914Y0078914D01*
X0079975Y0078851D01*
X0080032Y0078786D01*
X0080087Y0078718D01*
X0080138Y0078647D01*
X0080187Y0078575D01*
X0080232Y0078500D01*
X0080274Y0078423D01*
X0080313Y0078345D01*
X0080348Y0078265D01*
X0080379Y0078184D01*
X0080407Y0078101D01*
X0080432Y0078018D01*
X0080453Y0077933D01*
X0080470Y0077847D01*
X0080483Y0077761D01*
X0080492Y0077674D01*
X0080498Y0077587D01*
X0080500Y0077500D01*
X0080500Y0064500D01*
X0080498Y0064413D01*
X0080492Y0064326D01*
X0080483Y0064239D01*
X0080470Y0064153D01*
X0080453Y0064067D01*
X0080432Y0063982D01*
X0080407Y0063899D01*
X0080379Y0063816D01*
X0080348Y0063735D01*
X0080313Y0063655D01*
X0080274Y0063577D01*
X0080232Y0063500D01*
X0080187Y0063425D01*
X0080138Y0063353D01*
X0080087Y0063282D01*
X0080032Y0063214D01*
X0079975Y0063149D01*
X0079914Y0063086D01*
X0079851Y0063025D01*
X0079786Y0062968D01*
X0079718Y0062913D01*
X0079647Y0062862D01*
X0079575Y0062813D01*
X0079500Y0062768D01*
X0079423Y0062726D01*
X0079345Y0062687D01*
X0079265Y0062652D01*
X0079184Y0062621D01*
X0079101Y0062593D01*
X0079018Y0062568D01*
X0078933Y0062547D01*
X0078847Y0062530D01*
X0078761Y0062517D01*
X0078674Y0062508D01*
X0078587Y0062502D01*
X0078500Y0062500D01*
X0073500Y0062500D01*
X0073413Y0062502D01*
X0073326Y0062508D01*
X0073239Y0062517D01*
X0073153Y0062530D01*
X0073067Y0062547D01*
X0072982Y0062568D01*
X0072899Y0062593D01*
X0072816Y0062621D01*
X0072735Y0062652D01*
X0072655Y0062687D01*
X0072577Y0062726D01*
X0072500Y0062768D01*
X0072425Y0062813D01*
X0072353Y0062862D01*
X0072282Y0062913D01*
X0072214Y0062968D01*
X0072149Y0063025D01*
X0072086Y0063086D01*
X0072025Y0063149D01*
X0071968Y0063214D01*
X0071913Y0063282D01*
X0071862Y0063353D01*
X0071813Y0063425D01*
X0071768Y0063500D01*
X0071726Y0063577D01*
X0071687Y0063655D01*
X0071652Y0063735D01*
X0071621Y0063816D01*
X0071593Y0063899D01*
X0071568Y0063982D01*
X0071547Y0064067D01*
X0071530Y0064153D01*
X0071517Y0064239D01*
X0071508Y0064326D01*
X0071502Y0064413D01*
X0071500Y0064500D01*
X0076000Y0099500D02*
X0036000Y0099500D01*
X0036000Y0107000D01*
X0036126Y0107002D01*
X0036251Y0107008D01*
X0036376Y0107018D01*
X0036501Y0107032D01*
X0036626Y0107049D01*
X0036750Y0107071D01*
X0036873Y0107096D01*
X0036995Y0107126D01*
X0037116Y0107159D01*
X0037236Y0107196D01*
X0037355Y0107236D01*
X0037472Y0107281D01*
X0037589Y0107329D01*
X0037703Y0107381D01*
X0037816Y0107436D01*
X0037927Y0107495D01*
X0038036Y0107557D01*
X0038143Y0107623D01*
X0038248Y0107692D01*
X0038351Y0107764D01*
X0038452Y0107839D01*
X0038550Y0107918D01*
X0038645Y0108000D01*
X0038738Y0108084D01*
X0038828Y0108172D01*
X0038916Y0108262D01*
X0039000Y0108355D01*
X0039082Y0108450D01*
X0039161Y0108548D01*
X0039236Y0108649D01*
X0039308Y0108752D01*
X0039377Y0108857D01*
X0039443Y0108964D01*
X0039505Y0109073D01*
X0039564Y0109184D01*
X0039619Y0109297D01*
X0039671Y0109411D01*
X0039719Y0109528D01*
X0039764Y0109645D01*
X0039804Y0109764D01*
X0039841Y0109884D01*
X0039874Y0110005D01*
X0039904Y0110127D01*
X0039929Y0110250D01*
X0039951Y0110374D01*
X0039968Y0110499D01*
X0039982Y0110624D01*
X0039992Y0110749D01*
X0039998Y0110874D01*
X0040000Y0111000D01*
X0039998Y0111126D01*
X0039992Y0111251D01*
X0039982Y0111376D01*
X0039968Y0111501D01*
X0039951Y0111626D01*
X0039929Y0111750D01*
X0039904Y0111873D01*
X0039874Y0111995D01*
X0039841Y0112116D01*
X0039804Y0112236D01*
X0039764Y0112355D01*
X0039719Y0112472D01*
X0039671Y0112589D01*
X0039619Y0112703D01*
X0039564Y0112816D01*
X0039505Y0112927D01*
X0039443Y0113036D01*
X0039377Y0113143D01*
X0039308Y0113248D01*
X0039236Y0113351D01*
X0039161Y0113452D01*
X0039082Y0113550D01*
X0039000Y0113645D01*
X0038916Y0113738D01*
X0038828Y0113828D01*
X0038738Y0113916D01*
X0038645Y0114000D01*
X0038550Y0114082D01*
X0038452Y0114161D01*
X0038351Y0114236D01*
X0038248Y0114308D01*
X0038143Y0114377D01*
X0038036Y0114443D01*
X0037927Y0114505D01*
X0037816Y0114564D01*
X0037703Y0114619D01*
X0037589Y0114671D01*
X0037472Y0114719D01*
X0037355Y0114764D01*
X0037236Y0114804D01*
X0037116Y0114841D01*
X0036995Y0114874D01*
X0036873Y0114904D01*
X0036750Y0114929D01*
X0036626Y0114951D01*
X0036501Y0114968D01*
X0036376Y0114982D01*
X0036251Y0114992D01*
X0036126Y0114998D01*
X0036000Y0115000D01*
X0036000Y0122500D01*
X0076000Y0122500D01*
X0076000Y0099500D01*
X0089500Y0121500D02*
X0102500Y0121500D01*
X0102587Y0121502D01*
X0102674Y0121508D01*
X0102761Y0121517D01*
X0102847Y0121530D01*
X0102933Y0121547D01*
X0103018Y0121568D01*
X0103101Y0121593D01*
X0103184Y0121621D01*
X0103265Y0121652D01*
X0103345Y0121687D01*
X0103423Y0121726D01*
X0103500Y0121768D01*
X0103575Y0121813D01*
X0103647Y0121862D01*
X0103718Y0121913D01*
X0103786Y0121968D01*
X0103851Y0122025D01*
X0103914Y0122086D01*
X0103975Y0122149D01*
X0104032Y0122214D01*
X0104087Y0122282D01*
X0104138Y0122353D01*
X0104187Y0122425D01*
X0104232Y0122500D01*
X0104274Y0122577D01*
X0104313Y0122655D01*
X0104348Y0122735D01*
X0104379Y0122816D01*
X0104407Y0122899D01*
X0104432Y0122982D01*
X0104453Y0123067D01*
X0104470Y0123153D01*
X0104483Y0123239D01*
X0104492Y0123326D01*
X0104498Y0123413D01*
X0104500Y0123500D01*
X0104500Y0128500D01*
X0104498Y0128587D01*
X0104492Y0128674D01*
X0104483Y0128761D01*
X0104470Y0128847D01*
X0104453Y0128933D01*
X0104432Y0129018D01*
X0104407Y0129101D01*
X0104379Y0129184D01*
X0104348Y0129265D01*
X0104313Y0129345D01*
X0104274Y0129423D01*
X0104232Y0129500D01*
X0104187Y0129575D01*
X0104138Y0129647D01*
X0104087Y0129718D01*
X0104032Y0129786D01*
X0103975Y0129851D01*
X0103914Y0129914D01*
X0103851Y0129975D01*
X0103786Y0130032D01*
X0103718Y0130087D01*
X0103647Y0130138D01*
X0103575Y0130187D01*
X0103500Y0130232D01*
X0103423Y0130274D01*
X0103345Y0130313D01*
X0103265Y0130348D01*
X0103184Y0130379D01*
X0103101Y0130407D01*
X0103018Y0130432D01*
X0102933Y0130453D01*
X0102847Y0130470D01*
X0102761Y0130483D01*
X0102674Y0130492D01*
X0102587Y0130498D01*
X0102500Y0130500D01*
X0089500Y0130500D01*
X0089413Y0130498D01*
X0089326Y0130492D01*
X0089239Y0130483D01*
X0089153Y0130470D01*
X0089067Y0130453D01*
X0088982Y0130432D01*
X0088899Y0130407D01*
X0088816Y0130379D01*
X0088735Y0130348D01*
X0088655Y0130313D01*
X0088577Y0130274D01*
X0088500Y0130232D01*
X0088425Y0130187D01*
X0088353Y0130138D01*
X0088282Y0130087D01*
X0088214Y0130032D01*
X0088149Y0129975D01*
X0088086Y0129914D01*
X0088025Y0129851D01*
X0087968Y0129786D01*
X0087913Y0129718D01*
X0087862Y0129647D01*
X0087813Y0129575D01*
X0087768Y0129500D01*
X0087726Y0129423D01*
X0087687Y0129345D01*
X0087652Y0129265D01*
X0087621Y0129184D01*
X0087593Y0129101D01*
X0087568Y0129018D01*
X0087547Y0128933D01*
X0087530Y0128847D01*
X0087517Y0128761D01*
X0087508Y0128674D01*
X0087502Y0128587D01*
X0087500Y0128500D01*
X0087500Y0123500D01*
X0087502Y0123413D01*
X0087508Y0123326D01*
X0087517Y0123239D01*
X0087530Y0123153D01*
X0087547Y0123067D01*
X0087568Y0122982D01*
X0087593Y0122899D01*
X0087621Y0122816D01*
X0087652Y0122735D01*
X0087687Y0122655D01*
X0087726Y0122577D01*
X0087768Y0122500D01*
X0087813Y0122425D01*
X0087862Y0122353D01*
X0087913Y0122282D01*
X0087968Y0122214D01*
X0088025Y0122149D01*
X0088086Y0122086D01*
X0088149Y0122025D01*
X0088214Y0121968D01*
X0088282Y0121913D01*
X0088353Y0121862D01*
X0088425Y0121813D01*
X0088500Y0121768D01*
X0088577Y0121726D01*
X0088655Y0121687D01*
X0088735Y0121652D01*
X0088816Y0121621D01*
X0088899Y0121593D01*
X0088982Y0121568D01*
X0089067Y0121547D01*
X0089153Y0121530D01*
X0089239Y0121517D01*
X0089326Y0121508D01*
X0089413Y0121502D01*
X0089500Y0121500D01*
X0064000Y0171000D02*
X0058000Y0171000D01*
X0057940Y0171002D01*
X0057879Y0171007D01*
X0057820Y0171016D01*
X0057761Y0171029D01*
X0057702Y0171045D01*
X0057645Y0171065D01*
X0057590Y0171088D01*
X0057535Y0171115D01*
X0057483Y0171144D01*
X0057432Y0171177D01*
X0057383Y0171213D01*
X0057337Y0171251D01*
X0057293Y0171293D01*
X0057251Y0171337D01*
X0057213Y0171383D01*
X0057177Y0171432D01*
X0057144Y0171483D01*
X0057115Y0171535D01*
X0057088Y0171590D01*
X0057065Y0171645D01*
X0057045Y0171702D01*
X0057029Y0171761D01*
X0057016Y0171820D01*
X0057007Y0171879D01*
X0057002Y0171940D01*
X0057000Y0172000D01*
X0057000Y0173500D01*
X0057500Y0174000D01*
X0057500Y0188000D01*
X0057000Y0188500D01*
X0057000Y0190000D01*
X0057002Y0190060D01*
X0057007Y0190121D01*
X0057016Y0190180D01*
X0057029Y0190239D01*
X0057045Y0190298D01*
X0057065Y0190355D01*
X0057088Y0190410D01*
X0057115Y0190465D01*
X0057144Y0190517D01*
X0057177Y0190568D01*
X0057213Y0190617D01*
X0057251Y0190663D01*
X0057293Y0190707D01*
X0057337Y0190749D01*
X0057383Y0190787D01*
X0057432Y0190823D01*
X0057483Y0190856D01*
X0057535Y0190885D01*
X0057590Y0190912D01*
X0057645Y0190935D01*
X0057702Y0190955D01*
X0057761Y0190971D01*
X0057820Y0190984D01*
X0057879Y0190993D01*
X0057940Y0190998D01*
X0058000Y0191000D01*
X0064000Y0191000D01*
X0064060Y0190998D01*
X0064121Y0190993D01*
X0064180Y0190984D01*
X0064239Y0190971D01*
X0064298Y0190955D01*
X0064355Y0190935D01*
X0064410Y0190912D01*
X0064465Y0190885D01*
X0064517Y0190856D01*
X0064568Y0190823D01*
X0064617Y0190787D01*
X0064663Y0190749D01*
X0064707Y0190707D01*
X0064749Y0190663D01*
X0064787Y0190617D01*
X0064823Y0190568D01*
X0064856Y0190517D01*
X0064885Y0190465D01*
X0064912Y0190410D01*
X0064935Y0190355D01*
X0064955Y0190298D01*
X0064971Y0190239D01*
X0064984Y0190180D01*
X0064993Y0190121D01*
X0064998Y0190060D01*
X0065000Y0190000D01*
X0065000Y0188500D01*
X0064500Y0188000D01*
X0064500Y0174000D01*
X0065000Y0173500D01*
X0065000Y0172000D01*
X0064998Y0171940D01*
X0064993Y0171879D01*
X0064984Y0171820D01*
X0064971Y0171761D01*
X0064955Y0171702D01*
X0064935Y0171645D01*
X0064912Y0171590D01*
X0064885Y0171535D01*
X0064856Y0171483D01*
X0064823Y0171432D01*
X0064787Y0171383D01*
X0064749Y0171337D01*
X0064707Y0171293D01*
X0064663Y0171251D01*
X0064617Y0171213D01*
X0064568Y0171177D01*
X0064517Y0171144D01*
X0064465Y0171115D01*
X0064410Y0171088D01*
X0064355Y0171065D01*
X0064298Y0171045D01*
X0064239Y0171029D01*
X0064180Y0171016D01*
X0064121Y0171007D01*
X0064060Y0171002D01*
X0064000Y0171000D01*
X0045000Y0172000D02*
X0045000Y0173500D01*
X0044500Y0174000D01*
X0044500Y0188000D01*
X0045000Y0188500D01*
X0045000Y0190000D01*
X0044998Y0190060D01*
X0044993Y0190121D01*
X0044984Y0190180D01*
X0044971Y0190239D01*
X0044955Y0190298D01*
X0044935Y0190355D01*
X0044912Y0190410D01*
X0044885Y0190465D01*
X0044856Y0190517D01*
X0044823Y0190568D01*
X0044787Y0190617D01*
X0044749Y0190663D01*
X0044707Y0190707D01*
X0044663Y0190749D01*
X0044617Y0190787D01*
X0044568Y0190823D01*
X0044517Y0190856D01*
X0044465Y0190885D01*
X0044410Y0190912D01*
X0044355Y0190935D01*
X0044298Y0190955D01*
X0044239Y0190971D01*
X0044180Y0190984D01*
X0044121Y0190993D01*
X0044060Y0190998D01*
X0044000Y0191000D01*
X0038000Y0191000D01*
X0037940Y0190998D01*
X0037879Y0190993D01*
X0037820Y0190984D01*
X0037761Y0190971D01*
X0037702Y0190955D01*
X0037645Y0190935D01*
X0037590Y0190912D01*
X0037535Y0190885D01*
X0037483Y0190856D01*
X0037432Y0190823D01*
X0037383Y0190787D01*
X0037337Y0190749D01*
X0037293Y0190707D01*
X0037251Y0190663D01*
X0037213Y0190617D01*
X0037177Y0190568D01*
X0037144Y0190517D01*
X0037115Y0190465D01*
X0037088Y0190410D01*
X0037065Y0190355D01*
X0037045Y0190298D01*
X0037029Y0190239D01*
X0037016Y0190180D01*
X0037007Y0190121D01*
X0037002Y0190060D01*
X0037000Y0190000D01*
X0037000Y0188500D01*
X0037500Y0188000D01*
X0037500Y0174000D01*
X0037000Y0173500D01*
X0037000Y0172000D01*
X0037002Y0171940D01*
X0037007Y0171879D01*
X0037016Y0171820D01*
X0037029Y0171761D01*
X0037045Y0171702D01*
X0037065Y0171645D01*
X0037088Y0171590D01*
X0037115Y0171535D01*
X0037144Y0171483D01*
X0037177Y0171432D01*
X0037213Y0171383D01*
X0037251Y0171337D01*
X0037293Y0171293D01*
X0037337Y0171251D01*
X0037383Y0171213D01*
X0037432Y0171177D01*
X0037483Y0171144D01*
X0037535Y0171115D01*
X0037590Y0171088D01*
X0037645Y0171065D01*
X0037702Y0171045D01*
X0037761Y0171029D01*
X0037820Y0171016D01*
X0037879Y0171007D01*
X0037940Y0171002D01*
X0038000Y0171000D01*
X0044000Y0171000D01*
X0044060Y0171002D01*
X0044121Y0171007D01*
X0044180Y0171016D01*
X0044239Y0171029D01*
X0044298Y0171045D01*
X0044355Y0171065D01*
X0044410Y0171088D01*
X0044465Y0171115D01*
X0044517Y0171144D01*
X0044568Y0171177D01*
X0044617Y0171213D01*
X0044663Y0171251D01*
X0044707Y0171293D01*
X0044749Y0171337D01*
X0044787Y0171383D01*
X0044823Y0171432D01*
X0044856Y0171483D01*
X0044885Y0171535D01*
X0044912Y0171590D01*
X0044935Y0171645D01*
X0044955Y0171702D01*
X0044971Y0171761D01*
X0044984Y0171820D01*
X0044993Y0171879D01*
X0044998Y0171940D01*
X0045000Y0172000D01*
X0088000Y0191000D02*
X0104000Y0191000D01*
X0104000Y0201000D01*
X0088000Y0201000D01*
X0088000Y0191000D01*
X0092000Y0193500D02*
X0096000Y0196000D01*
X0096000Y0198500D01*
X0096000Y0196000D02*
X0096000Y0193500D01*
X0096000Y0196000D02*
X0090000Y0196000D01*
X0092000Y0198500D02*
X0096000Y0196000D01*
X0098500Y0196000D01*
X0092000Y0193500D02*
X0092000Y0198500D01*
X0156600Y0221500D02*
X0156600Y0248500D01*
X0160100Y0248500D01*
X0160100Y0247000D02*
X0158600Y0247000D01*
X0158600Y0229000D01*
X0158600Y0221500D01*
X0174600Y0221500D01*
X0178300Y0221500D01*
X0194300Y0221500D01*
X0196200Y0221500D01*
X0198000Y0221500D01*
X0198000Y0229000D01*
X0214000Y0229000D01*
X0214000Y0247000D01*
X0212500Y0247000D01*
X0212500Y0248500D02*
X0219200Y0248500D01*
X0219200Y0247000D02*
X0217700Y0247000D01*
X0217700Y0229000D01*
X0233700Y0229000D01*
X0233700Y0221500D01*
X0237400Y0221500D01*
X0253400Y0221500D01*
X0253400Y0229000D01*
X0237400Y0229000D01*
X0237400Y0247000D01*
X0239000Y0247000D01*
X0238900Y0248500D02*
X0232300Y0248500D01*
X0232200Y0247000D02*
X0233700Y0247000D01*
X0233700Y0229000D01*
X0232200Y0231500D02*
X0219200Y0231500D01*
X0219200Y0244000D01*
X0212500Y0244000D02*
X0212500Y0231500D01*
X0199500Y0231500D01*
X0199500Y0244000D01*
X0199500Y0247000D02*
X0198000Y0247000D01*
X0198000Y0229000D01*
X0194300Y0229000D02*
X0194300Y0221500D01*
X0196200Y0221500D02*
X0196200Y0248500D01*
X0199500Y0248500D01*
X0196200Y0248500D02*
X0196200Y0258500D01*
X0255400Y0258500D01*
X0255400Y0252500D01*
X0255400Y0248500D01*
X0251900Y0248500D01*
X0251900Y0247000D02*
X0253400Y0247000D01*
X0253400Y0229000D01*
X0255400Y0230000D02*
X0255400Y0248500D01*
X0257400Y0251500D02*
X0255400Y0252500D01*
X0257400Y0251500D02*
X0257400Y0270500D01*
X0255400Y0270500D01*
X0255400Y0258500D01*
X0253400Y0259500D02*
X0237400Y0259500D01*
X0237400Y0269500D01*
X0253400Y0269500D01*
X0253400Y0259500D01*
X0251180Y0262083D02*
X0251255Y0262152D01*
X0251327Y0262223D01*
X0251396Y0262297D01*
X0251462Y0262373D01*
X0251526Y0262452D01*
X0251586Y0262533D01*
X0251644Y0262616D01*
X0251698Y0262702D01*
X0251749Y0262789D01*
X0251797Y0262878D01*
X0251841Y0262970D01*
X0251882Y0263062D01*
X0251919Y0263156D01*
X0251953Y0263252D01*
X0251983Y0263348D01*
X0252009Y0263446D01*
X0252032Y0263545D01*
X0252051Y0263644D01*
X0252066Y0263744D01*
X0252078Y0263845D01*
X0252086Y0263946D01*
X0252089Y0264047D01*
X0252090Y0264148D01*
X0252086Y0264249D01*
X0252078Y0264350D01*
X0252067Y0264451D01*
X0252052Y0264551D01*
X0252033Y0264650D01*
X0252011Y0264749D01*
X0251984Y0264847D01*
X0251954Y0264944D01*
X0251921Y0265039D01*
X0251884Y0265133D01*
X0251843Y0265226D01*
X0251799Y0265317D01*
X0251751Y0265406D01*
X0251701Y0265494D01*
X0251647Y0265580D01*
X0251589Y0265663D01*
X0251529Y0265744D01*
X0251466Y0265823D01*
X0251399Y0265900D01*
X0251000Y0266000D02*
X0239000Y0263500D01*
X0239500Y0263000D02*
X0251500Y0265500D01*
X0255400Y0270500D02*
X0196200Y0270500D01*
X0196200Y0258500D01*
X0156600Y0258500D01*
X0156600Y0270500D01*
X0196200Y0270500D01*
X0198000Y0269500D02*
X0214000Y0269500D01*
X0214000Y0259500D01*
X0198000Y0259500D01*
X0198000Y0269500D01*
X0194300Y0269500D02*
X0194300Y0259500D01*
X0178300Y0259500D01*
X0178300Y0269500D01*
X0194300Y0269500D01*
X0191900Y0266000D02*
X0179900Y0263500D01*
X0180400Y0263000D02*
X0192400Y0265500D01*
X0192299Y0265900D02*
X0192366Y0265823D01*
X0192429Y0265744D01*
X0192489Y0265663D01*
X0192547Y0265580D01*
X0192601Y0265494D01*
X0192651Y0265406D01*
X0192699Y0265317D01*
X0192743Y0265226D01*
X0192784Y0265133D01*
X0192821Y0265039D01*
X0192854Y0264944D01*
X0192884Y0264847D01*
X0192911Y0264749D01*
X0192933Y0264650D01*
X0192952Y0264551D01*
X0192967Y0264451D01*
X0192978Y0264350D01*
X0192986Y0264249D01*
X0192990Y0264148D01*
X0192989Y0264047D01*
X0192986Y0263946D01*
X0192978Y0263845D01*
X0192966Y0263744D01*
X0192951Y0263644D01*
X0192932Y0263545D01*
X0192909Y0263446D01*
X0192883Y0263348D01*
X0192853Y0263252D01*
X0192819Y0263156D01*
X0192782Y0263062D01*
X0192741Y0262970D01*
X0192697Y0262878D01*
X0192649Y0262789D01*
X0192598Y0262702D01*
X0192544Y0262616D01*
X0192486Y0262533D01*
X0192426Y0262452D01*
X0192362Y0262373D01*
X0192296Y0262297D01*
X0192227Y0262223D01*
X0192155Y0262152D01*
X0192080Y0262083D01*
X0192319Y0265917D02*
X0192188Y0266063D01*
X0192054Y0266207D01*
X0191916Y0266347D01*
X0191775Y0266484D01*
X0191631Y0266618D01*
X0191483Y0266748D01*
X0191333Y0266874D01*
X0191179Y0266996D01*
X0191023Y0267115D01*
X0190863Y0267230D01*
X0190701Y0267341D01*
X0190536Y0267449D01*
X0190369Y0267552D01*
X0190199Y0267651D01*
X0190027Y0267746D01*
X0189853Y0267836D01*
X0189676Y0267923D01*
X0189498Y0268005D01*
X0189317Y0268083D01*
X0189135Y0268156D01*
X0188951Y0268225D01*
X0188765Y0268289D01*
X0188578Y0268349D01*
X0188390Y0268405D01*
X0188200Y0268455D01*
X0188009Y0268502D01*
X0187817Y0268543D01*
X0187624Y0268580D01*
X0187430Y0268612D01*
X0187235Y0268640D01*
X0187040Y0268662D01*
X0186844Y0268680D01*
X0186648Y0268694D01*
X0186452Y0268702D01*
X0186255Y0268706D01*
X0186059Y0268705D01*
X0185862Y0268699D01*
X0185666Y0268688D01*
X0185470Y0268673D01*
X0185275Y0268653D01*
X0185080Y0268628D01*
X0184885Y0268599D01*
X0184692Y0268564D01*
X0184499Y0268526D01*
X0184307Y0268482D01*
X0184117Y0268434D01*
X0183928Y0268381D01*
X0183740Y0268324D01*
X0183553Y0268262D01*
X0183368Y0268195D01*
X0183185Y0268124D01*
X0183003Y0268049D01*
X0182824Y0267969D01*
X0182646Y0267885D01*
X0182470Y0267797D01*
X0182297Y0267705D01*
X0182126Y0267608D01*
X0181957Y0267507D01*
X0181791Y0267402D01*
X0181627Y0267293D01*
X0181466Y0267180D01*
X0181308Y0267064D01*
X0181153Y0266943D01*
X0181001Y0266819D01*
X0180852Y0266691D01*
X0180705Y0266560D01*
X0180563Y0266425D01*
X0180423Y0266286D01*
X0180287Y0266145D01*
X0180154Y0266000D01*
X0180025Y0265851D01*
X0179900Y0265700D01*
X0180100Y0265900D02*
X0180035Y0265828D01*
X0179974Y0265754D01*
X0179915Y0265677D01*
X0179860Y0265598D01*
X0179808Y0265517D01*
X0179759Y0265433D01*
X0179714Y0265348D01*
X0179672Y0265261D01*
X0179634Y0265172D01*
X0179600Y0265082D01*
X0179570Y0264990D01*
X0179543Y0264898D01*
X0179520Y0264804D01*
X0179501Y0264709D01*
X0179486Y0264614D01*
X0179475Y0264518D01*
X0179468Y0264422D01*
X0179465Y0264325D01*
X0179466Y0264229D01*
X0179471Y0264132D01*
X0179480Y0264036D01*
X0179493Y0263941D01*
X0179509Y0263845D01*
X0179530Y0263751D01*
X0179555Y0263658D01*
X0179583Y0263566D01*
X0179615Y0263475D01*
X0179651Y0263385D01*
X0179691Y0263297D01*
X0179734Y0263211D01*
X0179781Y0263126D01*
X0179831Y0263044D01*
X0179885Y0262964D01*
X0179941Y0262886D01*
X0180001Y0262810D01*
X0180064Y0262737D01*
X0180130Y0262667D01*
X0180199Y0262599D01*
X0180271Y0262534D01*
X0180345Y0262473D01*
X0180422Y0262414D01*
X0180501Y0262359D01*
X0180582Y0262307D01*
X0180666Y0262258D01*
X0174600Y0259500D02*
X0158600Y0259500D01*
X0158600Y0269500D01*
X0174600Y0269500D01*
X0174600Y0259500D01*
X0172380Y0262083D02*
X0172455Y0262152D01*
X0172527Y0262223D01*
X0172596Y0262297D01*
X0172662Y0262373D01*
X0172726Y0262452D01*
X0172786Y0262533D01*
X0172844Y0262616D01*
X0172898Y0262702D01*
X0172949Y0262789D01*
X0172997Y0262878D01*
X0173041Y0262970D01*
X0173082Y0263062D01*
X0173119Y0263156D01*
X0173153Y0263252D01*
X0173183Y0263348D01*
X0173209Y0263446D01*
X0173232Y0263545D01*
X0173251Y0263644D01*
X0173266Y0263744D01*
X0173278Y0263845D01*
X0173286Y0263946D01*
X0173289Y0264047D01*
X0173290Y0264148D01*
X0173286Y0264249D01*
X0173278Y0264350D01*
X0173267Y0264451D01*
X0173252Y0264551D01*
X0173233Y0264650D01*
X0173211Y0264749D01*
X0173184Y0264847D01*
X0173154Y0264944D01*
X0173121Y0265039D01*
X0173084Y0265133D01*
X0173043Y0265226D01*
X0172999Y0265317D01*
X0172951Y0265406D01*
X0172901Y0265494D01*
X0172847Y0265580D01*
X0172789Y0265663D01*
X0172729Y0265744D01*
X0172666Y0265823D01*
X0172599Y0265900D01*
X0172200Y0266000D02*
X0160200Y0263500D01*
X0160700Y0263000D02*
X0172700Y0265500D01*
X0172619Y0265917D02*
X0172488Y0266063D01*
X0172354Y0266207D01*
X0172216Y0266347D01*
X0172075Y0266484D01*
X0171931Y0266618D01*
X0171783Y0266748D01*
X0171633Y0266874D01*
X0171479Y0266996D01*
X0171323Y0267115D01*
X0171163Y0267230D01*
X0171001Y0267341D01*
X0170836Y0267449D01*
X0170669Y0267552D01*
X0170499Y0267651D01*
X0170327Y0267746D01*
X0170153Y0267836D01*
X0169976Y0267923D01*
X0169798Y0268005D01*
X0169617Y0268083D01*
X0169435Y0268156D01*
X0169251Y0268225D01*
X0169065Y0268289D01*
X0168878Y0268349D01*
X0168690Y0268405D01*
X0168500Y0268455D01*
X0168309Y0268502D01*
X0168117Y0268543D01*
X0167924Y0268580D01*
X0167730Y0268612D01*
X0167535Y0268640D01*
X0167340Y0268662D01*
X0167144Y0268680D01*
X0166948Y0268694D01*
X0166752Y0268702D01*
X0166555Y0268706D01*
X0166359Y0268705D01*
X0166162Y0268699D01*
X0165966Y0268688D01*
X0165770Y0268673D01*
X0165575Y0268653D01*
X0165380Y0268628D01*
X0165185Y0268599D01*
X0164992Y0268564D01*
X0164799Y0268526D01*
X0164607Y0268482D01*
X0164417Y0268434D01*
X0164228Y0268381D01*
X0164040Y0268324D01*
X0163853Y0268262D01*
X0163668Y0268195D01*
X0163485Y0268124D01*
X0163303Y0268049D01*
X0163124Y0267969D01*
X0162946Y0267885D01*
X0162770Y0267797D01*
X0162597Y0267705D01*
X0162426Y0267608D01*
X0162257Y0267507D01*
X0162091Y0267402D01*
X0161927Y0267293D01*
X0161766Y0267180D01*
X0161608Y0267064D01*
X0161453Y0266943D01*
X0161301Y0266819D01*
X0161152Y0266691D01*
X0161005Y0266560D01*
X0160863Y0266425D01*
X0160723Y0266286D01*
X0160587Y0266145D01*
X0160454Y0266000D01*
X0160325Y0265851D01*
X0160200Y0265700D01*
X0160400Y0265900D02*
X0160335Y0265828D01*
X0160274Y0265754D01*
X0160215Y0265677D01*
X0160160Y0265598D01*
X0160108Y0265517D01*
X0160059Y0265433D01*
X0160014Y0265348D01*
X0159972Y0265261D01*
X0159934Y0265172D01*
X0159900Y0265082D01*
X0159870Y0264990D01*
X0159843Y0264898D01*
X0159820Y0264804D01*
X0159801Y0264709D01*
X0159786Y0264614D01*
X0159775Y0264518D01*
X0159768Y0264422D01*
X0159765Y0264325D01*
X0159766Y0264229D01*
X0159771Y0264132D01*
X0159780Y0264036D01*
X0159793Y0263941D01*
X0159809Y0263845D01*
X0159830Y0263751D01*
X0159855Y0263658D01*
X0159883Y0263566D01*
X0159915Y0263475D01*
X0159951Y0263385D01*
X0159991Y0263297D01*
X0160034Y0263211D01*
X0160081Y0263126D01*
X0160131Y0263044D01*
X0160185Y0262964D01*
X0160241Y0262886D01*
X0160301Y0262810D01*
X0160364Y0262737D01*
X0160430Y0262667D01*
X0160499Y0262599D01*
X0160571Y0262534D01*
X0160645Y0262473D01*
X0160722Y0262414D01*
X0160801Y0262359D01*
X0160882Y0262307D01*
X0160966Y0262258D01*
X0156600Y0258500D02*
X0156600Y0248500D01*
X0160100Y0244000D02*
X0160100Y0231500D01*
X0173100Y0231500D01*
X0173100Y0244000D01*
X0173100Y0247000D02*
X0174600Y0247000D01*
X0174600Y0229000D01*
X0158600Y0229000D01*
X0158600Y0221500D02*
X0156600Y0221500D01*
X0174600Y0221500D02*
X0174600Y0229000D01*
X0178300Y0229000D02*
X0178300Y0247000D01*
X0179800Y0247000D01*
X0179800Y0248500D02*
X0173100Y0248500D01*
X0179800Y0244000D02*
X0179800Y0231500D01*
X0192800Y0231500D01*
X0192800Y0244000D01*
X0192800Y0247000D02*
X0194300Y0247000D01*
X0194300Y0229000D01*
X0178300Y0229000D01*
X0178300Y0221500D01*
X0198000Y0221500D02*
X0214000Y0221500D01*
X0217700Y0221500D01*
X0233700Y0221500D01*
X0237400Y0221500D02*
X0237400Y0229000D01*
X0238900Y0231500D02*
X0238900Y0244000D01*
X0232200Y0244000D02*
X0232200Y0231500D01*
X0238900Y0231500D02*
X0251900Y0231500D01*
X0251900Y0244000D01*
X0257400Y0231000D02*
X0255400Y0230000D01*
X0255400Y0225500D01*
X0255400Y0221500D01*
X0253400Y0221500D01*
X0255400Y0225500D02*
X0257400Y0224500D01*
X0257400Y0231000D01*
X0233700Y0259500D02*
X0217700Y0259500D01*
X0217700Y0269500D01*
X0233700Y0269500D01*
X0233700Y0259500D01*
X0231480Y0262083D02*
X0231555Y0262152D01*
X0231627Y0262223D01*
X0231696Y0262297D01*
X0231762Y0262373D01*
X0231826Y0262452D01*
X0231886Y0262533D01*
X0231944Y0262616D01*
X0231998Y0262702D01*
X0232049Y0262789D01*
X0232097Y0262878D01*
X0232141Y0262970D01*
X0232182Y0263062D01*
X0232219Y0263156D01*
X0232253Y0263252D01*
X0232283Y0263348D01*
X0232309Y0263446D01*
X0232332Y0263545D01*
X0232351Y0263644D01*
X0232366Y0263744D01*
X0232378Y0263845D01*
X0232386Y0263946D01*
X0232389Y0264047D01*
X0232390Y0264148D01*
X0232386Y0264249D01*
X0232378Y0264350D01*
X0232367Y0264451D01*
X0232352Y0264551D01*
X0232333Y0264650D01*
X0232311Y0264749D01*
X0232284Y0264847D01*
X0232254Y0264944D01*
X0232221Y0265039D01*
X0232184Y0265133D01*
X0232143Y0265226D01*
X0232099Y0265317D01*
X0232051Y0265406D01*
X0232001Y0265494D01*
X0231947Y0265580D01*
X0231889Y0265663D01*
X0231829Y0265744D01*
X0231766Y0265823D01*
X0231699Y0265900D01*
X0231300Y0266000D02*
X0219300Y0263500D01*
X0219800Y0263000D02*
X0231800Y0265500D01*
X0231718Y0265916D02*
X0231588Y0266062D01*
X0231454Y0266206D01*
X0231316Y0266346D01*
X0231175Y0266483D01*
X0231031Y0266617D01*
X0230883Y0266746D01*
X0230733Y0266873D01*
X0230579Y0266995D01*
X0230423Y0267114D01*
X0230263Y0267229D01*
X0230101Y0267340D01*
X0229936Y0267447D01*
X0229769Y0267551D01*
X0229599Y0267650D01*
X0229427Y0267744D01*
X0229253Y0267835D01*
X0229076Y0267922D01*
X0228898Y0268004D01*
X0228717Y0268081D01*
X0228535Y0268155D01*
X0228351Y0268224D01*
X0228166Y0268288D01*
X0227978Y0268348D01*
X0227790Y0268404D01*
X0227600Y0268454D01*
X0227409Y0268501D01*
X0227217Y0268542D01*
X0227024Y0268579D01*
X0226830Y0268611D01*
X0226635Y0268639D01*
X0226440Y0268661D01*
X0226245Y0268679D01*
X0226049Y0268693D01*
X0225852Y0268701D01*
X0225656Y0268705D01*
X0225459Y0268704D01*
X0225263Y0268698D01*
X0225067Y0268687D01*
X0224871Y0268672D01*
X0224675Y0268652D01*
X0224480Y0268627D01*
X0224286Y0268598D01*
X0224092Y0268564D01*
X0223900Y0268525D01*
X0223708Y0268481D01*
X0223518Y0268433D01*
X0223328Y0268380D01*
X0223140Y0268323D01*
X0222954Y0268261D01*
X0222769Y0268194D01*
X0222586Y0268124D01*
X0222404Y0268048D01*
X0222225Y0267969D01*
X0222047Y0267885D01*
X0221871Y0267796D01*
X0221698Y0267704D01*
X0221527Y0267607D01*
X0221358Y0267506D01*
X0221192Y0267401D01*
X0221028Y0267293D01*
X0220867Y0267180D01*
X0220709Y0267063D01*
X0220554Y0266943D01*
X0220402Y0266818D01*
X0220253Y0266691D01*
X0220106Y0266559D01*
X0219964Y0266424D01*
X0219824Y0266286D01*
X0219688Y0266144D01*
X0219555Y0265999D01*
X0219426Y0265851D01*
X0219301Y0265700D01*
X0219500Y0265900D02*
X0219435Y0265828D01*
X0219374Y0265754D01*
X0219315Y0265677D01*
X0219260Y0265598D01*
X0219208Y0265517D01*
X0219159Y0265433D01*
X0219114Y0265348D01*
X0219072Y0265261D01*
X0219034Y0265172D01*
X0219000Y0265082D01*
X0218970Y0264990D01*
X0218943Y0264898D01*
X0218920Y0264804D01*
X0218901Y0264709D01*
X0218886Y0264614D01*
X0218875Y0264518D01*
X0218868Y0264422D01*
X0218865Y0264325D01*
X0218866Y0264229D01*
X0218871Y0264132D01*
X0218880Y0264036D01*
X0218893Y0263941D01*
X0218909Y0263845D01*
X0218930Y0263751D01*
X0218955Y0263658D01*
X0218983Y0263566D01*
X0219015Y0263475D01*
X0219051Y0263385D01*
X0219091Y0263297D01*
X0219134Y0263211D01*
X0219181Y0263126D01*
X0219231Y0263044D01*
X0219285Y0262964D01*
X0219341Y0262886D01*
X0219401Y0262810D01*
X0219464Y0262737D01*
X0219530Y0262667D01*
X0219599Y0262599D01*
X0219671Y0262534D01*
X0219745Y0262473D01*
X0219822Y0262414D01*
X0219901Y0262359D01*
X0219982Y0262307D01*
X0220066Y0262258D01*
X0212200Y0265500D02*
X0200200Y0263000D01*
X0199700Y0263500D02*
X0211700Y0266000D01*
X0212099Y0265900D02*
X0212166Y0265823D01*
X0212229Y0265744D01*
X0212289Y0265663D01*
X0212347Y0265580D01*
X0212401Y0265494D01*
X0212451Y0265406D01*
X0212499Y0265317D01*
X0212543Y0265226D01*
X0212584Y0265133D01*
X0212621Y0265039D01*
X0212654Y0264944D01*
X0212684Y0264847D01*
X0212711Y0264749D01*
X0212733Y0264650D01*
X0212752Y0264551D01*
X0212767Y0264451D01*
X0212778Y0264350D01*
X0212786Y0264249D01*
X0212790Y0264148D01*
X0212789Y0264047D01*
X0212786Y0263946D01*
X0212778Y0263845D01*
X0212766Y0263744D01*
X0212751Y0263644D01*
X0212732Y0263545D01*
X0212709Y0263446D01*
X0212683Y0263348D01*
X0212653Y0263252D01*
X0212619Y0263156D01*
X0212582Y0263062D01*
X0212541Y0262970D01*
X0212497Y0262878D01*
X0212449Y0262789D01*
X0212398Y0262702D01*
X0212344Y0262616D01*
X0212286Y0262533D01*
X0212226Y0262452D01*
X0212162Y0262373D01*
X0212096Y0262297D01*
X0212027Y0262223D01*
X0211955Y0262152D01*
X0211880Y0262083D01*
X0212118Y0265916D02*
X0211988Y0266063D01*
X0211853Y0266206D01*
X0211716Y0266346D01*
X0211575Y0266483D01*
X0211430Y0266617D01*
X0211283Y0266747D01*
X0211132Y0266873D01*
X0210979Y0266995D01*
X0210822Y0267114D01*
X0210663Y0267229D01*
X0210501Y0267340D01*
X0210336Y0267448D01*
X0210169Y0267551D01*
X0209999Y0267650D01*
X0209827Y0267745D01*
X0209653Y0267835D01*
X0209476Y0267922D01*
X0209298Y0268004D01*
X0209117Y0268082D01*
X0208935Y0268155D01*
X0208751Y0268224D01*
X0208565Y0268288D01*
X0208378Y0268348D01*
X0208190Y0268404D01*
X0208000Y0268454D01*
X0207809Y0268501D01*
X0207617Y0268542D01*
X0207424Y0268579D01*
X0207230Y0268611D01*
X0207035Y0268639D01*
X0206840Y0268661D01*
X0206644Y0268679D01*
X0206448Y0268693D01*
X0206252Y0268701D01*
X0206055Y0268705D01*
X0205859Y0268704D01*
X0205663Y0268698D01*
X0205466Y0268687D01*
X0205270Y0268672D01*
X0205075Y0268652D01*
X0204880Y0268627D01*
X0204686Y0268598D01*
X0204492Y0268564D01*
X0204300Y0268525D01*
X0204108Y0268481D01*
X0203917Y0268433D01*
X0203728Y0268380D01*
X0203540Y0268323D01*
X0203354Y0268261D01*
X0203169Y0268194D01*
X0202985Y0268124D01*
X0202804Y0268048D01*
X0202624Y0267969D01*
X0202447Y0267885D01*
X0202271Y0267796D01*
X0202098Y0267704D01*
X0201927Y0267607D01*
X0201758Y0267506D01*
X0201592Y0267401D01*
X0201428Y0267292D01*
X0201267Y0267180D01*
X0201109Y0267063D01*
X0200954Y0266943D01*
X0200802Y0266818D01*
X0200652Y0266690D01*
X0200506Y0266559D01*
X0200363Y0266424D01*
X0200224Y0266286D01*
X0200088Y0266144D01*
X0199955Y0265999D01*
X0199826Y0265851D01*
X0199700Y0265700D01*
X0199900Y0265900D02*
X0199835Y0265828D01*
X0199774Y0265754D01*
X0199715Y0265677D01*
X0199660Y0265598D01*
X0199608Y0265517D01*
X0199559Y0265433D01*
X0199514Y0265348D01*
X0199472Y0265261D01*
X0199434Y0265172D01*
X0199400Y0265082D01*
X0199370Y0264990D01*
X0199343Y0264898D01*
X0199320Y0264804D01*
X0199301Y0264709D01*
X0199286Y0264614D01*
X0199275Y0264518D01*
X0199268Y0264422D01*
X0199265Y0264325D01*
X0199266Y0264229D01*
X0199271Y0264132D01*
X0199280Y0264036D01*
X0199293Y0263941D01*
X0199309Y0263845D01*
X0199330Y0263751D01*
X0199355Y0263658D01*
X0199383Y0263566D01*
X0199415Y0263475D01*
X0199451Y0263385D01*
X0199491Y0263297D01*
X0199534Y0263211D01*
X0199581Y0263126D01*
X0199631Y0263044D01*
X0199685Y0262964D01*
X0199741Y0262886D01*
X0199801Y0262810D01*
X0199864Y0262737D01*
X0199930Y0262667D01*
X0199999Y0262599D01*
X0200071Y0262534D01*
X0200145Y0262473D01*
X0200222Y0262414D01*
X0200301Y0262359D01*
X0200382Y0262307D01*
X0200466Y0262258D01*
X0200300Y0262400D02*
X0200485Y0262256D01*
X0200673Y0262116D01*
X0200865Y0261981D01*
X0201060Y0261851D01*
X0201258Y0261725D01*
X0201459Y0261604D01*
X0201663Y0261489D01*
X0201869Y0261378D01*
X0202079Y0261272D01*
X0202290Y0261172D01*
X0202505Y0261077D01*
X0202721Y0260987D01*
X0202940Y0260902D01*
X0203160Y0260823D01*
X0203383Y0260749D01*
X0203607Y0260680D01*
X0203833Y0260617D01*
X0204060Y0260560D01*
X0204289Y0260508D01*
X0204519Y0260462D01*
X0204750Y0260421D01*
X0204982Y0260386D01*
X0205214Y0260357D01*
X0205448Y0260333D01*
X0205681Y0260315D01*
X0205916Y0260303D01*
X0206150Y0260296D01*
X0206384Y0260295D01*
X0206619Y0260300D01*
X0206853Y0260311D01*
X0207087Y0260327D01*
X0207320Y0260349D01*
X0207553Y0260377D01*
X0207785Y0260411D01*
X0208016Y0260450D01*
X0208247Y0260494D01*
X0208476Y0260545D01*
X0208703Y0260601D01*
X0208930Y0260662D01*
X0209154Y0260729D01*
X0209377Y0260801D01*
X0209599Y0260879D01*
X0209818Y0260962D01*
X0210035Y0261051D01*
X0210250Y0261145D01*
X0210462Y0261244D01*
X0210672Y0261348D01*
X0210880Y0261457D01*
X0211084Y0261571D01*
X0211286Y0261691D01*
X0211485Y0261815D01*
X0211681Y0261944D01*
X0211874Y0262078D01*
X0212063Y0262216D01*
X0219900Y0262400D02*
X0220085Y0262256D01*
X0220273Y0262116D01*
X0220465Y0261981D01*
X0220660Y0261851D01*
X0220858Y0261725D01*
X0221059Y0261604D01*
X0221263Y0261489D01*
X0221469Y0261378D01*
X0221679Y0261272D01*
X0221890Y0261172D01*
X0222105Y0261077D01*
X0222321Y0260987D01*
X0222540Y0260902D01*
X0222760Y0260823D01*
X0222983Y0260749D01*
X0223207Y0260680D01*
X0223433Y0260617D01*
X0223660Y0260560D01*
X0223889Y0260508D01*
X0224119Y0260462D01*
X0224350Y0260421D01*
X0224582Y0260386D01*
X0224814Y0260357D01*
X0225048Y0260333D01*
X0225281Y0260315D01*
X0225516Y0260303D01*
X0225750Y0260296D01*
X0225984Y0260295D01*
X0226219Y0260300D01*
X0226453Y0260311D01*
X0226687Y0260327D01*
X0226920Y0260349D01*
X0227153Y0260377D01*
X0227385Y0260411D01*
X0227616Y0260450D01*
X0227847Y0260494D01*
X0228076Y0260545D01*
X0228303Y0260601D01*
X0228530Y0260662D01*
X0228754Y0260729D01*
X0228977Y0260801D01*
X0229199Y0260879D01*
X0229418Y0260962D01*
X0229635Y0261051D01*
X0229850Y0261145D01*
X0230062Y0261244D01*
X0230272Y0261348D01*
X0230480Y0261457D01*
X0230684Y0261571D01*
X0230886Y0261691D01*
X0231085Y0261815D01*
X0231281Y0261944D01*
X0231474Y0262078D01*
X0231663Y0262216D01*
X0239766Y0262258D02*
X0239682Y0262307D01*
X0239601Y0262359D01*
X0239522Y0262414D01*
X0239445Y0262473D01*
X0239371Y0262534D01*
X0239299Y0262599D01*
X0239230Y0262667D01*
X0239164Y0262737D01*
X0239101Y0262810D01*
X0239041Y0262886D01*
X0238985Y0262964D01*
X0238931Y0263044D01*
X0238881Y0263126D01*
X0238834Y0263211D01*
X0238791Y0263297D01*
X0238751Y0263385D01*
X0238715Y0263475D01*
X0238683Y0263566D01*
X0238655Y0263658D01*
X0238630Y0263751D01*
X0238609Y0263845D01*
X0238593Y0263941D01*
X0238580Y0264036D01*
X0238571Y0264132D01*
X0238566Y0264229D01*
X0238565Y0264325D01*
X0238568Y0264422D01*
X0238575Y0264518D01*
X0238586Y0264614D01*
X0238601Y0264709D01*
X0238620Y0264804D01*
X0238643Y0264898D01*
X0238670Y0264990D01*
X0238700Y0265082D01*
X0238734Y0265172D01*
X0238772Y0265261D01*
X0238814Y0265348D01*
X0238859Y0265433D01*
X0238908Y0265517D01*
X0238960Y0265598D01*
X0239015Y0265677D01*
X0239074Y0265754D01*
X0239135Y0265828D01*
X0239200Y0265900D01*
X0239001Y0265700D02*
X0239126Y0265851D01*
X0239255Y0265999D01*
X0239388Y0266144D01*
X0239524Y0266286D01*
X0239664Y0266424D01*
X0239806Y0266559D01*
X0239953Y0266691D01*
X0240102Y0266818D01*
X0240254Y0266943D01*
X0240409Y0267063D01*
X0240567Y0267180D01*
X0240728Y0267293D01*
X0240892Y0267401D01*
X0241058Y0267506D01*
X0241227Y0267607D01*
X0241398Y0267704D01*
X0241571Y0267796D01*
X0241747Y0267885D01*
X0241925Y0267969D01*
X0242104Y0268048D01*
X0242286Y0268124D01*
X0242469Y0268194D01*
X0242654Y0268261D01*
X0242840Y0268323D01*
X0243028Y0268380D01*
X0243218Y0268433D01*
X0243408Y0268481D01*
X0243600Y0268525D01*
X0243792Y0268564D01*
X0243986Y0268598D01*
X0244180Y0268627D01*
X0244375Y0268652D01*
X0244571Y0268672D01*
X0244767Y0268687D01*
X0244963Y0268698D01*
X0245159Y0268704D01*
X0245356Y0268705D01*
X0245552Y0268701D01*
X0245749Y0268693D01*
X0245945Y0268679D01*
X0246140Y0268661D01*
X0246335Y0268639D01*
X0246530Y0268611D01*
X0246724Y0268579D01*
X0246917Y0268542D01*
X0247109Y0268501D01*
X0247300Y0268454D01*
X0247490Y0268404D01*
X0247678Y0268348D01*
X0247866Y0268288D01*
X0248051Y0268224D01*
X0248235Y0268155D01*
X0248417Y0268081D01*
X0248598Y0268004D01*
X0248776Y0267922D01*
X0248953Y0267835D01*
X0249127Y0267744D01*
X0249299Y0267650D01*
X0249469Y0267551D01*
X0249636Y0267447D01*
X0249801Y0267340D01*
X0249963Y0267229D01*
X0250123Y0267114D01*
X0250279Y0266995D01*
X0250433Y0266873D01*
X0250583Y0266746D01*
X0250731Y0266617D01*
X0250875Y0266483D01*
X0251016Y0266346D01*
X0251154Y0266206D01*
X0251288Y0266062D01*
X0251418Y0265916D01*
X0251363Y0262216D02*
X0251174Y0262078D01*
X0250981Y0261944D01*
X0250785Y0261815D01*
X0250586Y0261691D01*
X0250384Y0261571D01*
X0250180Y0261457D01*
X0249972Y0261348D01*
X0249762Y0261244D01*
X0249550Y0261145D01*
X0249335Y0261051D01*
X0249118Y0260962D01*
X0248899Y0260879D01*
X0248677Y0260801D01*
X0248454Y0260729D01*
X0248230Y0260662D01*
X0248003Y0260601D01*
X0247776Y0260545D01*
X0247547Y0260494D01*
X0247316Y0260450D01*
X0247085Y0260411D01*
X0246853Y0260377D01*
X0246620Y0260349D01*
X0246387Y0260327D01*
X0246153Y0260311D01*
X0245919Y0260300D01*
X0245684Y0260295D01*
X0245450Y0260296D01*
X0245216Y0260303D01*
X0244981Y0260315D01*
X0244748Y0260333D01*
X0244514Y0260357D01*
X0244282Y0260386D01*
X0244050Y0260421D01*
X0243819Y0260462D01*
X0243589Y0260508D01*
X0243360Y0260560D01*
X0243133Y0260617D01*
X0242907Y0260680D01*
X0242683Y0260749D01*
X0242460Y0260823D01*
X0242240Y0260902D01*
X0242021Y0260987D01*
X0241805Y0261077D01*
X0241590Y0261172D01*
X0241379Y0261272D01*
X0241169Y0261378D01*
X0240963Y0261489D01*
X0240759Y0261604D01*
X0240558Y0261725D01*
X0240360Y0261851D01*
X0240165Y0261981D01*
X0239973Y0262116D01*
X0239785Y0262256D01*
X0239600Y0262400D01*
X0217700Y0229000D02*
X0217700Y0221500D01*
X0214000Y0221500D02*
X0214000Y0229000D01*
X0196200Y0248500D02*
X0192800Y0248500D01*
X0192263Y0262216D02*
X0192073Y0262077D01*
X0191881Y0261944D01*
X0191685Y0261815D01*
X0191486Y0261691D01*
X0191284Y0261571D01*
X0191079Y0261457D01*
X0190872Y0261348D01*
X0190662Y0261244D01*
X0190449Y0261145D01*
X0190234Y0261051D01*
X0190017Y0260962D01*
X0189798Y0260879D01*
X0189577Y0260801D01*
X0189354Y0260729D01*
X0189129Y0260662D01*
X0188903Y0260600D01*
X0188675Y0260545D01*
X0188446Y0260494D01*
X0188216Y0260450D01*
X0187985Y0260410D01*
X0187753Y0260377D01*
X0187520Y0260349D01*
X0187287Y0260327D01*
X0187053Y0260311D01*
X0186818Y0260300D01*
X0186584Y0260295D01*
X0186350Y0260296D01*
X0186115Y0260303D01*
X0185881Y0260315D01*
X0185647Y0260333D01*
X0185414Y0260357D01*
X0185181Y0260386D01*
X0184950Y0260421D01*
X0184719Y0260462D01*
X0184489Y0260508D01*
X0184260Y0260560D01*
X0184033Y0260617D01*
X0183807Y0260680D01*
X0183583Y0260749D01*
X0183360Y0260823D01*
X0183140Y0260902D01*
X0182921Y0260987D01*
X0182704Y0261077D01*
X0182490Y0261172D01*
X0182278Y0261273D01*
X0182069Y0261378D01*
X0181862Y0261489D01*
X0181658Y0261605D01*
X0181457Y0261725D01*
X0181259Y0261851D01*
X0181064Y0261981D01*
X0180873Y0262116D01*
X0180684Y0262256D01*
X0180500Y0262400D01*
X0172563Y0262216D02*
X0172373Y0262077D01*
X0172181Y0261944D01*
X0171985Y0261815D01*
X0171786Y0261691D01*
X0171584Y0261571D01*
X0171379Y0261457D01*
X0171172Y0261348D01*
X0170962Y0261244D01*
X0170749Y0261145D01*
X0170534Y0261051D01*
X0170317Y0260962D01*
X0170098Y0260879D01*
X0169877Y0260801D01*
X0169654Y0260729D01*
X0169429Y0260662D01*
X0169203Y0260600D01*
X0168975Y0260545D01*
X0168746Y0260494D01*
X0168516Y0260450D01*
X0168285Y0260410D01*
X0168053Y0260377D01*
X0167820Y0260349D01*
X0167587Y0260327D01*
X0167353Y0260311D01*
X0167118Y0260300D01*
X0166884Y0260295D01*
X0166650Y0260296D01*
X0166415Y0260303D01*
X0166181Y0260315D01*
X0165947Y0260333D01*
X0165714Y0260357D01*
X0165481Y0260386D01*
X0165250Y0260421D01*
X0165019Y0260462D01*
X0164789Y0260508D01*
X0164560Y0260560D01*
X0164333Y0260617D01*
X0164107Y0260680D01*
X0163883Y0260749D01*
X0163660Y0260823D01*
X0163440Y0260902D01*
X0163221Y0260987D01*
X0163004Y0261077D01*
X0162790Y0261172D01*
X0162578Y0261273D01*
X0162369Y0261378D01*
X0162162Y0261489D01*
X0161958Y0261605D01*
X0161757Y0261725D01*
X0161559Y0261851D01*
X0161364Y0261981D01*
X0161173Y0262116D01*
X0160984Y0262256D01*
X0160800Y0262400D01*
X0213000Y0201000D02*
X0213000Y0191000D01*
X0229000Y0191000D01*
X0229000Y0201000D01*
X0213000Y0201000D01*
X0217000Y0198500D02*
X0221000Y0196000D01*
X0221000Y0198500D01*
X0221000Y0196000D02*
X0217000Y0193500D01*
X0217000Y0198500D01*
X0215000Y0196000D02*
X0221000Y0196000D01*
X0221000Y0193500D01*
X0221000Y0196000D02*
X0223500Y0196000D01*
X0190000Y0190000D02*
X0190000Y0188500D01*
X0189500Y0188000D01*
X0189500Y0174000D01*
X0190000Y0173500D01*
X0190000Y0172000D01*
X0189998Y0171940D01*
X0189993Y0171879D01*
X0189984Y0171820D01*
X0189971Y0171761D01*
X0189955Y0171702D01*
X0189935Y0171645D01*
X0189912Y0171590D01*
X0189885Y0171535D01*
X0189856Y0171483D01*
X0189823Y0171432D01*
X0189787Y0171383D01*
X0189749Y0171337D01*
X0189707Y0171293D01*
X0189663Y0171251D01*
X0189617Y0171213D01*
X0189568Y0171177D01*
X0189517Y0171144D01*
X0189465Y0171115D01*
X0189410Y0171088D01*
X0189355Y0171065D01*
X0189298Y0171045D01*
X0189239Y0171029D01*
X0189180Y0171016D01*
X0189121Y0171007D01*
X0189060Y0171002D01*
X0189000Y0171000D01*
X0183000Y0171000D01*
X0182940Y0171002D01*
X0182879Y0171007D01*
X0182820Y0171016D01*
X0182761Y0171029D01*
X0182702Y0171045D01*
X0182645Y0171065D01*
X0182590Y0171088D01*
X0182535Y0171115D01*
X0182483Y0171144D01*
X0182432Y0171177D01*
X0182383Y0171213D01*
X0182337Y0171251D01*
X0182293Y0171293D01*
X0182251Y0171337D01*
X0182213Y0171383D01*
X0182177Y0171432D01*
X0182144Y0171483D01*
X0182115Y0171535D01*
X0182088Y0171590D01*
X0182065Y0171645D01*
X0182045Y0171702D01*
X0182029Y0171761D01*
X0182016Y0171820D01*
X0182007Y0171879D01*
X0182002Y0171940D01*
X0182000Y0172000D01*
X0182000Y0173500D01*
X0182500Y0174000D01*
X0182500Y0188000D01*
X0182000Y0188500D01*
X0182000Y0190000D01*
X0182002Y0190060D01*
X0182007Y0190121D01*
X0182016Y0190180D01*
X0182029Y0190239D01*
X0182045Y0190298D01*
X0182065Y0190355D01*
X0182088Y0190410D01*
X0182115Y0190465D01*
X0182144Y0190517D01*
X0182177Y0190568D01*
X0182213Y0190617D01*
X0182251Y0190663D01*
X0182293Y0190707D01*
X0182337Y0190749D01*
X0182383Y0190787D01*
X0182432Y0190823D01*
X0182483Y0190856D01*
X0182535Y0190885D01*
X0182590Y0190912D01*
X0182645Y0190935D01*
X0182702Y0190955D01*
X0182761Y0190971D01*
X0182820Y0190984D01*
X0182879Y0190993D01*
X0182940Y0190998D01*
X0183000Y0191000D01*
X0189000Y0191000D01*
X0189060Y0190998D01*
X0189121Y0190993D01*
X0189180Y0190984D01*
X0189239Y0190971D01*
X0189298Y0190955D01*
X0189355Y0190935D01*
X0189410Y0190912D01*
X0189465Y0190885D01*
X0189517Y0190856D01*
X0189568Y0190823D01*
X0189617Y0190787D01*
X0189663Y0190749D01*
X0189707Y0190707D01*
X0189749Y0190663D01*
X0189787Y0190617D01*
X0189823Y0190568D01*
X0189856Y0190517D01*
X0189885Y0190465D01*
X0189912Y0190410D01*
X0189935Y0190355D01*
X0189955Y0190298D01*
X0189971Y0190239D01*
X0189984Y0190180D01*
X0189993Y0190121D01*
X0189998Y0190060D01*
X0190000Y0190000D01*
X0170000Y0190000D02*
X0170000Y0188500D01*
X0169500Y0188000D01*
X0169500Y0174000D01*
X0170000Y0173500D01*
X0170000Y0172000D01*
X0169998Y0171940D01*
X0169993Y0171879D01*
X0169984Y0171820D01*
X0169971Y0171761D01*
X0169955Y0171702D01*
X0169935Y0171645D01*
X0169912Y0171590D01*
X0169885Y0171535D01*
X0169856Y0171483D01*
X0169823Y0171432D01*
X0169787Y0171383D01*
X0169749Y0171337D01*
X0169707Y0171293D01*
X0169663Y0171251D01*
X0169617Y0171213D01*
X0169568Y0171177D01*
X0169517Y0171144D01*
X0169465Y0171115D01*
X0169410Y0171088D01*
X0169355Y0171065D01*
X0169298Y0171045D01*
X0169239Y0171029D01*
X0169180Y0171016D01*
X0169121Y0171007D01*
X0169060Y0171002D01*
X0169000Y0171000D01*
X0163000Y0171000D01*
X0162940Y0171002D01*
X0162879Y0171007D01*
X0162820Y0171016D01*
X0162761Y0171029D01*
X0162702Y0171045D01*
X0162645Y0171065D01*
X0162590Y0171088D01*
X0162535Y0171115D01*
X0162483Y0171144D01*
X0162432Y0171177D01*
X0162383Y0171213D01*
X0162337Y0171251D01*
X0162293Y0171293D01*
X0162251Y0171337D01*
X0162213Y0171383D01*
X0162177Y0171432D01*
X0162144Y0171483D01*
X0162115Y0171535D01*
X0162088Y0171590D01*
X0162065Y0171645D01*
X0162045Y0171702D01*
X0162029Y0171761D01*
X0162016Y0171820D01*
X0162007Y0171879D01*
X0162002Y0171940D01*
X0162000Y0172000D01*
X0162000Y0173500D01*
X0162500Y0174000D01*
X0162500Y0188000D01*
X0162000Y0188500D01*
X0162000Y0190000D01*
X0162002Y0190060D01*
X0162007Y0190121D01*
X0162016Y0190180D01*
X0162029Y0190239D01*
X0162045Y0190298D01*
X0162065Y0190355D01*
X0162088Y0190410D01*
X0162115Y0190465D01*
X0162144Y0190517D01*
X0162177Y0190568D01*
X0162213Y0190617D01*
X0162251Y0190663D01*
X0162293Y0190707D01*
X0162337Y0190749D01*
X0162383Y0190787D01*
X0162432Y0190823D01*
X0162483Y0190856D01*
X0162535Y0190885D01*
X0162590Y0190912D01*
X0162645Y0190935D01*
X0162702Y0190955D01*
X0162761Y0190971D01*
X0162820Y0190984D01*
X0162879Y0190993D01*
X0162940Y0190998D01*
X0163000Y0191000D01*
X0169000Y0191000D01*
X0169060Y0190998D01*
X0169121Y0190993D01*
X0169180Y0190984D01*
X0169239Y0190971D01*
X0169298Y0190955D01*
X0169355Y0190935D01*
X0169410Y0190912D01*
X0169465Y0190885D01*
X0169517Y0190856D01*
X0169568Y0190823D01*
X0169617Y0190787D01*
X0169663Y0190749D01*
X0169707Y0190707D01*
X0169749Y0190663D01*
X0169787Y0190617D01*
X0169823Y0190568D01*
X0169856Y0190517D01*
X0169885Y0190465D01*
X0169912Y0190410D01*
X0169935Y0190355D01*
X0169955Y0190298D01*
X0169971Y0190239D01*
X0169984Y0190180D01*
X0169993Y0190121D01*
X0169998Y0190060D01*
X0170000Y0190000D01*
X0214500Y0130500D02*
X0227500Y0130500D01*
X0227587Y0130498D01*
X0227674Y0130492D01*
X0227761Y0130483D01*
X0227847Y0130470D01*
X0227933Y0130453D01*
X0228018Y0130432D01*
X0228101Y0130407D01*
X0228184Y0130379D01*
X0228265Y0130348D01*
X0228345Y0130313D01*
X0228423Y0130274D01*
X0228500Y0130232D01*
X0228575Y0130187D01*
X0228647Y0130138D01*
X0228718Y0130087D01*
X0228786Y0130032D01*
X0228851Y0129975D01*
X0228914Y0129914D01*
X0228975Y0129851D01*
X0229032Y0129786D01*
X0229087Y0129718D01*
X0229138Y0129647D01*
X0229187Y0129575D01*
X0229232Y0129500D01*
X0229274Y0129423D01*
X0229313Y0129345D01*
X0229348Y0129265D01*
X0229379Y0129184D01*
X0229407Y0129101D01*
X0229432Y0129018D01*
X0229453Y0128933D01*
X0229470Y0128847D01*
X0229483Y0128761D01*
X0229492Y0128674D01*
X0229498Y0128587D01*
X0229500Y0128500D01*
X0229500Y0123500D01*
X0229498Y0123413D01*
X0229492Y0123326D01*
X0229483Y0123239D01*
X0229470Y0123153D01*
X0229453Y0123067D01*
X0229432Y0122982D01*
X0229407Y0122899D01*
X0229379Y0122816D01*
X0229348Y0122735D01*
X0229313Y0122655D01*
X0229274Y0122577D01*
X0229232Y0122500D01*
X0229187Y0122425D01*
X0229138Y0122353D01*
X0229087Y0122282D01*
X0229032Y0122214D01*
X0228975Y0122149D01*
X0228914Y0122086D01*
X0228851Y0122025D01*
X0228786Y0121968D01*
X0228718Y0121913D01*
X0228647Y0121862D01*
X0228575Y0121813D01*
X0228500Y0121768D01*
X0228423Y0121726D01*
X0228345Y0121687D01*
X0228265Y0121652D01*
X0228184Y0121621D01*
X0228101Y0121593D01*
X0228018Y0121568D01*
X0227933Y0121547D01*
X0227847Y0121530D01*
X0227761Y0121517D01*
X0227674Y0121508D01*
X0227587Y0121502D01*
X0227500Y0121500D01*
X0214500Y0121500D01*
X0214413Y0121502D01*
X0214326Y0121508D01*
X0214239Y0121517D01*
X0214153Y0121530D01*
X0214067Y0121547D01*
X0213982Y0121568D01*
X0213899Y0121593D01*
X0213816Y0121621D01*
X0213735Y0121652D01*
X0213655Y0121687D01*
X0213577Y0121726D01*
X0213500Y0121768D01*
X0213425Y0121813D01*
X0213353Y0121862D01*
X0213282Y0121913D01*
X0213214Y0121968D01*
X0213149Y0122025D01*
X0213086Y0122086D01*
X0213025Y0122149D01*
X0212968Y0122214D01*
X0212913Y0122282D01*
X0212862Y0122353D01*
X0212813Y0122425D01*
X0212768Y0122500D01*
X0212726Y0122577D01*
X0212687Y0122655D01*
X0212652Y0122735D01*
X0212621Y0122816D01*
X0212593Y0122899D01*
X0212568Y0122982D01*
X0212547Y0123067D01*
X0212530Y0123153D01*
X0212517Y0123239D01*
X0212508Y0123326D01*
X0212502Y0123413D01*
X0212500Y0123500D01*
X0212500Y0128500D01*
X0212502Y0128587D01*
X0212508Y0128674D01*
X0212517Y0128761D01*
X0212530Y0128847D01*
X0212547Y0128933D01*
X0212568Y0129018D01*
X0212593Y0129101D01*
X0212621Y0129184D01*
X0212652Y0129265D01*
X0212687Y0129345D01*
X0212726Y0129423D01*
X0212768Y0129500D01*
X0212813Y0129575D01*
X0212862Y0129647D01*
X0212913Y0129718D01*
X0212968Y0129786D01*
X0213025Y0129851D01*
X0213086Y0129914D01*
X0213149Y0129975D01*
X0213214Y0130032D01*
X0213282Y0130087D01*
X0213353Y0130138D01*
X0213425Y0130187D01*
X0213500Y0130232D01*
X0213577Y0130274D01*
X0213655Y0130313D01*
X0213735Y0130348D01*
X0213816Y0130379D01*
X0213899Y0130407D01*
X0213982Y0130432D01*
X0214067Y0130453D01*
X0214153Y0130470D01*
X0214239Y0130483D01*
X0214326Y0130492D01*
X0214413Y0130498D01*
X0214500Y0130500D01*
X0201000Y0122500D02*
X0201000Y0099500D01*
X0161000Y0099500D01*
X0161000Y0107000D01*
X0161126Y0107002D01*
X0161251Y0107008D01*
X0161376Y0107018D01*
X0161501Y0107032D01*
X0161626Y0107049D01*
X0161750Y0107071D01*
X0161873Y0107096D01*
X0161995Y0107126D01*
X0162116Y0107159D01*
X0162236Y0107196D01*
X0162355Y0107236D01*
X0162472Y0107281D01*
X0162589Y0107329D01*
X0162703Y0107381D01*
X0162816Y0107436D01*
X0162927Y0107495D01*
X0163036Y0107557D01*
X0163143Y0107623D01*
X0163248Y0107692D01*
X0163351Y0107764D01*
X0163452Y0107839D01*
X0163550Y0107918D01*
X0163645Y0108000D01*
X0163738Y0108084D01*
X0163828Y0108172D01*
X0163916Y0108262D01*
X0164000Y0108355D01*
X0164082Y0108450D01*
X0164161Y0108548D01*
X0164236Y0108649D01*
X0164308Y0108752D01*
X0164377Y0108857D01*
X0164443Y0108964D01*
X0164505Y0109073D01*
X0164564Y0109184D01*
X0164619Y0109297D01*
X0164671Y0109411D01*
X0164719Y0109528D01*
X0164764Y0109645D01*
X0164804Y0109764D01*
X0164841Y0109884D01*
X0164874Y0110005D01*
X0164904Y0110127D01*
X0164929Y0110250D01*
X0164951Y0110374D01*
X0164968Y0110499D01*
X0164982Y0110624D01*
X0164992Y0110749D01*
X0164998Y0110874D01*
X0165000Y0111000D01*
X0164998Y0111126D01*
X0164992Y0111251D01*
X0164982Y0111376D01*
X0164968Y0111501D01*
X0164951Y0111626D01*
X0164929Y0111750D01*
X0164904Y0111873D01*
X0164874Y0111995D01*
X0164841Y0112116D01*
X0164804Y0112236D01*
X0164764Y0112355D01*
X0164719Y0112472D01*
X0164671Y0112589D01*
X0164619Y0112703D01*
X0164564Y0112816D01*
X0164505Y0112927D01*
X0164443Y0113036D01*
X0164377Y0113143D01*
X0164308Y0113248D01*
X0164236Y0113351D01*
X0164161Y0113452D01*
X0164082Y0113550D01*
X0164000Y0113645D01*
X0163916Y0113738D01*
X0163828Y0113828D01*
X0163738Y0113916D01*
X0163645Y0114000D01*
X0163550Y0114082D01*
X0163452Y0114161D01*
X0163351Y0114236D01*
X0163248Y0114308D01*
X0163143Y0114377D01*
X0163036Y0114443D01*
X0162927Y0114505D01*
X0162816Y0114564D01*
X0162703Y0114619D01*
X0162589Y0114671D01*
X0162472Y0114719D01*
X0162355Y0114764D01*
X0162236Y0114804D01*
X0162116Y0114841D01*
X0161995Y0114874D01*
X0161873Y0114904D01*
X0161750Y0114929D01*
X0161626Y0114951D01*
X0161501Y0114968D01*
X0161376Y0114982D01*
X0161251Y0114992D01*
X0161126Y0114998D01*
X0161000Y0115000D01*
X0161000Y0122500D01*
X0201000Y0122500D01*
X0198500Y0079500D02*
X0203500Y0079500D01*
X0203587Y0079498D01*
X0203674Y0079492D01*
X0203761Y0079483D01*
X0203847Y0079470D01*
X0203933Y0079453D01*
X0204018Y0079432D01*
X0204101Y0079407D01*
X0204184Y0079379D01*
X0204265Y0079348D01*
X0204345Y0079313D01*
X0204423Y0079274D01*
X0204500Y0079232D01*
X0204575Y0079187D01*
X0204647Y0079138D01*
X0204718Y0079087D01*
X0204786Y0079032D01*
X0204851Y0078975D01*
X0204914Y0078914D01*
X0204975Y0078851D01*
X0205032Y0078786D01*
X0205087Y0078718D01*
X0205138Y0078647D01*
X0205187Y0078575D01*
X0205232Y0078500D01*
X0205274Y0078423D01*
X0205313Y0078345D01*
X0205348Y0078265D01*
X0205379Y0078184D01*
X0205407Y0078101D01*
X0205432Y0078018D01*
X0205453Y0077933D01*
X0205470Y0077847D01*
X0205483Y0077761D01*
X0205492Y0077674D01*
X0205498Y0077587D01*
X0205500Y0077500D01*
X0205500Y0064500D01*
X0205498Y0064413D01*
X0205492Y0064326D01*
X0205483Y0064239D01*
X0205470Y0064153D01*
X0205453Y0064067D01*
X0205432Y0063982D01*
X0205407Y0063899D01*
X0205379Y0063816D01*
X0205348Y0063735D01*
X0205313Y0063655D01*
X0205274Y0063577D01*
X0205232Y0063500D01*
X0205187Y0063425D01*
X0205138Y0063353D01*
X0205087Y0063282D01*
X0205032Y0063214D01*
X0204975Y0063149D01*
X0204914Y0063086D01*
X0204851Y0063025D01*
X0204786Y0062968D01*
X0204718Y0062913D01*
X0204647Y0062862D01*
X0204575Y0062813D01*
X0204500Y0062768D01*
X0204423Y0062726D01*
X0204345Y0062687D01*
X0204265Y0062652D01*
X0204184Y0062621D01*
X0204101Y0062593D01*
X0204018Y0062568D01*
X0203933Y0062547D01*
X0203847Y0062530D01*
X0203761Y0062517D01*
X0203674Y0062508D01*
X0203587Y0062502D01*
X0203500Y0062500D01*
X0198500Y0062500D01*
X0198413Y0062502D01*
X0198326Y0062508D01*
X0198239Y0062517D01*
X0198153Y0062530D01*
X0198067Y0062547D01*
X0197982Y0062568D01*
X0197899Y0062593D01*
X0197816Y0062621D01*
X0197735Y0062652D01*
X0197655Y0062687D01*
X0197577Y0062726D01*
X0197500Y0062768D01*
X0197425Y0062813D01*
X0197353Y0062862D01*
X0197282Y0062913D01*
X0197214Y0062968D01*
X0197149Y0063025D01*
X0197086Y0063086D01*
X0197025Y0063149D01*
X0196968Y0063214D01*
X0196913Y0063282D01*
X0196862Y0063353D01*
X0196813Y0063425D01*
X0196768Y0063500D01*
X0196726Y0063577D01*
X0196687Y0063655D01*
X0196652Y0063735D01*
X0196621Y0063816D01*
X0196593Y0063899D01*
X0196568Y0063982D01*
X0196547Y0064067D01*
X0196530Y0064153D01*
X0196517Y0064239D01*
X0196508Y0064326D01*
X0196502Y0064413D01*
X0196500Y0064500D01*
X0196500Y0077500D01*
X0196502Y0077587D01*
X0196508Y0077674D01*
X0196517Y0077761D01*
X0196530Y0077847D01*
X0196547Y0077933D01*
X0196568Y0078018D01*
X0196593Y0078101D01*
X0196621Y0078184D01*
X0196652Y0078265D01*
X0196687Y0078345D01*
X0196726Y0078423D01*
X0196768Y0078500D01*
X0196813Y0078575D01*
X0196862Y0078647D01*
X0196913Y0078718D01*
X0196968Y0078786D01*
X0197025Y0078851D01*
X0197086Y0078914D01*
X0197149Y0078975D01*
X0197214Y0079032D01*
X0197282Y0079087D01*
X0197353Y0079138D01*
X0197425Y0079187D01*
X0197500Y0079232D01*
X0197577Y0079274D01*
X0197655Y0079313D01*
X0197735Y0079348D01*
X0197816Y0079379D01*
X0197899Y0079407D01*
X0197982Y0079432D01*
X0198067Y0079453D01*
X0198153Y0079470D01*
X0198239Y0079483D01*
X0198326Y0079492D01*
X0198413Y0079498D01*
X0198500Y0079500D01*
X0175000Y0079500D02*
X0175000Y0076000D01*
X0168000Y0076000D01*
X0170500Y0074000D02*
X0170500Y0065500D01*
X0169000Y0065500D01*
X0168500Y0066000D01*
X0172500Y0066000D01*
X0172000Y0065500D01*
X0170500Y0065500D01*
X0170500Y0064000D01*
X0171000Y0064500D01*
X0171500Y0065000D01*
X0172000Y0065500D01*
X0171500Y0065000D02*
X0169500Y0065000D01*
X0170000Y0064500D01*
X0171000Y0064500D01*
X0170500Y0064000D02*
X0170000Y0064500D01*
X0169500Y0065000D02*
X0169000Y0065500D01*
X0168000Y0056000D02*
X0175000Y0056000D01*
X0175000Y0076000D01*
X0175000Y0079500D02*
X0166000Y0079500D01*
X0161000Y0079500D02*
X0149000Y0079500D01*
X0149000Y0052500D01*
X0161000Y0052500D01*
X0166000Y0052500D02*
X0175000Y0052500D01*
X0175000Y0056000D01*
X0259000Y0052500D02*
X0271000Y0052500D01*
X0276000Y0052500D02*
X0285000Y0052500D01*
X0285000Y0056000D01*
X0278000Y0056000D01*
X0285000Y0056000D02*
X0285000Y0076000D01*
X0278000Y0076000D01*
X0280500Y0074000D02*
X0280500Y0065500D01*
X0279000Y0065500D01*
X0278500Y0066000D01*
X0282500Y0066000D01*
X0282000Y0065500D01*
X0280500Y0065500D01*
X0280500Y0064000D01*
X0281000Y0064500D01*
X0281500Y0065000D01*
X0282000Y0065500D01*
X0281500Y0065000D02*
X0279500Y0065000D01*
X0280000Y0064500D01*
X0281000Y0064500D01*
X0280500Y0064000D02*
X0280000Y0064500D01*
X0279500Y0065000D02*
X0279000Y0065500D01*
X0285000Y0076000D02*
X0285000Y0079500D01*
X0276000Y0079500D01*
X0271000Y0079500D02*
X0259000Y0079500D01*
X0259000Y0052500D01*
X0311500Y0064500D02*
X0311500Y0077500D01*
X0311502Y0077587D01*
X0311508Y0077674D01*
X0311517Y0077761D01*
X0311530Y0077847D01*
X0311547Y0077933D01*
X0311568Y0078018D01*
X0311593Y0078101D01*
X0311621Y0078184D01*
X0311652Y0078265D01*
X0311687Y0078345D01*
X0311726Y0078423D01*
X0311768Y0078500D01*
X0311813Y0078575D01*
X0311862Y0078647D01*
X0311913Y0078718D01*
X0311968Y0078786D01*
X0312025Y0078851D01*
X0312086Y0078914D01*
X0312149Y0078975D01*
X0312214Y0079032D01*
X0312282Y0079087D01*
X0312353Y0079138D01*
X0312425Y0079187D01*
X0312500Y0079232D01*
X0312577Y0079274D01*
X0312655Y0079313D01*
X0312735Y0079348D01*
X0312816Y0079379D01*
X0312899Y0079407D01*
X0312982Y0079432D01*
X0313067Y0079453D01*
X0313153Y0079470D01*
X0313239Y0079483D01*
X0313326Y0079492D01*
X0313413Y0079498D01*
X0313500Y0079500D01*
X0318500Y0079500D01*
X0318587Y0079498D01*
X0318674Y0079492D01*
X0318761Y0079483D01*
X0318847Y0079470D01*
X0318933Y0079453D01*
X0319018Y0079432D01*
X0319101Y0079407D01*
X0319184Y0079379D01*
X0319265Y0079348D01*
X0319345Y0079313D01*
X0319423Y0079274D01*
X0319500Y0079232D01*
X0319575Y0079187D01*
X0319647Y0079138D01*
X0319718Y0079087D01*
X0319786Y0079032D01*
X0319851Y0078975D01*
X0319914Y0078914D01*
X0319975Y0078851D01*
X0320032Y0078786D01*
X0320087Y0078718D01*
X0320138Y0078647D01*
X0320187Y0078575D01*
X0320232Y0078500D01*
X0320274Y0078423D01*
X0320313Y0078345D01*
X0320348Y0078265D01*
X0320379Y0078184D01*
X0320407Y0078101D01*
X0320432Y0078018D01*
X0320453Y0077933D01*
X0320470Y0077847D01*
X0320483Y0077761D01*
X0320492Y0077674D01*
X0320498Y0077587D01*
X0320500Y0077500D01*
X0320500Y0064500D01*
X0320498Y0064413D01*
X0320492Y0064326D01*
X0320483Y0064239D01*
X0320470Y0064153D01*
X0320453Y0064067D01*
X0320432Y0063982D01*
X0320407Y0063899D01*
X0320379Y0063816D01*
X0320348Y0063735D01*
X0320313Y0063655D01*
X0320274Y0063577D01*
X0320232Y0063500D01*
X0320187Y0063425D01*
X0320138Y0063353D01*
X0320087Y0063282D01*
X0320032Y0063214D01*
X0319975Y0063149D01*
X0319914Y0063086D01*
X0319851Y0063025D01*
X0319786Y0062968D01*
X0319718Y0062913D01*
X0319647Y0062862D01*
X0319575Y0062813D01*
X0319500Y0062768D01*
X0319423Y0062726D01*
X0319345Y0062687D01*
X0319265Y0062652D01*
X0319184Y0062621D01*
X0319101Y0062593D01*
X0319018Y0062568D01*
X0318933Y0062547D01*
X0318847Y0062530D01*
X0318761Y0062517D01*
X0318674Y0062508D01*
X0318587Y0062502D01*
X0318500Y0062500D01*
X0313500Y0062500D01*
X0313413Y0062502D01*
X0313326Y0062508D01*
X0313239Y0062517D01*
X0313153Y0062530D01*
X0313067Y0062547D01*
X0312982Y0062568D01*
X0312899Y0062593D01*
X0312816Y0062621D01*
X0312735Y0062652D01*
X0312655Y0062687D01*
X0312577Y0062726D01*
X0312500Y0062768D01*
X0312425Y0062813D01*
X0312353Y0062862D01*
X0312282Y0062913D01*
X0312214Y0062968D01*
X0312149Y0063025D01*
X0312086Y0063086D01*
X0312025Y0063149D01*
X0311968Y0063214D01*
X0311913Y0063282D01*
X0311862Y0063353D01*
X0311813Y0063425D01*
X0311768Y0063500D01*
X0311726Y0063577D01*
X0311687Y0063655D01*
X0311652Y0063735D01*
X0311621Y0063816D01*
X0311593Y0063899D01*
X0311568Y0063982D01*
X0311547Y0064067D01*
X0311530Y0064153D01*
X0311517Y0064239D01*
X0311508Y0064326D01*
X0311502Y0064413D01*
X0311500Y0064500D01*
X0316000Y0099500D02*
X0276000Y0099500D01*
X0276000Y0107000D01*
X0276126Y0107002D01*
X0276251Y0107008D01*
X0276376Y0107018D01*
X0276501Y0107032D01*
X0276626Y0107049D01*
X0276750Y0107071D01*
X0276873Y0107096D01*
X0276995Y0107126D01*
X0277116Y0107159D01*
X0277236Y0107196D01*
X0277355Y0107236D01*
X0277472Y0107281D01*
X0277589Y0107329D01*
X0277703Y0107381D01*
X0277816Y0107436D01*
X0277927Y0107495D01*
X0278036Y0107557D01*
X0278143Y0107623D01*
X0278248Y0107692D01*
X0278351Y0107764D01*
X0278452Y0107839D01*
X0278550Y0107918D01*
X0278645Y0108000D01*
X0278738Y0108084D01*
X0278828Y0108172D01*
X0278916Y0108262D01*
X0279000Y0108355D01*
X0279082Y0108450D01*
X0279161Y0108548D01*
X0279236Y0108649D01*
X0279308Y0108752D01*
X0279377Y0108857D01*
X0279443Y0108964D01*
X0279505Y0109073D01*
X0279564Y0109184D01*
X0279619Y0109297D01*
X0279671Y0109411D01*
X0279719Y0109528D01*
X0279764Y0109645D01*
X0279804Y0109764D01*
X0279841Y0109884D01*
X0279874Y0110005D01*
X0279904Y0110127D01*
X0279929Y0110250D01*
X0279951Y0110374D01*
X0279968Y0110499D01*
X0279982Y0110624D01*
X0279992Y0110749D01*
X0279998Y0110874D01*
X0280000Y0111000D01*
X0279998Y0111126D01*
X0279992Y0111251D01*
X0279982Y0111376D01*
X0279968Y0111501D01*
X0279951Y0111626D01*
X0279929Y0111750D01*
X0279904Y0111873D01*
X0279874Y0111995D01*
X0279841Y0112116D01*
X0279804Y0112236D01*
X0279764Y0112355D01*
X0279719Y0112472D01*
X0279671Y0112589D01*
X0279619Y0112703D01*
X0279564Y0112816D01*
X0279505Y0112927D01*
X0279443Y0113036D01*
X0279377Y0113143D01*
X0279308Y0113248D01*
X0279236Y0113351D01*
X0279161Y0113452D01*
X0279082Y0113550D01*
X0279000Y0113645D01*
X0278916Y0113738D01*
X0278828Y0113828D01*
X0278738Y0113916D01*
X0278645Y0114000D01*
X0278550Y0114082D01*
X0278452Y0114161D01*
X0278351Y0114236D01*
X0278248Y0114308D01*
X0278143Y0114377D01*
X0278036Y0114443D01*
X0277927Y0114505D01*
X0277816Y0114564D01*
X0277703Y0114619D01*
X0277589Y0114671D01*
X0277472Y0114719D01*
X0277355Y0114764D01*
X0277236Y0114804D01*
X0277116Y0114841D01*
X0276995Y0114874D01*
X0276873Y0114904D01*
X0276750Y0114929D01*
X0276626Y0114951D01*
X0276501Y0114968D01*
X0276376Y0114982D01*
X0276251Y0114992D01*
X0276126Y0114998D01*
X0276000Y0115000D01*
X0276000Y0122500D01*
X0316000Y0122500D01*
X0316000Y0099500D01*
X0334500Y0121500D02*
X0347500Y0121500D01*
X0347587Y0121502D01*
X0347674Y0121508D01*
X0347761Y0121517D01*
X0347847Y0121530D01*
X0347933Y0121547D01*
X0348018Y0121568D01*
X0348101Y0121593D01*
X0348184Y0121621D01*
X0348265Y0121652D01*
X0348345Y0121687D01*
X0348423Y0121726D01*
X0348500Y0121768D01*
X0348575Y0121813D01*
X0348647Y0121862D01*
X0348718Y0121913D01*
X0348786Y0121968D01*
X0348851Y0122025D01*
X0348914Y0122086D01*
X0348975Y0122149D01*
X0349032Y0122214D01*
X0349087Y0122282D01*
X0349138Y0122353D01*
X0349187Y0122425D01*
X0349232Y0122500D01*
X0349274Y0122577D01*
X0349313Y0122655D01*
X0349348Y0122735D01*
X0349379Y0122816D01*
X0349407Y0122899D01*
X0349432Y0122982D01*
X0349453Y0123067D01*
X0349470Y0123153D01*
X0349483Y0123239D01*
X0349492Y0123326D01*
X0349498Y0123413D01*
X0349500Y0123500D01*
X0349500Y0128500D01*
X0349498Y0128587D01*
X0349492Y0128674D01*
X0349483Y0128761D01*
X0349470Y0128847D01*
X0349453Y0128933D01*
X0349432Y0129018D01*
X0349407Y0129101D01*
X0349379Y0129184D01*
X0349348Y0129265D01*
X0349313Y0129345D01*
X0349274Y0129423D01*
X0349232Y0129500D01*
X0349187Y0129575D01*
X0349138Y0129647D01*
X0349087Y0129718D01*
X0349032Y0129786D01*
X0348975Y0129851D01*
X0348914Y0129914D01*
X0348851Y0129975D01*
X0348786Y0130032D01*
X0348718Y0130087D01*
X0348647Y0130138D01*
X0348575Y0130187D01*
X0348500Y0130232D01*
X0348423Y0130274D01*
X0348345Y0130313D01*
X0348265Y0130348D01*
X0348184Y0130379D01*
X0348101Y0130407D01*
X0348018Y0130432D01*
X0347933Y0130453D01*
X0347847Y0130470D01*
X0347761Y0130483D01*
X0347674Y0130492D01*
X0347587Y0130498D01*
X0347500Y0130500D01*
X0334500Y0130500D01*
X0334413Y0130498D01*
X0334326Y0130492D01*
X0334239Y0130483D01*
X0334153Y0130470D01*
X0334067Y0130453D01*
X0333982Y0130432D01*
X0333899Y0130407D01*
X0333816Y0130379D01*
X0333735Y0130348D01*
X0333655Y0130313D01*
X0333577Y0130274D01*
X0333500Y0130232D01*
X0333425Y0130187D01*
X0333353Y0130138D01*
X0333282Y0130087D01*
X0333214Y0130032D01*
X0333149Y0129975D01*
X0333086Y0129914D01*
X0333025Y0129851D01*
X0332968Y0129786D01*
X0332913Y0129718D01*
X0332862Y0129647D01*
X0332813Y0129575D01*
X0332768Y0129500D01*
X0332726Y0129423D01*
X0332687Y0129345D01*
X0332652Y0129265D01*
X0332621Y0129184D01*
X0332593Y0129101D01*
X0332568Y0129018D01*
X0332547Y0128933D01*
X0332530Y0128847D01*
X0332517Y0128761D01*
X0332508Y0128674D01*
X0332502Y0128587D01*
X0332500Y0128500D01*
X0332500Y0123500D01*
X0332502Y0123413D01*
X0332508Y0123326D01*
X0332517Y0123239D01*
X0332530Y0123153D01*
X0332547Y0123067D01*
X0332568Y0122982D01*
X0332593Y0122899D01*
X0332621Y0122816D01*
X0332652Y0122735D01*
X0332687Y0122655D01*
X0332726Y0122577D01*
X0332768Y0122500D01*
X0332813Y0122425D01*
X0332862Y0122353D01*
X0332913Y0122282D01*
X0332968Y0122214D01*
X0333025Y0122149D01*
X0333086Y0122086D01*
X0333149Y0122025D01*
X0333214Y0121968D01*
X0333282Y0121913D01*
X0333353Y0121862D01*
X0333425Y0121813D01*
X0333500Y0121768D01*
X0333577Y0121726D01*
X0333655Y0121687D01*
X0333735Y0121652D01*
X0333816Y0121621D01*
X0333899Y0121593D01*
X0333982Y0121568D01*
X0334067Y0121547D01*
X0334153Y0121530D01*
X0334239Y0121517D01*
X0334326Y0121508D01*
X0334413Y0121502D01*
X0334500Y0121500D01*
X0304000Y0171000D02*
X0298000Y0171000D01*
X0297940Y0171002D01*
X0297879Y0171007D01*
X0297820Y0171016D01*
X0297761Y0171029D01*
X0297702Y0171045D01*
X0297645Y0171065D01*
X0297590Y0171088D01*
X0297535Y0171115D01*
X0297483Y0171144D01*
X0297432Y0171177D01*
X0297383Y0171213D01*
X0297337Y0171251D01*
X0297293Y0171293D01*
X0297251Y0171337D01*
X0297213Y0171383D01*
X0297177Y0171432D01*
X0297144Y0171483D01*
X0297115Y0171535D01*
X0297088Y0171590D01*
X0297065Y0171645D01*
X0297045Y0171702D01*
X0297029Y0171761D01*
X0297016Y0171820D01*
X0297007Y0171879D01*
X0297002Y0171940D01*
X0297000Y0172000D01*
X0297000Y0173500D01*
X0297500Y0174000D01*
X0297500Y0188000D01*
X0297000Y0188500D01*
X0297000Y0190000D01*
X0297002Y0190060D01*
X0297007Y0190121D01*
X0297016Y0190180D01*
X0297029Y0190239D01*
X0297045Y0190298D01*
X0297065Y0190355D01*
X0297088Y0190410D01*
X0297115Y0190465D01*
X0297144Y0190517D01*
X0297177Y0190568D01*
X0297213Y0190617D01*
X0297251Y0190663D01*
X0297293Y0190707D01*
X0297337Y0190749D01*
X0297383Y0190787D01*
X0297432Y0190823D01*
X0297483Y0190856D01*
X0297535Y0190885D01*
X0297590Y0190912D01*
X0297645Y0190935D01*
X0297702Y0190955D01*
X0297761Y0190971D01*
X0297820Y0190984D01*
X0297879Y0190993D01*
X0297940Y0190998D01*
X0298000Y0191000D01*
X0304000Y0191000D01*
X0304060Y0190998D01*
X0304121Y0190993D01*
X0304180Y0190984D01*
X0304239Y0190971D01*
X0304298Y0190955D01*
X0304355Y0190935D01*
X0304410Y0190912D01*
X0304465Y0190885D01*
X0304517Y0190856D01*
X0304568Y0190823D01*
X0304617Y0190787D01*
X0304663Y0190749D01*
X0304707Y0190707D01*
X0304749Y0190663D01*
X0304787Y0190617D01*
X0304823Y0190568D01*
X0304856Y0190517D01*
X0304885Y0190465D01*
X0304912Y0190410D01*
X0304935Y0190355D01*
X0304955Y0190298D01*
X0304971Y0190239D01*
X0304984Y0190180D01*
X0304993Y0190121D01*
X0304998Y0190060D01*
X0305000Y0190000D01*
X0305000Y0188500D01*
X0304500Y0188000D01*
X0304500Y0174000D01*
X0305000Y0173500D01*
X0305000Y0172000D01*
X0304998Y0171940D01*
X0304993Y0171879D01*
X0304984Y0171820D01*
X0304971Y0171761D01*
X0304955Y0171702D01*
X0304935Y0171645D01*
X0304912Y0171590D01*
X0304885Y0171535D01*
X0304856Y0171483D01*
X0304823Y0171432D01*
X0304787Y0171383D01*
X0304749Y0171337D01*
X0304707Y0171293D01*
X0304663Y0171251D01*
X0304617Y0171213D01*
X0304568Y0171177D01*
X0304517Y0171144D01*
X0304465Y0171115D01*
X0304410Y0171088D01*
X0304355Y0171065D01*
X0304298Y0171045D01*
X0304239Y0171029D01*
X0304180Y0171016D01*
X0304121Y0171007D01*
X0304060Y0171002D01*
X0304000Y0171000D01*
X0285000Y0172000D02*
X0285000Y0173500D01*
X0284500Y0174000D01*
X0284500Y0188000D01*
X0285000Y0188500D01*
X0285000Y0190000D01*
X0284998Y0190060D01*
X0284993Y0190121D01*
X0284984Y0190180D01*
X0284971Y0190239D01*
X0284955Y0190298D01*
X0284935Y0190355D01*
X0284912Y0190410D01*
X0284885Y0190465D01*
X0284856Y0190517D01*
X0284823Y0190568D01*
X0284787Y0190617D01*
X0284749Y0190663D01*
X0284707Y0190707D01*
X0284663Y0190749D01*
X0284617Y0190787D01*
X0284568Y0190823D01*
X0284517Y0190856D01*
X0284465Y0190885D01*
X0284410Y0190912D01*
X0284355Y0190935D01*
X0284298Y0190955D01*
X0284239Y0190971D01*
X0284180Y0190984D01*
X0284121Y0190993D01*
X0284060Y0190998D01*
X0284000Y0191000D01*
X0278000Y0191000D01*
X0277940Y0190998D01*
X0277879Y0190993D01*
X0277820Y0190984D01*
X0277761Y0190971D01*
X0277702Y0190955D01*
X0277645Y0190935D01*
X0277590Y0190912D01*
X0277535Y0190885D01*
X0277483Y0190856D01*
X0277432Y0190823D01*
X0277383Y0190787D01*
X0277337Y0190749D01*
X0277293Y0190707D01*
X0277251Y0190663D01*
X0277213Y0190617D01*
X0277177Y0190568D01*
X0277144Y0190517D01*
X0277115Y0190465D01*
X0277088Y0190410D01*
X0277065Y0190355D01*
X0277045Y0190298D01*
X0277029Y0190239D01*
X0277016Y0190180D01*
X0277007Y0190121D01*
X0277002Y0190060D01*
X0277000Y0190000D01*
X0277000Y0188500D01*
X0277500Y0188000D01*
X0277500Y0174000D01*
X0277000Y0173500D01*
X0277000Y0172000D01*
X0277002Y0171940D01*
X0277007Y0171879D01*
X0277016Y0171820D01*
X0277029Y0171761D01*
X0277045Y0171702D01*
X0277065Y0171645D01*
X0277088Y0171590D01*
X0277115Y0171535D01*
X0277144Y0171483D01*
X0277177Y0171432D01*
X0277213Y0171383D01*
X0277251Y0171337D01*
X0277293Y0171293D01*
X0277337Y0171251D01*
X0277383Y0171213D01*
X0277432Y0171177D01*
X0277483Y0171144D01*
X0277535Y0171115D01*
X0277590Y0171088D01*
X0277645Y0171065D01*
X0277702Y0171045D01*
X0277761Y0171029D01*
X0277820Y0171016D01*
X0277879Y0171007D01*
X0277940Y0171002D01*
X0278000Y0171000D01*
X0284000Y0171000D01*
X0284060Y0171002D01*
X0284121Y0171007D01*
X0284180Y0171016D01*
X0284239Y0171029D01*
X0284298Y0171045D01*
X0284355Y0171065D01*
X0284410Y0171088D01*
X0284465Y0171115D01*
X0284517Y0171144D01*
X0284568Y0171177D01*
X0284617Y0171213D01*
X0284663Y0171251D01*
X0284707Y0171293D01*
X0284749Y0171337D01*
X0284787Y0171383D01*
X0284823Y0171432D01*
X0284856Y0171483D01*
X0284885Y0171535D01*
X0284912Y0171590D01*
X0284935Y0171645D01*
X0284955Y0171702D01*
X0284971Y0171761D01*
X0284984Y0171820D01*
X0284993Y0171879D01*
X0284998Y0171940D01*
X0285000Y0172000D01*
X0328000Y0191000D02*
X0344000Y0191000D01*
X0344000Y0201000D01*
X0328000Y0201000D01*
X0328000Y0191000D01*
X0332000Y0193500D02*
X0336000Y0196000D01*
X0336000Y0198500D01*
X0336000Y0196000D02*
X0330000Y0196000D01*
X0332000Y0193500D02*
X0332000Y0198500D01*
X0336000Y0196000D01*
X0336000Y0193500D01*
X0336000Y0196000D02*
X0338500Y0196000D01*
D12*
X0339800Y0129000D02*
X0339800Y0123000D01*
X0342300Y0123000D02*
X0342300Y0129000D01*
X0319000Y0072200D02*
X0313000Y0072200D01*
X0313000Y0069700D02*
X0319000Y0069700D01*
X0222300Y0123000D02*
X0222300Y0129000D01*
X0219800Y0129000D02*
X0219800Y0123000D01*
X0204000Y0072200D02*
X0198000Y0072200D01*
X0198000Y0069700D02*
X0204000Y0069700D01*
X0097300Y0123000D02*
X0097300Y0129000D01*
X0094800Y0129000D02*
X0094800Y0123000D01*
X0079000Y0072200D02*
X0073000Y0072200D01*
X0073000Y0069700D02*
X0079000Y0069700D01*
D13*
X0081750Y0072485D02*
X0081750Y0073485D01*
X0081750Y0072485D02*
X0081752Y0072425D01*
X0081757Y0072364D01*
X0081766Y0072305D01*
X0081779Y0072246D01*
X0081795Y0072187D01*
X0081815Y0072130D01*
X0081838Y0072075D01*
X0081865Y0072020D01*
X0081894Y0071968D01*
X0081927Y0071917D01*
X0081963Y0071868D01*
X0082001Y0071822D01*
X0082043Y0071778D01*
X0082087Y0071736D01*
X0082133Y0071698D01*
X0082182Y0071662D01*
X0082233Y0071629D01*
X0082285Y0071600D01*
X0082340Y0071573D01*
X0082395Y0071550D01*
X0082452Y0071530D01*
X0082511Y0071514D01*
X0082570Y0071501D01*
X0082629Y0071492D01*
X0082690Y0071487D01*
X0082750Y0071485D01*
X0085250Y0071485D01*
X0085310Y0071487D01*
X0085371Y0071492D01*
X0085430Y0071501D01*
X0085489Y0071514D01*
X0085548Y0071530D01*
X0085605Y0071550D01*
X0085660Y0071573D01*
X0085715Y0071600D01*
X0085767Y0071629D01*
X0085818Y0071662D01*
X0085867Y0071698D01*
X0085913Y0071736D01*
X0085957Y0071778D01*
X0085999Y0071822D01*
X0086037Y0071868D01*
X0086073Y0071917D01*
X0086106Y0071968D01*
X0086135Y0072020D01*
X0086162Y0072075D01*
X0086185Y0072130D01*
X0086205Y0072187D01*
X0086221Y0072246D01*
X0086234Y0072305D01*
X0086243Y0072364D01*
X0086248Y0072425D01*
X0086250Y0072485D01*
X0086250Y0073485D01*
X0086250Y0075750D02*
X0086248Y0075837D01*
X0086242Y0075924D01*
X0086233Y0076011D01*
X0086220Y0076097D01*
X0086203Y0076183D01*
X0086182Y0076268D01*
X0086157Y0076351D01*
X0086129Y0076434D01*
X0086098Y0076515D01*
X0086063Y0076595D01*
X0086024Y0076673D01*
X0085982Y0076750D01*
X0085937Y0076825D01*
X0085888Y0076897D01*
X0085837Y0076968D01*
X0085782Y0077036D01*
X0085725Y0077101D01*
X0085664Y0077164D01*
X0085601Y0077225D01*
X0085536Y0077282D01*
X0085468Y0077337D01*
X0085397Y0077388D01*
X0085325Y0077437D01*
X0085250Y0077482D01*
X0085173Y0077524D01*
X0085095Y0077563D01*
X0085015Y0077598D01*
X0084934Y0077629D01*
X0084851Y0077657D01*
X0084768Y0077682D01*
X0084683Y0077703D01*
X0084597Y0077720D01*
X0084511Y0077733D01*
X0084424Y0077742D01*
X0084337Y0077748D01*
X0084250Y0077750D01*
X0083000Y0077750D01*
X0082931Y0077748D01*
X0082862Y0077742D01*
X0082794Y0077733D01*
X0082727Y0077720D01*
X0082660Y0077703D01*
X0082594Y0077682D01*
X0082530Y0077658D01*
X0082467Y0077630D01*
X0082405Y0077599D01*
X0082345Y0077565D01*
X0082288Y0077527D01*
X0082232Y0077486D01*
X0082179Y0077443D01*
X0082128Y0077396D01*
X0082080Y0077347D01*
X0082035Y0077295D01*
X0081993Y0077240D01*
X0081954Y0077184D01*
X0081917Y0077125D01*
X0081885Y0077064D01*
X0081855Y0077002D01*
X0081829Y0076938D01*
X0081807Y0076873D01*
X0081788Y0076807D01*
X0081773Y0076740D01*
X0081762Y0076672D01*
X0081754Y0076603D01*
X0081750Y0076534D01*
X0081750Y0076466D01*
X0081754Y0076397D01*
X0081762Y0076328D01*
X0081773Y0076260D01*
X0081788Y0076193D01*
X0081807Y0076127D01*
X0081829Y0076062D01*
X0081855Y0075998D01*
X0081885Y0075936D01*
X0081917Y0075875D01*
X0081954Y0075816D01*
X0081993Y0075760D01*
X0082035Y0075705D01*
X0082080Y0075653D01*
X0082128Y0075604D01*
X0082179Y0075557D01*
X0082232Y0075514D01*
X0082288Y0075473D01*
X0082345Y0075435D01*
X0082405Y0075401D01*
X0082467Y0075370D01*
X0082530Y0075342D01*
X0082594Y0075318D01*
X0082660Y0075297D01*
X0082727Y0075280D01*
X0082794Y0075267D01*
X0082862Y0075258D01*
X0082931Y0075252D01*
X0083000Y0075250D01*
X0083250Y0075250D01*
X0083310Y0075252D01*
X0083371Y0075257D01*
X0083430Y0075266D01*
X0083489Y0075279D01*
X0083548Y0075295D01*
X0083605Y0075315D01*
X0083660Y0075338D01*
X0083715Y0075365D01*
X0083767Y0075394D01*
X0083818Y0075427D01*
X0083867Y0075463D01*
X0083913Y0075501D01*
X0083957Y0075543D01*
X0083999Y0075587D01*
X0084037Y0075633D01*
X0084073Y0075682D01*
X0084106Y0075733D01*
X0084135Y0075785D01*
X0084162Y0075840D01*
X0084185Y0075895D01*
X0084205Y0075952D01*
X0084221Y0076011D01*
X0084234Y0076070D01*
X0084243Y0076129D01*
X0084248Y0076190D01*
X0084250Y0076250D01*
X0084250Y0077750D01*
X0058250Y0077750D02*
X0058250Y0076250D01*
X0058250Y0077750D02*
X0058248Y0077810D01*
X0058243Y0077871D01*
X0058234Y0077930D01*
X0058221Y0077989D01*
X0058205Y0078048D01*
X0058185Y0078105D01*
X0058162Y0078160D01*
X0058135Y0078215D01*
X0058106Y0078267D01*
X0058073Y0078318D01*
X0058037Y0078367D01*
X0057999Y0078413D01*
X0057957Y0078457D01*
X0057913Y0078499D01*
X0057867Y0078537D01*
X0057818Y0078573D01*
X0057767Y0078606D01*
X0057715Y0078635D01*
X0057660Y0078662D01*
X0057605Y0078685D01*
X0057548Y0078705D01*
X0057489Y0078721D01*
X0057430Y0078734D01*
X0057371Y0078743D01*
X0057310Y0078748D01*
X0057250Y0078750D01*
X0056750Y0078750D01*
X0056690Y0078748D01*
X0056629Y0078743D01*
X0056570Y0078734D01*
X0056511Y0078721D01*
X0056452Y0078705D01*
X0056395Y0078685D01*
X0056340Y0078662D01*
X0056285Y0078635D01*
X0056233Y0078606D01*
X0056182Y0078573D01*
X0056133Y0078537D01*
X0056087Y0078499D01*
X0056043Y0078457D01*
X0056001Y0078413D01*
X0055963Y0078367D01*
X0055927Y0078318D01*
X0055894Y0078267D01*
X0055865Y0078215D01*
X0055838Y0078160D01*
X0055815Y0078105D01*
X0055795Y0078048D01*
X0055779Y0077989D01*
X0055766Y0077930D01*
X0055757Y0077871D01*
X0055752Y0077810D01*
X0055750Y0077750D01*
X0055750Y0076250D01*
X0053750Y0076250D01*
X0053750Y0078750D01*
X0053750Y0073000D02*
X0058250Y0073000D01*
X0058250Y0071750D02*
X0058250Y0074250D01*
X0054750Y0071750D02*
X0053750Y0073000D01*
X0056250Y0068783D02*
X0058250Y0069783D01*
X0056250Y0068533D02*
X0056250Y0067283D01*
X0056250Y0068533D02*
X0056248Y0068602D01*
X0056242Y0068671D01*
X0056233Y0068739D01*
X0056220Y0068806D01*
X0056203Y0068873D01*
X0056182Y0068939D01*
X0056158Y0069003D01*
X0056130Y0069066D01*
X0056099Y0069128D01*
X0056065Y0069188D01*
X0056027Y0069245D01*
X0055986Y0069301D01*
X0055943Y0069354D01*
X0055896Y0069405D01*
X0055847Y0069453D01*
X0055795Y0069498D01*
X0055740Y0069540D01*
X0055684Y0069579D01*
X0055625Y0069616D01*
X0055564Y0069648D01*
X0055502Y0069678D01*
X0055438Y0069704D01*
X0055373Y0069726D01*
X0055307Y0069745D01*
X0055240Y0069760D01*
X0055172Y0069771D01*
X0055103Y0069779D01*
X0055034Y0069783D01*
X0054966Y0069783D01*
X0054897Y0069779D01*
X0054828Y0069771D01*
X0054760Y0069760D01*
X0054693Y0069745D01*
X0054627Y0069726D01*
X0054562Y0069704D01*
X0054498Y0069678D01*
X0054436Y0069648D01*
X0054375Y0069616D01*
X0054316Y0069579D01*
X0054260Y0069540D01*
X0054205Y0069498D01*
X0054153Y0069453D01*
X0054104Y0069405D01*
X0054057Y0069354D01*
X0054014Y0069301D01*
X0053973Y0069245D01*
X0053935Y0069188D01*
X0053901Y0069128D01*
X0053870Y0069066D01*
X0053842Y0069003D01*
X0053818Y0068939D01*
X0053797Y0068873D01*
X0053780Y0068806D01*
X0053767Y0068739D01*
X0053758Y0068671D01*
X0053752Y0068602D01*
X0053750Y0068533D01*
X0053750Y0067283D01*
X0058250Y0067283D01*
X0047750Y0062800D02*
X0047750Y0061550D01*
X0047750Y0062800D02*
X0047748Y0062869D01*
X0047742Y0062938D01*
X0047733Y0063006D01*
X0047720Y0063073D01*
X0047703Y0063140D01*
X0047682Y0063206D01*
X0047658Y0063270D01*
X0047630Y0063333D01*
X0047599Y0063395D01*
X0047565Y0063455D01*
X0047527Y0063512D01*
X0047486Y0063568D01*
X0047443Y0063621D01*
X0047396Y0063672D01*
X0047347Y0063720D01*
X0047295Y0063765D01*
X0047240Y0063807D01*
X0047184Y0063846D01*
X0047125Y0063883D01*
X0047064Y0063915D01*
X0047002Y0063945D01*
X0046938Y0063971D01*
X0046873Y0063993D01*
X0046807Y0064012D01*
X0046740Y0064027D01*
X0046672Y0064038D01*
X0046603Y0064046D01*
X0046534Y0064050D01*
X0046466Y0064050D01*
X0046397Y0064046D01*
X0046328Y0064038D01*
X0046260Y0064027D01*
X0046193Y0064012D01*
X0046127Y0063993D01*
X0046062Y0063971D01*
X0045998Y0063945D01*
X0045936Y0063915D01*
X0045875Y0063883D01*
X0045816Y0063846D01*
X0045760Y0063807D01*
X0045705Y0063765D01*
X0045653Y0063720D01*
X0045604Y0063672D01*
X0045557Y0063621D01*
X0045514Y0063568D01*
X0045473Y0063512D01*
X0045435Y0063455D01*
X0045401Y0063395D01*
X0045370Y0063333D01*
X0045342Y0063270D01*
X0045318Y0063206D01*
X0045297Y0063140D01*
X0045280Y0063073D01*
X0045267Y0063006D01*
X0045258Y0062938D01*
X0045252Y0062869D01*
X0045250Y0062800D01*
X0045250Y0063050D02*
X0045250Y0062050D01*
X0045250Y0063050D02*
X0045248Y0063112D01*
X0045242Y0063173D01*
X0045233Y0063234D01*
X0045220Y0063294D01*
X0045203Y0063353D01*
X0045182Y0063411D01*
X0045158Y0063468D01*
X0045131Y0063523D01*
X0045100Y0063576D01*
X0045066Y0063628D01*
X0045029Y0063677D01*
X0044989Y0063724D01*
X0044946Y0063768D01*
X0044901Y0063809D01*
X0044853Y0063848D01*
X0044802Y0063884D01*
X0044750Y0063916D01*
X0044696Y0063945D01*
X0044640Y0063971D01*
X0044582Y0063993D01*
X0044524Y0064012D01*
X0044464Y0064027D01*
X0044403Y0064038D01*
X0044342Y0064046D01*
X0044281Y0064050D01*
X0044219Y0064050D01*
X0044158Y0064046D01*
X0044097Y0064038D01*
X0044036Y0064027D01*
X0043976Y0064012D01*
X0043918Y0063993D01*
X0043860Y0063971D01*
X0043804Y0063945D01*
X0043750Y0063916D01*
X0043698Y0063884D01*
X0043647Y0063848D01*
X0043599Y0063809D01*
X0043554Y0063768D01*
X0043511Y0063724D01*
X0043471Y0063677D01*
X0043434Y0063628D01*
X0043400Y0063576D01*
X0043369Y0063523D01*
X0043342Y0063468D01*
X0043318Y0063411D01*
X0043297Y0063353D01*
X0043280Y0063294D01*
X0043267Y0063234D01*
X0043258Y0063173D01*
X0043252Y0063112D01*
X0043250Y0063050D01*
X0043250Y0061550D01*
X0033250Y0057250D02*
X0033250Y0054750D01*
X0033250Y0056000D02*
X0028750Y0056000D01*
X0029750Y0054750D01*
X0028250Y0075250D02*
X0028250Y0076750D01*
X0028252Y0076812D01*
X0028258Y0076873D01*
X0028267Y0076934D01*
X0028280Y0076994D01*
X0028297Y0077053D01*
X0028318Y0077111D01*
X0028342Y0077168D01*
X0028369Y0077223D01*
X0028400Y0077276D01*
X0028434Y0077328D01*
X0028471Y0077377D01*
X0028511Y0077424D01*
X0028554Y0077468D01*
X0028599Y0077509D01*
X0028647Y0077548D01*
X0028698Y0077584D01*
X0028750Y0077616D01*
X0028804Y0077645D01*
X0028860Y0077671D01*
X0028918Y0077693D01*
X0028976Y0077712D01*
X0029036Y0077727D01*
X0029097Y0077738D01*
X0029158Y0077746D01*
X0029219Y0077750D01*
X0029281Y0077750D01*
X0029342Y0077746D01*
X0029403Y0077738D01*
X0029464Y0077727D01*
X0029524Y0077712D01*
X0029582Y0077693D01*
X0029640Y0077671D01*
X0029696Y0077645D01*
X0029750Y0077616D01*
X0029802Y0077584D01*
X0029853Y0077548D01*
X0029901Y0077509D01*
X0029946Y0077468D01*
X0029989Y0077424D01*
X0030029Y0077377D01*
X0030066Y0077328D01*
X0030100Y0077276D01*
X0030131Y0077223D01*
X0030158Y0077168D01*
X0030182Y0077111D01*
X0030203Y0077053D01*
X0030220Y0076994D01*
X0030233Y0076934D01*
X0030242Y0076873D01*
X0030248Y0076812D01*
X0030250Y0076750D01*
X0030250Y0075750D01*
X0030250Y0076500D02*
X0030252Y0076569D01*
X0030258Y0076638D01*
X0030267Y0076706D01*
X0030280Y0076773D01*
X0030297Y0076840D01*
X0030318Y0076906D01*
X0030342Y0076970D01*
X0030370Y0077033D01*
X0030401Y0077095D01*
X0030435Y0077155D01*
X0030473Y0077212D01*
X0030514Y0077268D01*
X0030557Y0077321D01*
X0030604Y0077372D01*
X0030653Y0077420D01*
X0030705Y0077465D01*
X0030760Y0077507D01*
X0030816Y0077546D01*
X0030875Y0077583D01*
X0030936Y0077615D01*
X0030998Y0077645D01*
X0031062Y0077671D01*
X0031127Y0077693D01*
X0031193Y0077712D01*
X0031260Y0077727D01*
X0031328Y0077738D01*
X0031397Y0077746D01*
X0031466Y0077750D01*
X0031534Y0077750D01*
X0031603Y0077746D01*
X0031672Y0077738D01*
X0031740Y0077727D01*
X0031807Y0077712D01*
X0031873Y0077693D01*
X0031938Y0077671D01*
X0032002Y0077645D01*
X0032064Y0077615D01*
X0032125Y0077583D01*
X0032184Y0077546D01*
X0032240Y0077507D01*
X0032295Y0077465D01*
X0032347Y0077420D01*
X0032396Y0077372D01*
X0032443Y0077321D01*
X0032486Y0077268D01*
X0032527Y0077212D01*
X0032565Y0077155D01*
X0032599Y0077095D01*
X0032630Y0077033D01*
X0032658Y0076970D01*
X0032682Y0076906D01*
X0032703Y0076840D01*
X0032720Y0076773D01*
X0032733Y0076706D01*
X0032742Y0076638D01*
X0032748Y0076569D01*
X0032750Y0076500D01*
X0032750Y0075250D01*
X0034750Y0099750D02*
X0034750Y0100750D01*
X0034750Y0100250D02*
X0030250Y0100250D01*
X0030250Y0099750D02*
X0030250Y0100750D01*
X0031250Y0102585D02*
X0033750Y0102585D01*
X0033810Y0102587D01*
X0033871Y0102592D01*
X0033930Y0102601D01*
X0033989Y0102614D01*
X0034048Y0102630D01*
X0034105Y0102650D01*
X0034160Y0102673D01*
X0034215Y0102700D01*
X0034267Y0102729D01*
X0034318Y0102762D01*
X0034367Y0102798D01*
X0034413Y0102836D01*
X0034457Y0102878D01*
X0034499Y0102922D01*
X0034537Y0102968D01*
X0034573Y0103017D01*
X0034606Y0103068D01*
X0034635Y0103120D01*
X0034662Y0103175D01*
X0034685Y0103230D01*
X0034705Y0103287D01*
X0034721Y0103346D01*
X0034734Y0103405D01*
X0034743Y0103464D01*
X0034748Y0103525D01*
X0034750Y0103585D01*
X0034750Y0104585D01*
X0034750Y0106350D02*
X0034750Y0107850D01*
X0034748Y0107910D01*
X0034743Y0107971D01*
X0034734Y0108030D01*
X0034721Y0108089D01*
X0034705Y0108148D01*
X0034685Y0108205D01*
X0034662Y0108260D01*
X0034635Y0108315D01*
X0034606Y0108367D01*
X0034573Y0108418D01*
X0034537Y0108467D01*
X0034499Y0108513D01*
X0034457Y0108557D01*
X0034413Y0108599D01*
X0034367Y0108637D01*
X0034318Y0108673D01*
X0034267Y0108706D01*
X0034215Y0108735D01*
X0034160Y0108762D01*
X0034105Y0108785D01*
X0034048Y0108805D01*
X0033989Y0108821D01*
X0033930Y0108834D01*
X0033871Y0108843D01*
X0033810Y0108848D01*
X0033750Y0108850D01*
X0033250Y0108850D01*
X0033190Y0108848D01*
X0033129Y0108843D01*
X0033070Y0108834D01*
X0033011Y0108821D01*
X0032952Y0108805D01*
X0032895Y0108785D01*
X0032840Y0108762D01*
X0032785Y0108735D01*
X0032733Y0108706D01*
X0032682Y0108673D01*
X0032633Y0108637D01*
X0032587Y0108599D01*
X0032543Y0108557D01*
X0032501Y0108513D01*
X0032463Y0108467D01*
X0032427Y0108418D01*
X0032394Y0108367D01*
X0032365Y0108315D01*
X0032338Y0108260D01*
X0032315Y0108205D01*
X0032295Y0108148D01*
X0032279Y0108089D01*
X0032266Y0108030D01*
X0032257Y0107971D01*
X0032252Y0107910D01*
X0032250Y0107850D01*
X0032250Y0106350D01*
X0030250Y0106350D01*
X0030250Y0108850D01*
X0030250Y0104585D02*
X0030250Y0103585D01*
X0030252Y0103525D01*
X0030257Y0103464D01*
X0030266Y0103405D01*
X0030279Y0103346D01*
X0030295Y0103287D01*
X0030315Y0103230D01*
X0030338Y0103175D01*
X0030365Y0103120D01*
X0030394Y0103068D01*
X0030427Y0103017D01*
X0030463Y0102968D01*
X0030501Y0102922D01*
X0030543Y0102878D01*
X0030587Y0102836D01*
X0030633Y0102798D01*
X0030682Y0102762D01*
X0030733Y0102729D01*
X0030785Y0102700D01*
X0030840Y0102673D01*
X0030895Y0102650D01*
X0030952Y0102630D01*
X0031011Y0102614D01*
X0031070Y0102601D01*
X0031129Y0102592D01*
X0031190Y0102587D01*
X0031250Y0102585D01*
X0089250Y0132750D02*
X0089250Y0135250D01*
X0089252Y0135310D01*
X0089257Y0135371D01*
X0089266Y0135430D01*
X0089279Y0135489D01*
X0089295Y0135548D01*
X0089315Y0135605D01*
X0089338Y0135660D01*
X0089365Y0135715D01*
X0089394Y0135767D01*
X0089427Y0135818D01*
X0089463Y0135867D01*
X0089501Y0135913D01*
X0089543Y0135957D01*
X0089587Y0135999D01*
X0089633Y0136037D01*
X0089682Y0136073D01*
X0089733Y0136106D01*
X0089785Y0136135D01*
X0089840Y0136162D01*
X0089895Y0136185D01*
X0089952Y0136205D01*
X0090011Y0136221D01*
X0090070Y0136234D01*
X0090129Y0136243D01*
X0090190Y0136248D01*
X0090250Y0136250D01*
X0091250Y0136250D01*
X0093015Y0135250D02*
X0094265Y0136250D01*
X0094265Y0131750D01*
X0093015Y0131750D02*
X0095515Y0131750D01*
X0099639Y0132375D02*
X0099690Y0132484D01*
X0099737Y0132594D01*
X0099781Y0132706D01*
X0099821Y0132820D01*
X0099857Y0132934D01*
X0099890Y0133050D01*
X0099919Y0133166D01*
X0099944Y0133284D01*
X0099965Y0133402D01*
X0099983Y0133521D01*
X0099996Y0133640D01*
X0100006Y0133760D01*
X0100012Y0133880D01*
X0100014Y0134000D01*
X0097515Y0134000D02*
X0097517Y0133880D01*
X0097523Y0133760D01*
X0097533Y0133640D01*
X0097546Y0133521D01*
X0097564Y0133402D01*
X0097585Y0133284D01*
X0097610Y0133166D01*
X0097639Y0133050D01*
X0097672Y0132934D01*
X0097708Y0132820D01*
X0097748Y0132706D01*
X0097792Y0132594D01*
X0097839Y0132484D01*
X0097890Y0132375D01*
X0097765Y0132750D02*
X0099765Y0135250D01*
X0099640Y0135625D02*
X0099619Y0135681D01*
X0099593Y0135736D01*
X0099565Y0135790D01*
X0099533Y0135841D01*
X0099498Y0135890D01*
X0099459Y0135936D01*
X0099418Y0135980D01*
X0099374Y0136022D01*
X0099327Y0136060D01*
X0099278Y0136095D01*
X0099226Y0136127D01*
X0099173Y0136155D01*
X0099118Y0136180D01*
X0099062Y0136201D01*
X0099004Y0136219D01*
X0098945Y0136232D01*
X0098885Y0136242D01*
X0098825Y0136248D01*
X0098765Y0136250D01*
X0098705Y0136248D01*
X0098645Y0136242D01*
X0098585Y0136232D01*
X0098526Y0136219D01*
X0098468Y0136201D01*
X0098412Y0136180D01*
X0098357Y0136155D01*
X0098304Y0136127D01*
X0098252Y0136095D01*
X0098203Y0136060D01*
X0098156Y0136022D01*
X0098112Y0135980D01*
X0098071Y0135936D01*
X0098032Y0135890D01*
X0097997Y0135841D01*
X0097965Y0135790D01*
X0097937Y0135736D01*
X0097911Y0135681D01*
X0097890Y0135625D01*
X0099639Y0135625D02*
X0099690Y0135516D01*
X0099737Y0135406D01*
X0099781Y0135294D01*
X0099821Y0135180D01*
X0099857Y0135066D01*
X0099890Y0134950D01*
X0099919Y0134834D01*
X0099944Y0134716D01*
X0099965Y0134598D01*
X0099983Y0134479D01*
X0099996Y0134360D01*
X0100006Y0134240D01*
X0100012Y0134120D01*
X0100014Y0134000D01*
X0097515Y0134000D02*
X0097517Y0134120D01*
X0097523Y0134240D01*
X0097533Y0134360D01*
X0097546Y0134479D01*
X0097564Y0134598D01*
X0097585Y0134716D01*
X0097610Y0134834D01*
X0097639Y0134950D01*
X0097672Y0135066D01*
X0097708Y0135180D01*
X0097748Y0135294D01*
X0097792Y0135406D01*
X0097839Y0135516D01*
X0097890Y0135625D01*
X0099640Y0132375D02*
X0099619Y0132319D01*
X0099593Y0132264D01*
X0099565Y0132210D01*
X0099533Y0132159D01*
X0099498Y0132110D01*
X0099459Y0132064D01*
X0099418Y0132020D01*
X0099374Y0131978D01*
X0099327Y0131940D01*
X0099278Y0131905D01*
X0099226Y0131873D01*
X0099173Y0131845D01*
X0099118Y0131820D01*
X0099062Y0131799D01*
X0099004Y0131781D01*
X0098945Y0131768D01*
X0098885Y0131758D01*
X0098825Y0131752D01*
X0098765Y0131750D01*
X0098705Y0131752D01*
X0098645Y0131758D01*
X0098585Y0131768D01*
X0098526Y0131781D01*
X0098468Y0131799D01*
X0098412Y0131820D01*
X0098357Y0131845D01*
X0098304Y0131873D01*
X0098252Y0131905D01*
X0098203Y0131940D01*
X0098156Y0131978D01*
X0098112Y0132020D01*
X0098071Y0132064D01*
X0098032Y0132110D01*
X0097997Y0132159D01*
X0097965Y0132210D01*
X0097937Y0132264D01*
X0097911Y0132319D01*
X0097890Y0132375D01*
X0091250Y0131750D02*
X0090250Y0131750D01*
X0090190Y0131752D01*
X0090129Y0131757D01*
X0090070Y0131766D01*
X0090011Y0131779D01*
X0089952Y0131795D01*
X0089895Y0131815D01*
X0089840Y0131838D01*
X0089785Y0131865D01*
X0089733Y0131894D01*
X0089682Y0131927D01*
X0089633Y0131963D01*
X0089587Y0132001D01*
X0089543Y0132043D01*
X0089501Y0132087D01*
X0089463Y0132133D01*
X0089427Y0132182D01*
X0089394Y0132233D01*
X0089365Y0132285D01*
X0089338Y0132340D01*
X0089315Y0132395D01*
X0089295Y0132452D01*
X0089279Y0132511D01*
X0089266Y0132570D01*
X0089257Y0132629D01*
X0089252Y0132690D01*
X0089250Y0132750D01*
X0096600Y0184750D02*
X0097850Y0184750D01*
X0097918Y0184752D01*
X0097985Y0184757D01*
X0098052Y0184766D01*
X0098119Y0184779D01*
X0098184Y0184796D01*
X0098249Y0184815D01*
X0098313Y0184839D01*
X0098375Y0184866D01*
X0098436Y0184896D01*
X0098494Y0184929D01*
X0098551Y0184965D01*
X0098606Y0185005D01*
X0098659Y0185047D01*
X0098710Y0185093D01*
X0098757Y0185140D01*
X0098803Y0185191D01*
X0098845Y0185244D01*
X0098885Y0185299D01*
X0098921Y0185356D01*
X0098954Y0185414D01*
X0098984Y0185475D01*
X0099011Y0185537D01*
X0099035Y0185601D01*
X0099054Y0185666D01*
X0099071Y0185731D01*
X0099084Y0185798D01*
X0099093Y0185865D01*
X0099098Y0185932D01*
X0099100Y0186000D01*
X0099100Y0188000D01*
X0099098Y0188068D01*
X0099093Y0188135D01*
X0099084Y0188202D01*
X0099071Y0188269D01*
X0099054Y0188334D01*
X0099035Y0188399D01*
X0099011Y0188463D01*
X0098984Y0188525D01*
X0098954Y0188586D01*
X0098921Y0188644D01*
X0098885Y0188701D01*
X0098845Y0188756D01*
X0098803Y0188809D01*
X0098757Y0188860D01*
X0098710Y0188907D01*
X0098659Y0188953D01*
X0098606Y0188995D01*
X0098551Y0189035D01*
X0098494Y0189071D01*
X0098436Y0189104D01*
X0098375Y0189134D01*
X0098313Y0189161D01*
X0098249Y0189185D01*
X0098184Y0189204D01*
X0098119Y0189221D01*
X0098052Y0189234D01*
X0097985Y0189243D01*
X0097918Y0189248D01*
X0097850Y0189250D01*
X0096600Y0189250D01*
X0096600Y0184750D01*
X0101250Y0184750D02*
X0102750Y0184750D01*
X0102810Y0184752D01*
X0102871Y0184757D01*
X0102930Y0184766D01*
X0102989Y0184779D01*
X0103048Y0184795D01*
X0103105Y0184815D01*
X0103160Y0184838D01*
X0103215Y0184865D01*
X0103267Y0184894D01*
X0103318Y0184927D01*
X0103367Y0184963D01*
X0103413Y0185001D01*
X0103457Y0185043D01*
X0103499Y0185087D01*
X0103537Y0185133D01*
X0103573Y0185182D01*
X0103606Y0185233D01*
X0103635Y0185285D01*
X0103662Y0185340D01*
X0103685Y0185395D01*
X0103705Y0185452D01*
X0103721Y0185511D01*
X0103734Y0185570D01*
X0103743Y0185629D01*
X0103748Y0185690D01*
X0103750Y0185750D01*
X0103750Y0186250D01*
X0103748Y0186310D01*
X0103743Y0186371D01*
X0103734Y0186430D01*
X0103721Y0186489D01*
X0103705Y0186548D01*
X0103685Y0186605D01*
X0103662Y0186660D01*
X0103635Y0186715D01*
X0103606Y0186767D01*
X0103573Y0186818D01*
X0103537Y0186867D01*
X0103499Y0186913D01*
X0103457Y0186957D01*
X0103413Y0186999D01*
X0103367Y0187037D01*
X0103318Y0187073D01*
X0103267Y0187106D01*
X0103215Y0187135D01*
X0103160Y0187162D01*
X0103105Y0187185D01*
X0103048Y0187205D01*
X0102989Y0187221D01*
X0102930Y0187234D01*
X0102871Y0187243D01*
X0102810Y0187248D01*
X0102750Y0187250D01*
X0101250Y0187250D01*
X0101250Y0189250D01*
X0103750Y0189250D01*
X0159050Y0251250D02*
X0161550Y0251250D01*
X0160300Y0251250D02*
X0160300Y0255750D01*
X0159050Y0254750D01*
X0179050Y0251250D02*
X0181550Y0251250D01*
X0179050Y0251250D02*
X0181175Y0253750D01*
X0180425Y0255750D02*
X0180352Y0255748D01*
X0180280Y0255743D01*
X0180208Y0255734D01*
X0180136Y0255721D01*
X0180065Y0255705D01*
X0179995Y0255685D01*
X0179927Y0255661D01*
X0179859Y0255635D01*
X0179793Y0255604D01*
X0179728Y0255571D01*
X0179666Y0255534D01*
X0179605Y0255495D01*
X0179546Y0255452D01*
X0179489Y0255406D01*
X0179435Y0255358D01*
X0179384Y0255307D01*
X0179334Y0255253D01*
X0179288Y0255197D01*
X0179245Y0255139D01*
X0179204Y0255078D01*
X0179167Y0255016D01*
X0179133Y0254952D01*
X0179102Y0254886D01*
X0179074Y0254819D01*
X0179050Y0254750D01*
X0181175Y0253750D02*
X0181221Y0253796D01*
X0181265Y0253845D01*
X0181305Y0253896D01*
X0181343Y0253949D01*
X0181378Y0254004D01*
X0181410Y0254061D01*
X0181439Y0254119D01*
X0181465Y0254179D01*
X0181487Y0254241D01*
X0181506Y0254303D01*
X0181522Y0254366D01*
X0181534Y0254430D01*
X0181543Y0254495D01*
X0181548Y0254560D01*
X0181550Y0254625D01*
X0181548Y0254690D01*
X0181542Y0254756D01*
X0181533Y0254820D01*
X0181520Y0254884D01*
X0181503Y0254948D01*
X0181482Y0255010D01*
X0181458Y0255071D01*
X0181430Y0255130D01*
X0181399Y0255188D01*
X0181365Y0255243D01*
X0181327Y0255297D01*
X0181287Y0255348D01*
X0181243Y0255397D01*
X0181197Y0255443D01*
X0181148Y0255487D01*
X0181097Y0255527D01*
X0181043Y0255565D01*
X0180988Y0255599D01*
X0180930Y0255630D01*
X0180871Y0255658D01*
X0180810Y0255682D01*
X0180748Y0255703D01*
X0180684Y0255720D01*
X0180620Y0255733D01*
X0180556Y0255742D01*
X0180490Y0255748D01*
X0180425Y0255750D01*
X0198450Y0255750D02*
X0199950Y0255750D01*
X0200012Y0255748D01*
X0200073Y0255742D01*
X0200134Y0255733D01*
X0200194Y0255720D01*
X0200253Y0255703D01*
X0200311Y0255682D01*
X0200368Y0255658D01*
X0200423Y0255631D01*
X0200476Y0255600D01*
X0200528Y0255566D01*
X0200577Y0255529D01*
X0200624Y0255489D01*
X0200668Y0255446D01*
X0200709Y0255401D01*
X0200748Y0255353D01*
X0200784Y0255302D01*
X0200816Y0255250D01*
X0200845Y0255196D01*
X0200871Y0255140D01*
X0200893Y0255082D01*
X0200912Y0255024D01*
X0200927Y0254964D01*
X0200938Y0254903D01*
X0200946Y0254842D01*
X0200950Y0254781D01*
X0200950Y0254719D01*
X0200946Y0254658D01*
X0200938Y0254597D01*
X0200927Y0254536D01*
X0200912Y0254476D01*
X0200893Y0254418D01*
X0200871Y0254360D01*
X0200845Y0254304D01*
X0200816Y0254250D01*
X0200784Y0254198D01*
X0200748Y0254147D01*
X0200709Y0254099D01*
X0200668Y0254054D01*
X0200624Y0254011D01*
X0200577Y0253971D01*
X0200528Y0253934D01*
X0200476Y0253900D01*
X0200423Y0253869D01*
X0200368Y0253842D01*
X0200311Y0253818D01*
X0200253Y0253797D01*
X0200194Y0253780D01*
X0200134Y0253767D01*
X0200073Y0253758D01*
X0200012Y0253752D01*
X0199950Y0253750D01*
X0198950Y0253750D01*
X0199700Y0253750D02*
X0199769Y0253748D01*
X0199838Y0253742D01*
X0199906Y0253733D01*
X0199973Y0253720D01*
X0200040Y0253703D01*
X0200106Y0253682D01*
X0200170Y0253658D01*
X0200233Y0253630D01*
X0200295Y0253599D01*
X0200355Y0253565D01*
X0200412Y0253527D01*
X0200468Y0253486D01*
X0200521Y0253443D01*
X0200572Y0253396D01*
X0200620Y0253347D01*
X0200665Y0253295D01*
X0200707Y0253240D01*
X0200746Y0253184D01*
X0200783Y0253125D01*
X0200815Y0253064D01*
X0200845Y0253002D01*
X0200871Y0252938D01*
X0200893Y0252873D01*
X0200912Y0252807D01*
X0200927Y0252740D01*
X0200938Y0252672D01*
X0200946Y0252603D01*
X0200950Y0252534D01*
X0200950Y0252466D01*
X0200946Y0252397D01*
X0200938Y0252328D01*
X0200927Y0252260D01*
X0200912Y0252193D01*
X0200893Y0252127D01*
X0200871Y0252062D01*
X0200845Y0251998D01*
X0200815Y0251936D01*
X0200783Y0251875D01*
X0200746Y0251816D01*
X0200707Y0251760D01*
X0200665Y0251705D01*
X0200620Y0251653D01*
X0200572Y0251604D01*
X0200521Y0251557D01*
X0200468Y0251514D01*
X0200412Y0251473D01*
X0200355Y0251435D01*
X0200295Y0251401D01*
X0200233Y0251370D01*
X0200170Y0251342D01*
X0200106Y0251318D01*
X0200040Y0251297D01*
X0199973Y0251280D01*
X0199906Y0251267D01*
X0199838Y0251258D01*
X0199769Y0251252D01*
X0199700Y0251250D01*
X0198450Y0251250D01*
X0218450Y0252250D02*
X0220950Y0252250D01*
X0220200Y0253250D02*
X0220200Y0251250D01*
X0218450Y0252250D02*
X0219450Y0255750D01*
X0238450Y0255750D02*
X0240950Y0255750D01*
X0239950Y0253750D02*
X0238450Y0253750D01*
X0238450Y0255750D01*
X0239950Y0253750D02*
X0240010Y0253748D01*
X0240071Y0253743D01*
X0240130Y0253734D01*
X0240189Y0253721D01*
X0240248Y0253705D01*
X0240305Y0253685D01*
X0240360Y0253662D01*
X0240415Y0253635D01*
X0240467Y0253606D01*
X0240518Y0253573D01*
X0240567Y0253537D01*
X0240613Y0253499D01*
X0240657Y0253457D01*
X0240699Y0253413D01*
X0240737Y0253367D01*
X0240773Y0253318D01*
X0240806Y0253267D01*
X0240835Y0253215D01*
X0240862Y0253160D01*
X0240885Y0253105D01*
X0240905Y0253048D01*
X0240921Y0252989D01*
X0240934Y0252930D01*
X0240943Y0252871D01*
X0240948Y0252810D01*
X0240950Y0252750D01*
X0240950Y0252250D01*
X0240948Y0252190D01*
X0240943Y0252129D01*
X0240934Y0252070D01*
X0240921Y0252011D01*
X0240905Y0251952D01*
X0240885Y0251895D01*
X0240862Y0251840D01*
X0240835Y0251785D01*
X0240806Y0251733D01*
X0240773Y0251682D01*
X0240737Y0251633D01*
X0240699Y0251587D01*
X0240657Y0251543D01*
X0240613Y0251501D01*
X0240567Y0251463D01*
X0240518Y0251427D01*
X0240467Y0251394D01*
X0240415Y0251365D01*
X0240360Y0251338D01*
X0240305Y0251315D01*
X0240248Y0251295D01*
X0240189Y0251279D01*
X0240130Y0251266D01*
X0240071Y0251257D01*
X0240010Y0251252D01*
X0239950Y0251250D01*
X0238450Y0251250D01*
X0227500Y0189250D02*
X0227500Y0184750D01*
X0226250Y0184750D02*
X0228750Y0184750D01*
X0226250Y0188250D02*
X0227500Y0189250D01*
X0224100Y0188000D02*
X0224100Y0186000D01*
X0224098Y0185932D01*
X0224093Y0185865D01*
X0224084Y0185798D01*
X0224071Y0185731D01*
X0224054Y0185666D01*
X0224035Y0185601D01*
X0224011Y0185537D01*
X0223984Y0185475D01*
X0223954Y0185414D01*
X0223921Y0185356D01*
X0223885Y0185299D01*
X0223845Y0185244D01*
X0223803Y0185191D01*
X0223757Y0185140D01*
X0223710Y0185093D01*
X0223659Y0185047D01*
X0223606Y0185005D01*
X0223551Y0184965D01*
X0223494Y0184929D01*
X0223436Y0184896D01*
X0223375Y0184866D01*
X0223313Y0184839D01*
X0223249Y0184815D01*
X0223184Y0184796D01*
X0223119Y0184779D01*
X0223052Y0184766D01*
X0222985Y0184757D01*
X0222918Y0184752D01*
X0222850Y0184750D01*
X0221600Y0184750D01*
X0221600Y0189250D01*
X0222850Y0189250D01*
X0222918Y0189248D01*
X0222985Y0189243D01*
X0223052Y0189234D01*
X0223119Y0189221D01*
X0223184Y0189204D01*
X0223249Y0189185D01*
X0223313Y0189161D01*
X0223375Y0189134D01*
X0223436Y0189104D01*
X0223494Y0189071D01*
X0223551Y0189035D01*
X0223606Y0188995D01*
X0223659Y0188953D01*
X0223710Y0188907D01*
X0223757Y0188860D01*
X0223803Y0188809D01*
X0223845Y0188756D01*
X0223885Y0188701D01*
X0223921Y0188644D01*
X0223954Y0188586D01*
X0223984Y0188525D01*
X0224011Y0188463D01*
X0224035Y0188399D01*
X0224054Y0188334D01*
X0224071Y0188269D01*
X0224084Y0188202D01*
X0224093Y0188135D01*
X0224098Y0188068D01*
X0224100Y0188000D01*
X0216250Y0136250D02*
X0215250Y0136250D01*
X0215190Y0136248D01*
X0215129Y0136243D01*
X0215070Y0136234D01*
X0215011Y0136221D01*
X0214952Y0136205D01*
X0214895Y0136185D01*
X0214840Y0136162D01*
X0214785Y0136135D01*
X0214733Y0136106D01*
X0214682Y0136073D01*
X0214633Y0136037D01*
X0214587Y0135999D01*
X0214543Y0135957D01*
X0214501Y0135913D01*
X0214463Y0135867D01*
X0214427Y0135818D01*
X0214394Y0135767D01*
X0214365Y0135715D01*
X0214338Y0135660D01*
X0214315Y0135605D01*
X0214295Y0135548D01*
X0214279Y0135489D01*
X0214266Y0135430D01*
X0214257Y0135371D01*
X0214252Y0135310D01*
X0214250Y0135250D01*
X0214250Y0132750D01*
X0214252Y0132690D01*
X0214257Y0132629D01*
X0214266Y0132570D01*
X0214279Y0132511D01*
X0214295Y0132452D01*
X0214315Y0132395D01*
X0214338Y0132340D01*
X0214365Y0132285D01*
X0214394Y0132233D01*
X0214427Y0132182D01*
X0214463Y0132133D01*
X0214501Y0132087D01*
X0214543Y0132043D01*
X0214587Y0132001D01*
X0214633Y0131963D01*
X0214682Y0131927D01*
X0214733Y0131894D01*
X0214785Y0131865D01*
X0214840Y0131838D01*
X0214895Y0131815D01*
X0214952Y0131795D01*
X0215011Y0131779D01*
X0215070Y0131766D01*
X0215129Y0131757D01*
X0215190Y0131752D01*
X0215250Y0131750D01*
X0216250Y0131750D01*
X0218015Y0131750D02*
X0220140Y0134250D01*
X0219390Y0136250D02*
X0219317Y0136248D01*
X0219245Y0136243D01*
X0219173Y0136234D01*
X0219101Y0136221D01*
X0219030Y0136205D01*
X0218960Y0136185D01*
X0218892Y0136161D01*
X0218824Y0136135D01*
X0218758Y0136104D01*
X0218693Y0136071D01*
X0218631Y0136034D01*
X0218570Y0135995D01*
X0218511Y0135952D01*
X0218454Y0135906D01*
X0218400Y0135858D01*
X0218349Y0135807D01*
X0218299Y0135753D01*
X0218253Y0135697D01*
X0218210Y0135639D01*
X0218169Y0135578D01*
X0218132Y0135516D01*
X0218098Y0135452D01*
X0218067Y0135386D01*
X0218039Y0135319D01*
X0218015Y0135250D01*
X0220139Y0134250D02*
X0220185Y0134296D01*
X0220229Y0134345D01*
X0220269Y0134396D01*
X0220307Y0134449D01*
X0220342Y0134504D01*
X0220374Y0134561D01*
X0220403Y0134619D01*
X0220429Y0134679D01*
X0220451Y0134741D01*
X0220470Y0134803D01*
X0220486Y0134866D01*
X0220498Y0134930D01*
X0220507Y0134995D01*
X0220512Y0135060D01*
X0220514Y0135125D01*
X0220515Y0135125D02*
X0220513Y0135190D01*
X0220507Y0135256D01*
X0220498Y0135320D01*
X0220485Y0135384D01*
X0220468Y0135448D01*
X0220447Y0135510D01*
X0220423Y0135571D01*
X0220395Y0135630D01*
X0220364Y0135688D01*
X0220330Y0135743D01*
X0220292Y0135797D01*
X0220252Y0135848D01*
X0220208Y0135897D01*
X0220162Y0135943D01*
X0220113Y0135987D01*
X0220062Y0136027D01*
X0220008Y0136065D01*
X0219953Y0136099D01*
X0219895Y0136130D01*
X0219836Y0136158D01*
X0219775Y0136182D01*
X0219713Y0136203D01*
X0219649Y0136220D01*
X0219585Y0136233D01*
X0219521Y0136242D01*
X0219455Y0136248D01*
X0219390Y0136250D01*
X0220515Y0131750D02*
X0218015Y0131750D01*
X0270250Y0107725D02*
X0270252Y0107790D01*
X0270258Y0107856D01*
X0270267Y0107920D01*
X0270280Y0107984D01*
X0270297Y0108048D01*
X0270318Y0108110D01*
X0270342Y0108171D01*
X0270370Y0108230D01*
X0270401Y0108288D01*
X0270435Y0108343D01*
X0270473Y0108397D01*
X0270513Y0108448D01*
X0270557Y0108497D01*
X0270603Y0108543D01*
X0270652Y0108587D01*
X0270703Y0108627D01*
X0270757Y0108665D01*
X0270813Y0108699D01*
X0270870Y0108730D01*
X0270929Y0108758D01*
X0270990Y0108782D01*
X0271052Y0108803D01*
X0271116Y0108820D01*
X0271180Y0108833D01*
X0271244Y0108842D01*
X0271310Y0108848D01*
X0271375Y0108850D01*
X0272250Y0108475D02*
X0274750Y0106350D01*
X0274750Y0108850D01*
X0271250Y0106350D02*
X0271181Y0106374D01*
X0271114Y0106402D01*
X0271048Y0106433D01*
X0270984Y0106467D01*
X0270922Y0106504D01*
X0270861Y0106545D01*
X0270803Y0106588D01*
X0270747Y0106634D01*
X0270693Y0106684D01*
X0270642Y0106735D01*
X0270594Y0106789D01*
X0270548Y0106846D01*
X0270505Y0106905D01*
X0270466Y0106966D01*
X0270429Y0107028D01*
X0270396Y0107093D01*
X0270365Y0107159D01*
X0270339Y0107227D01*
X0270315Y0107295D01*
X0270295Y0107365D01*
X0270279Y0107436D01*
X0270266Y0107508D01*
X0270257Y0107580D01*
X0270252Y0107652D01*
X0270250Y0107725D01*
X0271375Y0108850D02*
X0271440Y0108848D01*
X0271505Y0108843D01*
X0271570Y0108834D01*
X0271634Y0108822D01*
X0271697Y0108806D01*
X0271759Y0108787D01*
X0271821Y0108765D01*
X0271881Y0108739D01*
X0271939Y0108710D01*
X0271996Y0108678D01*
X0272051Y0108643D01*
X0272104Y0108605D01*
X0272155Y0108565D01*
X0272204Y0108521D01*
X0272250Y0108475D01*
X0270250Y0104585D02*
X0270250Y0103585D01*
X0270252Y0103525D01*
X0270257Y0103464D01*
X0270266Y0103405D01*
X0270279Y0103346D01*
X0270295Y0103287D01*
X0270315Y0103230D01*
X0270338Y0103175D01*
X0270365Y0103120D01*
X0270394Y0103068D01*
X0270427Y0103017D01*
X0270463Y0102968D01*
X0270501Y0102922D01*
X0270543Y0102878D01*
X0270587Y0102836D01*
X0270633Y0102798D01*
X0270682Y0102762D01*
X0270733Y0102729D01*
X0270785Y0102700D01*
X0270840Y0102673D01*
X0270895Y0102650D01*
X0270952Y0102630D01*
X0271011Y0102614D01*
X0271070Y0102601D01*
X0271129Y0102592D01*
X0271190Y0102587D01*
X0271250Y0102585D01*
X0273750Y0102585D01*
X0273810Y0102587D01*
X0273871Y0102592D01*
X0273930Y0102601D01*
X0273989Y0102614D01*
X0274048Y0102630D01*
X0274105Y0102650D01*
X0274160Y0102673D01*
X0274215Y0102700D01*
X0274267Y0102729D01*
X0274318Y0102762D01*
X0274367Y0102798D01*
X0274413Y0102836D01*
X0274457Y0102878D01*
X0274499Y0102922D01*
X0274537Y0102968D01*
X0274573Y0103017D01*
X0274606Y0103068D01*
X0274635Y0103120D01*
X0274662Y0103175D01*
X0274685Y0103230D01*
X0274705Y0103287D01*
X0274721Y0103346D01*
X0274734Y0103405D01*
X0274743Y0103464D01*
X0274748Y0103525D01*
X0274750Y0103585D01*
X0274750Y0104585D01*
X0274750Y0100750D02*
X0274750Y0099750D01*
X0274750Y0100250D02*
X0270250Y0100250D01*
X0270250Y0099750D02*
X0270250Y0100750D01*
X0267750Y0076500D02*
X0267750Y0075250D01*
X0267750Y0076500D02*
X0267748Y0076569D01*
X0267742Y0076638D01*
X0267733Y0076706D01*
X0267720Y0076773D01*
X0267703Y0076840D01*
X0267682Y0076906D01*
X0267658Y0076970D01*
X0267630Y0077033D01*
X0267599Y0077095D01*
X0267565Y0077155D01*
X0267527Y0077212D01*
X0267486Y0077268D01*
X0267443Y0077321D01*
X0267396Y0077372D01*
X0267347Y0077420D01*
X0267295Y0077465D01*
X0267240Y0077507D01*
X0267184Y0077546D01*
X0267125Y0077583D01*
X0267064Y0077615D01*
X0267002Y0077645D01*
X0266938Y0077671D01*
X0266873Y0077693D01*
X0266807Y0077712D01*
X0266740Y0077727D01*
X0266672Y0077738D01*
X0266603Y0077746D01*
X0266534Y0077750D01*
X0266466Y0077750D01*
X0266397Y0077746D01*
X0266328Y0077738D01*
X0266260Y0077727D01*
X0266193Y0077712D01*
X0266127Y0077693D01*
X0266062Y0077671D01*
X0265998Y0077645D01*
X0265936Y0077615D01*
X0265875Y0077583D01*
X0265816Y0077546D01*
X0265760Y0077507D01*
X0265705Y0077465D01*
X0265653Y0077420D01*
X0265604Y0077372D01*
X0265557Y0077321D01*
X0265514Y0077268D01*
X0265473Y0077212D01*
X0265435Y0077155D01*
X0265401Y0077095D01*
X0265370Y0077033D01*
X0265342Y0076970D01*
X0265318Y0076906D01*
X0265297Y0076840D01*
X0265280Y0076773D01*
X0265267Y0076706D01*
X0265258Y0076638D01*
X0265252Y0076569D01*
X0265250Y0076500D01*
X0265250Y0076750D02*
X0265250Y0075750D01*
X0265250Y0076750D02*
X0265248Y0076812D01*
X0265242Y0076873D01*
X0265233Y0076934D01*
X0265220Y0076994D01*
X0265203Y0077053D01*
X0265182Y0077111D01*
X0265158Y0077168D01*
X0265131Y0077223D01*
X0265100Y0077276D01*
X0265066Y0077328D01*
X0265029Y0077377D01*
X0264989Y0077424D01*
X0264946Y0077468D01*
X0264901Y0077509D01*
X0264853Y0077548D01*
X0264802Y0077584D01*
X0264750Y0077616D01*
X0264696Y0077645D01*
X0264640Y0077671D01*
X0264582Y0077693D01*
X0264524Y0077712D01*
X0264464Y0077727D01*
X0264403Y0077738D01*
X0264342Y0077746D01*
X0264281Y0077750D01*
X0264219Y0077750D01*
X0264158Y0077746D01*
X0264097Y0077738D01*
X0264036Y0077727D01*
X0263976Y0077712D01*
X0263918Y0077693D01*
X0263860Y0077671D01*
X0263804Y0077645D01*
X0263750Y0077616D01*
X0263698Y0077584D01*
X0263647Y0077548D01*
X0263599Y0077509D01*
X0263554Y0077468D01*
X0263511Y0077424D01*
X0263471Y0077377D01*
X0263434Y0077328D01*
X0263400Y0077276D01*
X0263369Y0077223D01*
X0263342Y0077168D01*
X0263318Y0077111D01*
X0263297Y0077053D01*
X0263280Y0076994D01*
X0263267Y0076934D01*
X0263258Y0076873D01*
X0263252Y0076812D01*
X0263250Y0076750D01*
X0263250Y0075250D01*
X0278250Y0063050D02*
X0278250Y0061550D01*
X0278250Y0063050D02*
X0278252Y0063112D01*
X0278258Y0063173D01*
X0278267Y0063234D01*
X0278280Y0063294D01*
X0278297Y0063353D01*
X0278318Y0063411D01*
X0278342Y0063468D01*
X0278369Y0063523D01*
X0278400Y0063576D01*
X0278434Y0063628D01*
X0278471Y0063677D01*
X0278511Y0063724D01*
X0278554Y0063768D01*
X0278599Y0063809D01*
X0278647Y0063848D01*
X0278698Y0063884D01*
X0278750Y0063916D01*
X0278804Y0063945D01*
X0278860Y0063971D01*
X0278918Y0063993D01*
X0278976Y0064012D01*
X0279036Y0064027D01*
X0279097Y0064038D01*
X0279158Y0064046D01*
X0279219Y0064050D01*
X0279281Y0064050D01*
X0279342Y0064046D01*
X0279403Y0064038D01*
X0279464Y0064027D01*
X0279524Y0064012D01*
X0279582Y0063993D01*
X0279640Y0063971D01*
X0279696Y0063945D01*
X0279750Y0063916D01*
X0279802Y0063884D01*
X0279853Y0063848D01*
X0279901Y0063809D01*
X0279946Y0063768D01*
X0279989Y0063724D01*
X0280029Y0063677D01*
X0280066Y0063628D01*
X0280100Y0063576D01*
X0280131Y0063523D01*
X0280158Y0063468D01*
X0280182Y0063411D01*
X0280203Y0063353D01*
X0280220Y0063294D01*
X0280233Y0063234D01*
X0280242Y0063173D01*
X0280248Y0063112D01*
X0280250Y0063050D01*
X0280250Y0062050D01*
X0280250Y0062800D02*
X0280252Y0062869D01*
X0280258Y0062938D01*
X0280267Y0063006D01*
X0280280Y0063073D01*
X0280297Y0063140D01*
X0280318Y0063206D01*
X0280342Y0063270D01*
X0280370Y0063333D01*
X0280401Y0063395D01*
X0280435Y0063455D01*
X0280473Y0063512D01*
X0280514Y0063568D01*
X0280557Y0063621D01*
X0280604Y0063672D01*
X0280653Y0063720D01*
X0280705Y0063765D01*
X0280760Y0063807D01*
X0280816Y0063846D01*
X0280875Y0063883D01*
X0280936Y0063915D01*
X0280998Y0063945D01*
X0281062Y0063971D01*
X0281127Y0063993D01*
X0281193Y0064012D01*
X0281260Y0064027D01*
X0281328Y0064038D01*
X0281397Y0064046D01*
X0281466Y0064050D01*
X0281534Y0064050D01*
X0281603Y0064046D01*
X0281672Y0064038D01*
X0281740Y0064027D01*
X0281807Y0064012D01*
X0281873Y0063993D01*
X0281938Y0063971D01*
X0282002Y0063945D01*
X0282064Y0063915D01*
X0282125Y0063883D01*
X0282184Y0063846D01*
X0282240Y0063807D01*
X0282295Y0063765D01*
X0282347Y0063720D01*
X0282396Y0063672D01*
X0282443Y0063621D01*
X0282486Y0063568D01*
X0282527Y0063512D01*
X0282565Y0063455D01*
X0282599Y0063395D01*
X0282630Y0063333D01*
X0282658Y0063270D01*
X0282682Y0063206D01*
X0282703Y0063140D01*
X0282720Y0063073D01*
X0282733Y0063006D01*
X0282742Y0062938D01*
X0282748Y0062869D01*
X0282750Y0062800D01*
X0282750Y0061550D01*
X0288750Y0071783D02*
X0288750Y0073033D01*
X0288752Y0073102D01*
X0288758Y0073171D01*
X0288767Y0073239D01*
X0288780Y0073306D01*
X0288797Y0073373D01*
X0288818Y0073439D01*
X0288842Y0073503D01*
X0288870Y0073566D01*
X0288901Y0073628D01*
X0288935Y0073688D01*
X0288973Y0073745D01*
X0289014Y0073801D01*
X0289057Y0073854D01*
X0289104Y0073905D01*
X0289153Y0073953D01*
X0289205Y0073998D01*
X0289260Y0074040D01*
X0289316Y0074079D01*
X0289375Y0074116D01*
X0289436Y0074148D01*
X0289498Y0074178D01*
X0289562Y0074204D01*
X0289627Y0074226D01*
X0289693Y0074245D01*
X0289760Y0074260D01*
X0289828Y0074271D01*
X0289897Y0074279D01*
X0289966Y0074283D01*
X0290034Y0074283D01*
X0290103Y0074279D01*
X0290172Y0074271D01*
X0290240Y0074260D01*
X0290307Y0074245D01*
X0290373Y0074226D01*
X0290438Y0074204D01*
X0290502Y0074178D01*
X0290564Y0074148D01*
X0290625Y0074116D01*
X0290684Y0074079D01*
X0290740Y0074040D01*
X0290795Y0073998D01*
X0290847Y0073953D01*
X0290896Y0073905D01*
X0290943Y0073854D01*
X0290986Y0073801D01*
X0291027Y0073745D01*
X0291065Y0073688D01*
X0291099Y0073628D01*
X0291130Y0073566D01*
X0291158Y0073503D01*
X0291182Y0073439D01*
X0291203Y0073373D01*
X0291220Y0073306D01*
X0291233Y0073239D01*
X0291242Y0073171D01*
X0291248Y0073102D01*
X0291250Y0073033D01*
X0291250Y0071783D01*
X0291250Y0073283D02*
X0293250Y0074283D01*
X0292000Y0076250D02*
X0290750Y0076250D01*
X0290750Y0077750D01*
X0290750Y0076250D02*
X0290663Y0076252D01*
X0290576Y0076258D01*
X0290489Y0076267D01*
X0290403Y0076280D01*
X0290317Y0076297D01*
X0290232Y0076318D01*
X0290149Y0076343D01*
X0290066Y0076371D01*
X0289985Y0076402D01*
X0289905Y0076437D01*
X0289827Y0076476D01*
X0289750Y0076518D01*
X0289675Y0076563D01*
X0289603Y0076612D01*
X0289532Y0076663D01*
X0289464Y0076718D01*
X0289399Y0076775D01*
X0289336Y0076836D01*
X0289275Y0076899D01*
X0289218Y0076964D01*
X0289163Y0077032D01*
X0289112Y0077103D01*
X0289063Y0077175D01*
X0289018Y0077250D01*
X0288976Y0077327D01*
X0288937Y0077405D01*
X0288902Y0077485D01*
X0288871Y0077566D01*
X0288843Y0077649D01*
X0288818Y0077732D01*
X0288797Y0077817D01*
X0288780Y0077903D01*
X0288767Y0077989D01*
X0288758Y0078076D01*
X0288752Y0078163D01*
X0288750Y0078250D01*
X0290750Y0077750D02*
X0290752Y0077810D01*
X0290757Y0077871D01*
X0290766Y0077930D01*
X0290779Y0077989D01*
X0290795Y0078048D01*
X0290815Y0078105D01*
X0290838Y0078160D01*
X0290865Y0078215D01*
X0290894Y0078267D01*
X0290927Y0078318D01*
X0290963Y0078367D01*
X0291001Y0078413D01*
X0291043Y0078457D01*
X0291087Y0078499D01*
X0291133Y0078537D01*
X0291182Y0078573D01*
X0291233Y0078606D01*
X0291285Y0078635D01*
X0291340Y0078662D01*
X0291395Y0078685D01*
X0291452Y0078705D01*
X0291511Y0078721D01*
X0291570Y0078734D01*
X0291629Y0078743D01*
X0291690Y0078748D01*
X0291750Y0078750D01*
X0292000Y0078750D01*
X0292069Y0078748D01*
X0292138Y0078742D01*
X0292206Y0078733D01*
X0292273Y0078720D01*
X0292340Y0078703D01*
X0292406Y0078682D01*
X0292470Y0078658D01*
X0292533Y0078630D01*
X0292595Y0078599D01*
X0292655Y0078565D01*
X0292712Y0078527D01*
X0292768Y0078486D01*
X0292821Y0078443D01*
X0292872Y0078396D01*
X0292920Y0078347D01*
X0292965Y0078295D01*
X0293007Y0078240D01*
X0293046Y0078184D01*
X0293083Y0078125D01*
X0293115Y0078064D01*
X0293145Y0078002D01*
X0293171Y0077938D01*
X0293193Y0077873D01*
X0293212Y0077807D01*
X0293227Y0077740D01*
X0293238Y0077672D01*
X0293246Y0077603D01*
X0293250Y0077534D01*
X0293250Y0077466D01*
X0293246Y0077397D01*
X0293238Y0077328D01*
X0293227Y0077260D01*
X0293212Y0077193D01*
X0293193Y0077127D01*
X0293171Y0077062D01*
X0293145Y0076998D01*
X0293115Y0076936D01*
X0293083Y0076875D01*
X0293046Y0076816D01*
X0293007Y0076760D01*
X0292965Y0076705D01*
X0292920Y0076653D01*
X0292872Y0076604D01*
X0292821Y0076557D01*
X0292768Y0076514D01*
X0292712Y0076473D01*
X0292655Y0076435D01*
X0292595Y0076401D01*
X0292533Y0076370D01*
X0292470Y0076342D01*
X0292406Y0076318D01*
X0292340Y0076297D01*
X0292273Y0076280D01*
X0292206Y0076267D01*
X0292138Y0076258D01*
X0292069Y0076252D01*
X0292000Y0076250D01*
X0293250Y0071783D02*
X0288750Y0071783D01*
X0268250Y0057250D02*
X0268250Y0054750D01*
X0268250Y0056000D02*
X0263750Y0056000D01*
X0264750Y0054750D01*
X0211250Y0072485D02*
X0211250Y0073485D01*
X0211250Y0072485D02*
X0211248Y0072425D01*
X0211243Y0072364D01*
X0211234Y0072305D01*
X0211221Y0072246D01*
X0211205Y0072187D01*
X0211185Y0072130D01*
X0211162Y0072075D01*
X0211135Y0072020D01*
X0211106Y0071968D01*
X0211073Y0071917D01*
X0211037Y0071868D01*
X0210999Y0071822D01*
X0210957Y0071778D01*
X0210913Y0071736D01*
X0210867Y0071698D01*
X0210818Y0071662D01*
X0210767Y0071629D01*
X0210715Y0071600D01*
X0210660Y0071573D01*
X0210605Y0071550D01*
X0210548Y0071530D01*
X0210489Y0071514D01*
X0210430Y0071501D01*
X0210371Y0071492D01*
X0210310Y0071487D01*
X0210250Y0071485D01*
X0207750Y0071485D01*
X0207690Y0071487D01*
X0207629Y0071492D01*
X0207570Y0071501D01*
X0207511Y0071514D01*
X0207452Y0071530D01*
X0207395Y0071550D01*
X0207340Y0071573D01*
X0207285Y0071600D01*
X0207233Y0071629D01*
X0207182Y0071662D01*
X0207133Y0071698D01*
X0207087Y0071736D01*
X0207043Y0071778D01*
X0207001Y0071822D01*
X0206963Y0071868D01*
X0206927Y0071917D01*
X0206894Y0071968D01*
X0206865Y0072020D01*
X0206838Y0072075D01*
X0206815Y0072130D01*
X0206795Y0072187D01*
X0206779Y0072246D01*
X0206766Y0072305D01*
X0206757Y0072364D01*
X0206752Y0072425D01*
X0206750Y0072485D01*
X0206750Y0073485D01*
X0207750Y0075250D02*
X0206750Y0076500D01*
X0211250Y0076500D01*
X0211250Y0075250D02*
X0211250Y0077750D01*
X0183250Y0077500D02*
X0183250Y0076250D01*
X0183250Y0077500D02*
X0183248Y0077569D01*
X0183242Y0077638D01*
X0183233Y0077706D01*
X0183220Y0077773D01*
X0183203Y0077840D01*
X0183182Y0077906D01*
X0183158Y0077970D01*
X0183130Y0078033D01*
X0183099Y0078095D01*
X0183065Y0078155D01*
X0183027Y0078212D01*
X0182986Y0078268D01*
X0182943Y0078321D01*
X0182896Y0078372D01*
X0182847Y0078420D01*
X0182795Y0078465D01*
X0182740Y0078507D01*
X0182684Y0078546D01*
X0182625Y0078583D01*
X0182564Y0078615D01*
X0182502Y0078645D01*
X0182438Y0078671D01*
X0182373Y0078693D01*
X0182307Y0078712D01*
X0182240Y0078727D01*
X0182172Y0078738D01*
X0182103Y0078746D01*
X0182034Y0078750D01*
X0181966Y0078750D01*
X0181897Y0078746D01*
X0181828Y0078738D01*
X0181760Y0078727D01*
X0181693Y0078712D01*
X0181627Y0078693D01*
X0181562Y0078671D01*
X0181498Y0078645D01*
X0181436Y0078615D01*
X0181375Y0078583D01*
X0181316Y0078546D01*
X0181260Y0078507D01*
X0181205Y0078465D01*
X0181153Y0078420D01*
X0181104Y0078372D01*
X0181057Y0078321D01*
X0181014Y0078268D01*
X0180973Y0078212D01*
X0180935Y0078155D01*
X0180901Y0078095D01*
X0180870Y0078033D01*
X0180842Y0077970D01*
X0180818Y0077906D01*
X0180797Y0077840D01*
X0180780Y0077773D01*
X0180767Y0077706D01*
X0180758Y0077638D01*
X0180752Y0077569D01*
X0180750Y0077500D01*
X0180750Y0077750D02*
X0180750Y0076750D01*
X0180750Y0077750D02*
X0180748Y0077812D01*
X0180742Y0077873D01*
X0180733Y0077934D01*
X0180720Y0077994D01*
X0180703Y0078053D01*
X0180682Y0078111D01*
X0180658Y0078168D01*
X0180631Y0078223D01*
X0180600Y0078276D01*
X0180566Y0078328D01*
X0180529Y0078377D01*
X0180489Y0078424D01*
X0180446Y0078468D01*
X0180401Y0078509D01*
X0180353Y0078548D01*
X0180302Y0078584D01*
X0180250Y0078616D01*
X0180196Y0078645D01*
X0180140Y0078671D01*
X0180082Y0078693D01*
X0180024Y0078712D01*
X0179964Y0078727D01*
X0179903Y0078738D01*
X0179842Y0078746D01*
X0179781Y0078750D01*
X0179719Y0078750D01*
X0179658Y0078746D01*
X0179597Y0078738D01*
X0179536Y0078727D01*
X0179476Y0078712D01*
X0179418Y0078693D01*
X0179360Y0078671D01*
X0179304Y0078645D01*
X0179250Y0078616D01*
X0179198Y0078584D01*
X0179147Y0078548D01*
X0179099Y0078509D01*
X0179054Y0078468D01*
X0179011Y0078424D01*
X0178971Y0078377D01*
X0178934Y0078328D01*
X0178900Y0078276D01*
X0178869Y0078223D01*
X0178842Y0078168D01*
X0178818Y0078111D01*
X0178797Y0078053D01*
X0178780Y0077994D01*
X0178767Y0077934D01*
X0178758Y0077873D01*
X0178752Y0077812D01*
X0178750Y0077750D01*
X0178750Y0076250D01*
X0178750Y0073033D02*
X0178750Y0071783D01*
X0183250Y0071783D01*
X0181250Y0071783D02*
X0181250Y0073033D01*
X0181250Y0073283D02*
X0183250Y0074283D01*
X0181250Y0073033D02*
X0181248Y0073102D01*
X0181242Y0073171D01*
X0181233Y0073239D01*
X0181220Y0073306D01*
X0181203Y0073373D01*
X0181182Y0073439D01*
X0181158Y0073503D01*
X0181130Y0073566D01*
X0181099Y0073628D01*
X0181065Y0073688D01*
X0181027Y0073745D01*
X0180986Y0073801D01*
X0180943Y0073854D01*
X0180896Y0073905D01*
X0180847Y0073953D01*
X0180795Y0073998D01*
X0180740Y0074040D01*
X0180684Y0074079D01*
X0180625Y0074116D01*
X0180564Y0074148D01*
X0180502Y0074178D01*
X0180438Y0074204D01*
X0180373Y0074226D01*
X0180307Y0074245D01*
X0180240Y0074260D01*
X0180172Y0074271D01*
X0180103Y0074279D01*
X0180034Y0074283D01*
X0179966Y0074283D01*
X0179897Y0074279D01*
X0179828Y0074271D01*
X0179760Y0074260D01*
X0179693Y0074245D01*
X0179627Y0074226D01*
X0179562Y0074204D01*
X0179498Y0074178D01*
X0179436Y0074148D01*
X0179375Y0074116D01*
X0179316Y0074079D01*
X0179260Y0074040D01*
X0179205Y0073998D01*
X0179153Y0073953D01*
X0179104Y0073905D01*
X0179057Y0073854D01*
X0179014Y0073801D01*
X0178973Y0073745D01*
X0178935Y0073688D01*
X0178901Y0073628D01*
X0178870Y0073566D01*
X0178842Y0073503D01*
X0178818Y0073439D01*
X0178797Y0073373D01*
X0178780Y0073306D01*
X0178767Y0073239D01*
X0178758Y0073171D01*
X0178752Y0073102D01*
X0178750Y0073033D01*
X0172750Y0062800D02*
X0172750Y0061550D01*
X0172750Y0062800D02*
X0172748Y0062869D01*
X0172742Y0062938D01*
X0172733Y0063006D01*
X0172720Y0063073D01*
X0172703Y0063140D01*
X0172682Y0063206D01*
X0172658Y0063270D01*
X0172630Y0063333D01*
X0172599Y0063395D01*
X0172565Y0063455D01*
X0172527Y0063512D01*
X0172486Y0063568D01*
X0172443Y0063621D01*
X0172396Y0063672D01*
X0172347Y0063720D01*
X0172295Y0063765D01*
X0172240Y0063807D01*
X0172184Y0063846D01*
X0172125Y0063883D01*
X0172064Y0063915D01*
X0172002Y0063945D01*
X0171938Y0063971D01*
X0171873Y0063993D01*
X0171807Y0064012D01*
X0171740Y0064027D01*
X0171672Y0064038D01*
X0171603Y0064046D01*
X0171534Y0064050D01*
X0171466Y0064050D01*
X0171397Y0064046D01*
X0171328Y0064038D01*
X0171260Y0064027D01*
X0171193Y0064012D01*
X0171127Y0063993D01*
X0171062Y0063971D01*
X0170998Y0063945D01*
X0170936Y0063915D01*
X0170875Y0063883D01*
X0170816Y0063846D01*
X0170760Y0063807D01*
X0170705Y0063765D01*
X0170653Y0063720D01*
X0170604Y0063672D01*
X0170557Y0063621D01*
X0170514Y0063568D01*
X0170473Y0063512D01*
X0170435Y0063455D01*
X0170401Y0063395D01*
X0170370Y0063333D01*
X0170342Y0063270D01*
X0170318Y0063206D01*
X0170297Y0063140D01*
X0170280Y0063073D01*
X0170267Y0063006D01*
X0170258Y0062938D01*
X0170252Y0062869D01*
X0170250Y0062800D01*
X0170250Y0063050D02*
X0170250Y0062050D01*
X0170250Y0063050D02*
X0170248Y0063112D01*
X0170242Y0063173D01*
X0170233Y0063234D01*
X0170220Y0063294D01*
X0170203Y0063353D01*
X0170182Y0063411D01*
X0170158Y0063468D01*
X0170131Y0063523D01*
X0170100Y0063576D01*
X0170066Y0063628D01*
X0170029Y0063677D01*
X0169989Y0063724D01*
X0169946Y0063768D01*
X0169901Y0063809D01*
X0169853Y0063848D01*
X0169802Y0063884D01*
X0169750Y0063916D01*
X0169696Y0063945D01*
X0169640Y0063971D01*
X0169582Y0063993D01*
X0169524Y0064012D01*
X0169464Y0064027D01*
X0169403Y0064038D01*
X0169342Y0064046D01*
X0169281Y0064050D01*
X0169219Y0064050D01*
X0169158Y0064046D01*
X0169097Y0064038D01*
X0169036Y0064027D01*
X0168976Y0064012D01*
X0168918Y0063993D01*
X0168860Y0063971D01*
X0168804Y0063945D01*
X0168750Y0063916D01*
X0168698Y0063884D01*
X0168647Y0063848D01*
X0168599Y0063809D01*
X0168554Y0063768D01*
X0168511Y0063724D01*
X0168471Y0063677D01*
X0168434Y0063628D01*
X0168400Y0063576D01*
X0168369Y0063523D01*
X0168342Y0063468D01*
X0168318Y0063411D01*
X0168297Y0063353D01*
X0168280Y0063294D01*
X0168267Y0063234D01*
X0168258Y0063173D01*
X0168252Y0063112D01*
X0168250Y0063050D01*
X0168250Y0061550D01*
X0158250Y0057250D02*
X0158250Y0054750D01*
X0158250Y0056000D02*
X0153750Y0056000D01*
X0154750Y0054750D01*
X0153250Y0075250D02*
X0153250Y0076750D01*
X0153252Y0076812D01*
X0153258Y0076873D01*
X0153267Y0076934D01*
X0153280Y0076994D01*
X0153297Y0077053D01*
X0153318Y0077111D01*
X0153342Y0077168D01*
X0153369Y0077223D01*
X0153400Y0077276D01*
X0153434Y0077328D01*
X0153471Y0077377D01*
X0153511Y0077424D01*
X0153554Y0077468D01*
X0153599Y0077509D01*
X0153647Y0077548D01*
X0153698Y0077584D01*
X0153750Y0077616D01*
X0153804Y0077645D01*
X0153860Y0077671D01*
X0153918Y0077693D01*
X0153976Y0077712D01*
X0154036Y0077727D01*
X0154097Y0077738D01*
X0154158Y0077746D01*
X0154219Y0077750D01*
X0154281Y0077750D01*
X0154342Y0077746D01*
X0154403Y0077738D01*
X0154464Y0077727D01*
X0154524Y0077712D01*
X0154582Y0077693D01*
X0154640Y0077671D01*
X0154696Y0077645D01*
X0154750Y0077616D01*
X0154802Y0077584D01*
X0154853Y0077548D01*
X0154901Y0077509D01*
X0154946Y0077468D01*
X0154989Y0077424D01*
X0155029Y0077377D01*
X0155066Y0077328D01*
X0155100Y0077276D01*
X0155131Y0077223D01*
X0155158Y0077168D01*
X0155182Y0077111D01*
X0155203Y0077053D01*
X0155220Y0076994D01*
X0155233Y0076934D01*
X0155242Y0076873D01*
X0155248Y0076812D01*
X0155250Y0076750D01*
X0155250Y0075750D01*
X0155250Y0076500D02*
X0155252Y0076569D01*
X0155258Y0076638D01*
X0155267Y0076706D01*
X0155280Y0076773D01*
X0155297Y0076840D01*
X0155318Y0076906D01*
X0155342Y0076970D01*
X0155370Y0077033D01*
X0155401Y0077095D01*
X0155435Y0077155D01*
X0155473Y0077212D01*
X0155514Y0077268D01*
X0155557Y0077321D01*
X0155604Y0077372D01*
X0155653Y0077420D01*
X0155705Y0077465D01*
X0155760Y0077507D01*
X0155816Y0077546D01*
X0155875Y0077583D01*
X0155936Y0077615D01*
X0155998Y0077645D01*
X0156062Y0077671D01*
X0156127Y0077693D01*
X0156193Y0077712D01*
X0156260Y0077727D01*
X0156328Y0077738D01*
X0156397Y0077746D01*
X0156466Y0077750D01*
X0156534Y0077750D01*
X0156603Y0077746D01*
X0156672Y0077738D01*
X0156740Y0077727D01*
X0156807Y0077712D01*
X0156873Y0077693D01*
X0156938Y0077671D01*
X0157002Y0077645D01*
X0157064Y0077615D01*
X0157125Y0077583D01*
X0157184Y0077546D01*
X0157240Y0077507D01*
X0157295Y0077465D01*
X0157347Y0077420D01*
X0157396Y0077372D01*
X0157443Y0077321D01*
X0157486Y0077268D01*
X0157527Y0077212D01*
X0157565Y0077155D01*
X0157599Y0077095D01*
X0157630Y0077033D01*
X0157658Y0076970D01*
X0157682Y0076906D01*
X0157703Y0076840D01*
X0157720Y0076773D01*
X0157733Y0076706D01*
X0157742Y0076638D01*
X0157748Y0076569D01*
X0157750Y0076500D01*
X0157750Y0075250D01*
X0159750Y0099750D02*
X0159750Y0100750D01*
X0159750Y0100250D02*
X0155250Y0100250D01*
X0155250Y0099750D02*
X0155250Y0100750D01*
X0156250Y0102585D02*
X0158750Y0102585D01*
X0158810Y0102587D01*
X0158871Y0102592D01*
X0158930Y0102601D01*
X0158989Y0102614D01*
X0159048Y0102630D01*
X0159105Y0102650D01*
X0159160Y0102673D01*
X0159215Y0102700D01*
X0159267Y0102729D01*
X0159318Y0102762D01*
X0159367Y0102798D01*
X0159413Y0102836D01*
X0159457Y0102878D01*
X0159499Y0102922D01*
X0159537Y0102968D01*
X0159573Y0103017D01*
X0159606Y0103068D01*
X0159635Y0103120D01*
X0159662Y0103175D01*
X0159685Y0103230D01*
X0159705Y0103287D01*
X0159721Y0103346D01*
X0159734Y0103405D01*
X0159743Y0103464D01*
X0159748Y0103525D01*
X0159750Y0103585D01*
X0159750Y0104585D01*
X0159750Y0106350D02*
X0159750Y0108850D01*
X0159750Y0107600D02*
X0155250Y0107600D01*
X0156250Y0106350D01*
X0155250Y0104585D02*
X0155250Y0103585D01*
X0155252Y0103525D01*
X0155257Y0103464D01*
X0155266Y0103405D01*
X0155279Y0103346D01*
X0155295Y0103287D01*
X0155315Y0103230D01*
X0155338Y0103175D01*
X0155365Y0103120D01*
X0155394Y0103068D01*
X0155427Y0103017D01*
X0155463Y0102968D01*
X0155501Y0102922D01*
X0155543Y0102878D01*
X0155587Y0102836D01*
X0155633Y0102798D01*
X0155682Y0102762D01*
X0155733Y0102729D01*
X0155785Y0102700D01*
X0155840Y0102673D01*
X0155895Y0102650D01*
X0155952Y0102630D01*
X0156011Y0102614D01*
X0156070Y0102601D01*
X0156129Y0102592D01*
X0156190Y0102587D01*
X0156250Y0102585D01*
X0321750Y0076750D02*
X0321750Y0075250D01*
X0321750Y0073485D02*
X0321750Y0072485D01*
X0321752Y0072425D01*
X0321757Y0072364D01*
X0321766Y0072305D01*
X0321779Y0072246D01*
X0321795Y0072187D01*
X0321815Y0072130D01*
X0321838Y0072075D01*
X0321865Y0072020D01*
X0321894Y0071968D01*
X0321927Y0071917D01*
X0321963Y0071868D01*
X0322001Y0071822D01*
X0322043Y0071778D01*
X0322087Y0071736D01*
X0322133Y0071698D01*
X0322182Y0071662D01*
X0322233Y0071629D01*
X0322285Y0071600D01*
X0322340Y0071573D01*
X0322395Y0071550D01*
X0322452Y0071530D01*
X0322511Y0071514D01*
X0322570Y0071501D01*
X0322629Y0071492D01*
X0322690Y0071487D01*
X0322750Y0071485D01*
X0325250Y0071485D01*
X0325310Y0071487D01*
X0325371Y0071492D01*
X0325430Y0071501D01*
X0325489Y0071514D01*
X0325548Y0071530D01*
X0325605Y0071550D01*
X0325660Y0071573D01*
X0325715Y0071600D01*
X0325767Y0071629D01*
X0325818Y0071662D01*
X0325867Y0071698D01*
X0325913Y0071736D01*
X0325957Y0071778D01*
X0325999Y0071822D01*
X0326037Y0071868D01*
X0326073Y0071917D01*
X0326106Y0071968D01*
X0326135Y0072020D01*
X0326162Y0072075D01*
X0326185Y0072130D01*
X0326205Y0072187D01*
X0326221Y0072246D01*
X0326234Y0072305D01*
X0326243Y0072364D01*
X0326248Y0072425D01*
X0326250Y0072485D01*
X0326250Y0073485D01*
X0326250Y0075250D02*
X0326250Y0076500D01*
X0326248Y0076569D01*
X0326242Y0076638D01*
X0326233Y0076706D01*
X0326220Y0076773D01*
X0326203Y0076840D01*
X0326182Y0076906D01*
X0326158Y0076970D01*
X0326130Y0077033D01*
X0326099Y0077095D01*
X0326065Y0077155D01*
X0326027Y0077212D01*
X0325986Y0077268D01*
X0325943Y0077321D01*
X0325896Y0077372D01*
X0325847Y0077420D01*
X0325795Y0077465D01*
X0325740Y0077507D01*
X0325684Y0077546D01*
X0325625Y0077583D01*
X0325564Y0077615D01*
X0325502Y0077645D01*
X0325438Y0077671D01*
X0325373Y0077693D01*
X0325307Y0077712D01*
X0325240Y0077727D01*
X0325172Y0077738D01*
X0325103Y0077746D01*
X0325034Y0077750D01*
X0324966Y0077750D01*
X0324897Y0077746D01*
X0324828Y0077738D01*
X0324760Y0077727D01*
X0324693Y0077712D01*
X0324627Y0077693D01*
X0324562Y0077671D01*
X0324498Y0077645D01*
X0324436Y0077615D01*
X0324375Y0077583D01*
X0324316Y0077546D01*
X0324260Y0077507D01*
X0324205Y0077465D01*
X0324153Y0077420D01*
X0324104Y0077372D01*
X0324057Y0077321D01*
X0324014Y0077268D01*
X0323973Y0077212D01*
X0323935Y0077155D01*
X0323901Y0077095D01*
X0323870Y0077033D01*
X0323842Y0076970D01*
X0323818Y0076906D01*
X0323797Y0076840D01*
X0323780Y0076773D01*
X0323767Y0076706D01*
X0323758Y0076638D01*
X0323752Y0076569D01*
X0323750Y0076500D01*
X0323750Y0076750D02*
X0323750Y0075750D01*
X0323750Y0076750D02*
X0323748Y0076812D01*
X0323742Y0076873D01*
X0323733Y0076934D01*
X0323720Y0076994D01*
X0323703Y0077053D01*
X0323682Y0077111D01*
X0323658Y0077168D01*
X0323631Y0077223D01*
X0323600Y0077276D01*
X0323566Y0077328D01*
X0323529Y0077377D01*
X0323489Y0077424D01*
X0323446Y0077468D01*
X0323401Y0077509D01*
X0323353Y0077548D01*
X0323302Y0077584D01*
X0323250Y0077616D01*
X0323196Y0077645D01*
X0323140Y0077671D01*
X0323082Y0077693D01*
X0323024Y0077712D01*
X0322964Y0077727D01*
X0322903Y0077738D01*
X0322842Y0077746D01*
X0322781Y0077750D01*
X0322719Y0077750D01*
X0322658Y0077746D01*
X0322597Y0077738D01*
X0322536Y0077727D01*
X0322476Y0077712D01*
X0322418Y0077693D01*
X0322360Y0077671D01*
X0322304Y0077645D01*
X0322250Y0077616D01*
X0322198Y0077584D01*
X0322147Y0077548D01*
X0322099Y0077509D01*
X0322054Y0077468D01*
X0322011Y0077424D01*
X0321971Y0077377D01*
X0321934Y0077328D01*
X0321900Y0077276D01*
X0321869Y0077223D01*
X0321842Y0077168D01*
X0321818Y0077111D01*
X0321797Y0077053D01*
X0321780Y0076994D01*
X0321767Y0076934D01*
X0321758Y0076873D01*
X0321752Y0076812D01*
X0321750Y0076750D01*
X0335250Y0131750D02*
X0336250Y0131750D01*
X0335250Y0131750D02*
X0335190Y0131752D01*
X0335129Y0131757D01*
X0335070Y0131766D01*
X0335011Y0131779D01*
X0334952Y0131795D01*
X0334895Y0131815D01*
X0334840Y0131838D01*
X0334785Y0131865D01*
X0334733Y0131894D01*
X0334682Y0131927D01*
X0334633Y0131963D01*
X0334587Y0132001D01*
X0334543Y0132043D01*
X0334501Y0132087D01*
X0334463Y0132133D01*
X0334427Y0132182D01*
X0334394Y0132233D01*
X0334365Y0132285D01*
X0334338Y0132340D01*
X0334315Y0132395D01*
X0334295Y0132452D01*
X0334279Y0132511D01*
X0334266Y0132570D01*
X0334257Y0132629D01*
X0334252Y0132690D01*
X0334250Y0132750D01*
X0334250Y0135250D01*
X0334252Y0135310D01*
X0334257Y0135371D01*
X0334266Y0135430D01*
X0334279Y0135489D01*
X0334295Y0135548D01*
X0334315Y0135605D01*
X0334338Y0135660D01*
X0334365Y0135715D01*
X0334394Y0135767D01*
X0334427Y0135818D01*
X0334463Y0135867D01*
X0334501Y0135913D01*
X0334543Y0135957D01*
X0334587Y0135999D01*
X0334633Y0136037D01*
X0334682Y0136073D01*
X0334733Y0136106D01*
X0334785Y0136135D01*
X0334840Y0136162D01*
X0334895Y0136185D01*
X0334952Y0136205D01*
X0335011Y0136221D01*
X0335070Y0136234D01*
X0335129Y0136243D01*
X0335190Y0136248D01*
X0335250Y0136250D01*
X0336250Y0136250D01*
X0339015Y0136250D02*
X0338015Y0132750D01*
X0340515Y0132750D01*
X0339765Y0133750D02*
X0339765Y0131750D01*
X0341250Y0184750D02*
X0343750Y0184750D01*
X0341250Y0184750D02*
X0343375Y0187250D01*
X0342625Y0189250D02*
X0342552Y0189248D01*
X0342480Y0189243D01*
X0342408Y0189234D01*
X0342336Y0189221D01*
X0342265Y0189205D01*
X0342195Y0189185D01*
X0342127Y0189161D01*
X0342059Y0189135D01*
X0341993Y0189104D01*
X0341928Y0189071D01*
X0341866Y0189034D01*
X0341805Y0188995D01*
X0341746Y0188952D01*
X0341689Y0188906D01*
X0341635Y0188858D01*
X0341584Y0188807D01*
X0341534Y0188753D01*
X0341488Y0188697D01*
X0341445Y0188639D01*
X0341404Y0188578D01*
X0341367Y0188516D01*
X0341333Y0188452D01*
X0341302Y0188386D01*
X0341274Y0188319D01*
X0341250Y0188250D01*
X0343375Y0187250D02*
X0343421Y0187296D01*
X0343465Y0187345D01*
X0343505Y0187396D01*
X0343543Y0187449D01*
X0343578Y0187504D01*
X0343610Y0187561D01*
X0343639Y0187619D01*
X0343665Y0187679D01*
X0343687Y0187741D01*
X0343706Y0187803D01*
X0343722Y0187866D01*
X0343734Y0187930D01*
X0343743Y0187995D01*
X0343748Y0188060D01*
X0343750Y0188125D01*
X0343748Y0188190D01*
X0343742Y0188256D01*
X0343733Y0188320D01*
X0343720Y0188384D01*
X0343703Y0188448D01*
X0343682Y0188510D01*
X0343658Y0188571D01*
X0343630Y0188630D01*
X0343599Y0188688D01*
X0343565Y0188743D01*
X0343527Y0188797D01*
X0343487Y0188848D01*
X0343443Y0188897D01*
X0343397Y0188943D01*
X0343348Y0188987D01*
X0343297Y0189027D01*
X0343243Y0189065D01*
X0343188Y0189099D01*
X0343130Y0189130D01*
X0343071Y0189158D01*
X0343010Y0189182D01*
X0342948Y0189203D01*
X0342884Y0189220D01*
X0342820Y0189233D01*
X0342756Y0189242D01*
X0342690Y0189248D01*
X0342625Y0189250D01*
X0339100Y0188000D02*
X0339100Y0186000D01*
X0339098Y0185932D01*
X0339093Y0185865D01*
X0339084Y0185798D01*
X0339071Y0185731D01*
X0339054Y0185666D01*
X0339035Y0185601D01*
X0339011Y0185537D01*
X0338984Y0185475D01*
X0338954Y0185414D01*
X0338921Y0185356D01*
X0338885Y0185299D01*
X0338845Y0185244D01*
X0338803Y0185191D01*
X0338757Y0185140D01*
X0338710Y0185093D01*
X0338659Y0185047D01*
X0338606Y0185005D01*
X0338551Y0184965D01*
X0338494Y0184929D01*
X0338436Y0184896D01*
X0338375Y0184866D01*
X0338313Y0184839D01*
X0338249Y0184815D01*
X0338184Y0184796D01*
X0338119Y0184779D01*
X0338052Y0184766D01*
X0337985Y0184757D01*
X0337918Y0184752D01*
X0337850Y0184750D01*
X0336600Y0184750D01*
X0336600Y0189250D01*
X0337850Y0189250D01*
X0337918Y0189248D01*
X0337985Y0189243D01*
X0338052Y0189234D01*
X0338119Y0189221D01*
X0338184Y0189204D01*
X0338249Y0189185D01*
X0338313Y0189161D01*
X0338375Y0189134D01*
X0338436Y0189104D01*
X0338494Y0189071D01*
X0338551Y0189035D01*
X0338606Y0188995D01*
X0338659Y0188953D01*
X0338710Y0188907D01*
X0338757Y0188860D01*
X0338803Y0188809D01*
X0338845Y0188756D01*
X0338885Y0188701D01*
X0338921Y0188644D01*
X0338954Y0188586D01*
X0338984Y0188525D01*
X0339011Y0188463D01*
X0339035Y0188399D01*
X0339054Y0188334D01*
X0339071Y0188269D01*
X0339084Y0188202D01*
X0339093Y0188135D01*
X0339098Y0188068D01*
X0339100Y0188000D01*
D14*
X0341500Y0196000D03*
X0226500Y0196000D03*
X0101500Y0196000D03*
D15*
X0107750Y0196000D03*
X0084250Y0196000D03*
X0209250Y0196000D03*
X0232750Y0196000D03*
X0324250Y0196000D03*
X0347750Y0196000D03*
D16*
X0295700Y0175851D02*
X0295700Y0174684D01*
X0295700Y0175851D02*
X0295698Y0175907D01*
X0295692Y0175962D01*
X0295682Y0176016D01*
X0295668Y0176070D01*
X0295651Y0176123D01*
X0295630Y0176174D01*
X0295605Y0176224D01*
X0295577Y0176272D01*
X0295545Y0176317D01*
X0295510Y0176360D01*
X0295472Y0176401D01*
X0295431Y0176439D01*
X0295388Y0176474D01*
X0295343Y0176505D01*
X0295295Y0176534D01*
X0295245Y0176559D01*
X0295194Y0176580D01*
X0295141Y0176597D01*
X0295087Y0176611D01*
X0295033Y0176621D01*
X0294978Y0176627D01*
X0294922Y0176629D01*
X0294533Y0176629D01*
X0294477Y0176627D01*
X0294422Y0176621D01*
X0294368Y0176611D01*
X0294314Y0176597D01*
X0294261Y0176580D01*
X0294210Y0176559D01*
X0294160Y0176534D01*
X0294112Y0176505D01*
X0294067Y0176474D01*
X0294024Y0176439D01*
X0293983Y0176401D01*
X0293945Y0176360D01*
X0293910Y0176317D01*
X0293879Y0176272D01*
X0293850Y0176224D01*
X0293825Y0176174D01*
X0293804Y0176123D01*
X0293787Y0176070D01*
X0293773Y0176016D01*
X0293763Y0175962D01*
X0293757Y0175907D01*
X0293755Y0175851D01*
X0293756Y0175851D02*
X0293756Y0174684D01*
X0292200Y0174684D01*
X0292200Y0176629D01*
X0292200Y0172172D02*
X0292200Y0171200D01*
X0295700Y0171200D01*
X0294144Y0171200D02*
X0294144Y0172172D01*
X0294144Y0172367D02*
X0295700Y0173144D01*
X0294144Y0172172D02*
X0294142Y0172233D01*
X0294136Y0172294D01*
X0294127Y0172354D01*
X0294113Y0172414D01*
X0294096Y0172472D01*
X0294076Y0172530D01*
X0294051Y0172586D01*
X0294024Y0172640D01*
X0293993Y0172693D01*
X0293958Y0172743D01*
X0293921Y0172792D01*
X0293881Y0172837D01*
X0293837Y0172881D01*
X0293792Y0172921D01*
X0293743Y0172958D01*
X0293693Y0172993D01*
X0293640Y0173024D01*
X0293586Y0173051D01*
X0293530Y0173076D01*
X0293472Y0173096D01*
X0293414Y0173113D01*
X0293354Y0173127D01*
X0293294Y0173136D01*
X0293233Y0173142D01*
X0293172Y0173144D01*
X0293111Y0173142D01*
X0293050Y0173136D01*
X0292990Y0173127D01*
X0292930Y0173113D01*
X0292872Y0173096D01*
X0292814Y0173076D01*
X0292758Y0173051D01*
X0292704Y0173024D01*
X0292651Y0172993D01*
X0292601Y0172958D01*
X0292552Y0172921D01*
X0292507Y0172881D01*
X0292463Y0172837D01*
X0292423Y0172792D01*
X0292386Y0172743D01*
X0292351Y0172693D01*
X0292320Y0172640D01*
X0292293Y0172586D01*
X0292268Y0172530D01*
X0292248Y0172472D01*
X0292231Y0172414D01*
X0292217Y0172354D01*
X0292208Y0172294D01*
X0292202Y0172233D01*
X0292200Y0172172D01*
X0289800Y0185371D02*
X0286300Y0185371D01*
X0286300Y0186344D01*
X0286302Y0186405D01*
X0286308Y0186466D01*
X0286317Y0186526D01*
X0286331Y0186586D01*
X0286348Y0186644D01*
X0286368Y0186702D01*
X0286393Y0186758D01*
X0286420Y0186812D01*
X0286451Y0186865D01*
X0286486Y0186915D01*
X0286523Y0186964D01*
X0286563Y0187009D01*
X0286607Y0187053D01*
X0286652Y0187093D01*
X0286701Y0187130D01*
X0286751Y0187165D01*
X0286804Y0187196D01*
X0286858Y0187223D01*
X0286914Y0187248D01*
X0286972Y0187268D01*
X0287030Y0187285D01*
X0287090Y0187299D01*
X0287150Y0187308D01*
X0287211Y0187314D01*
X0287272Y0187316D01*
X0287333Y0187314D01*
X0287394Y0187308D01*
X0287454Y0187299D01*
X0287514Y0187285D01*
X0287572Y0187268D01*
X0287630Y0187248D01*
X0287686Y0187223D01*
X0287740Y0187196D01*
X0287793Y0187165D01*
X0287843Y0187130D01*
X0287892Y0187093D01*
X0287937Y0187053D01*
X0287981Y0187009D01*
X0288021Y0186964D01*
X0288058Y0186915D01*
X0288093Y0186865D01*
X0288124Y0186812D01*
X0288151Y0186758D01*
X0288176Y0186702D01*
X0288196Y0186644D01*
X0288213Y0186586D01*
X0288227Y0186526D01*
X0288236Y0186466D01*
X0288242Y0186405D01*
X0288244Y0186344D01*
X0288244Y0185371D01*
X0288244Y0186538D02*
X0289800Y0187316D01*
X0289022Y0188856D02*
X0289022Y0190800D01*
X0288244Y0190217D02*
X0289800Y0190217D01*
X0289022Y0188856D02*
X0286300Y0189633D01*
X0180700Y0176629D02*
X0180700Y0174684D01*
X0178756Y0176337D01*
X0177200Y0175754D02*
X0177202Y0175690D01*
X0177207Y0175626D01*
X0177216Y0175562D01*
X0177229Y0175499D01*
X0177246Y0175437D01*
X0177265Y0175376D01*
X0177289Y0175316D01*
X0177315Y0175258D01*
X0177345Y0175201D01*
X0177379Y0175146D01*
X0177415Y0175093D01*
X0177454Y0175042D01*
X0177496Y0174994D01*
X0177541Y0174947D01*
X0177588Y0174904D01*
X0177638Y0174863D01*
X0177690Y0174826D01*
X0177744Y0174791D01*
X0177800Y0174759D01*
X0177858Y0174731D01*
X0177917Y0174706D01*
X0177978Y0174685D01*
X0178756Y0176337D02*
X0178714Y0176378D01*
X0178670Y0176417D01*
X0178623Y0176452D01*
X0178575Y0176485D01*
X0178524Y0176515D01*
X0178472Y0176541D01*
X0178418Y0176564D01*
X0178363Y0176584D01*
X0178307Y0176600D01*
X0178250Y0176613D01*
X0178192Y0176622D01*
X0178134Y0176627D01*
X0178075Y0176629D01*
X0178018Y0176627D01*
X0177961Y0176622D01*
X0177904Y0176612D01*
X0177849Y0176599D01*
X0177794Y0176583D01*
X0177740Y0176562D01*
X0177688Y0176539D01*
X0177638Y0176512D01*
X0177589Y0176482D01*
X0177542Y0176448D01*
X0177498Y0176412D01*
X0177456Y0176373D01*
X0177417Y0176331D01*
X0177381Y0176287D01*
X0177347Y0176240D01*
X0177317Y0176192D01*
X0177290Y0176141D01*
X0177267Y0176089D01*
X0177246Y0176035D01*
X0177230Y0175980D01*
X0177217Y0175925D01*
X0177207Y0175868D01*
X0177202Y0175811D01*
X0177200Y0175754D01*
X0177200Y0172172D02*
X0177200Y0171200D01*
X0180700Y0171200D01*
X0179144Y0171200D02*
X0179144Y0172172D01*
X0179144Y0172367D02*
X0180700Y0173144D01*
X0179144Y0172172D02*
X0179142Y0172233D01*
X0179136Y0172294D01*
X0179127Y0172354D01*
X0179113Y0172414D01*
X0179096Y0172472D01*
X0179076Y0172530D01*
X0179051Y0172586D01*
X0179024Y0172640D01*
X0178993Y0172693D01*
X0178958Y0172743D01*
X0178921Y0172792D01*
X0178881Y0172837D01*
X0178837Y0172881D01*
X0178792Y0172921D01*
X0178743Y0172958D01*
X0178693Y0172993D01*
X0178640Y0173024D01*
X0178586Y0173051D01*
X0178530Y0173076D01*
X0178472Y0173096D01*
X0178414Y0173113D01*
X0178354Y0173127D01*
X0178294Y0173136D01*
X0178233Y0173142D01*
X0178172Y0173144D01*
X0178111Y0173142D01*
X0178050Y0173136D01*
X0177990Y0173127D01*
X0177930Y0173113D01*
X0177872Y0173096D01*
X0177814Y0173076D01*
X0177758Y0173051D01*
X0177704Y0173024D01*
X0177651Y0172993D01*
X0177601Y0172958D01*
X0177552Y0172921D01*
X0177507Y0172881D01*
X0177463Y0172837D01*
X0177423Y0172792D01*
X0177386Y0172743D01*
X0177351Y0172693D01*
X0177320Y0172640D01*
X0177293Y0172586D01*
X0177268Y0172530D01*
X0177248Y0172472D01*
X0177231Y0172414D01*
X0177217Y0172354D01*
X0177208Y0172294D01*
X0177202Y0172233D01*
X0177200Y0172172D01*
X0174800Y0185371D02*
X0171300Y0185371D01*
X0171300Y0186344D01*
X0171302Y0186405D01*
X0171308Y0186466D01*
X0171317Y0186526D01*
X0171331Y0186586D01*
X0171348Y0186644D01*
X0171368Y0186702D01*
X0171393Y0186758D01*
X0171420Y0186812D01*
X0171451Y0186865D01*
X0171486Y0186915D01*
X0171523Y0186964D01*
X0171563Y0187009D01*
X0171607Y0187053D01*
X0171652Y0187093D01*
X0171701Y0187130D01*
X0171751Y0187165D01*
X0171804Y0187196D01*
X0171858Y0187223D01*
X0171914Y0187248D01*
X0171972Y0187268D01*
X0172030Y0187285D01*
X0172090Y0187299D01*
X0172150Y0187308D01*
X0172211Y0187314D01*
X0172272Y0187316D01*
X0172333Y0187314D01*
X0172394Y0187308D01*
X0172454Y0187299D01*
X0172514Y0187285D01*
X0172572Y0187268D01*
X0172630Y0187248D01*
X0172686Y0187223D01*
X0172740Y0187196D01*
X0172793Y0187165D01*
X0172843Y0187130D01*
X0172892Y0187093D01*
X0172937Y0187053D01*
X0172981Y0187009D01*
X0173021Y0186964D01*
X0173058Y0186915D01*
X0173093Y0186865D01*
X0173124Y0186812D01*
X0173151Y0186758D01*
X0173176Y0186702D01*
X0173196Y0186644D01*
X0173213Y0186586D01*
X0173227Y0186526D01*
X0173236Y0186466D01*
X0173242Y0186405D01*
X0173244Y0186344D01*
X0173244Y0185371D01*
X0173244Y0186538D02*
X0174800Y0187316D01*
X0174800Y0188856D02*
X0174800Y0190800D01*
X0174800Y0189828D02*
X0171300Y0189828D01*
X0172078Y0188856D01*
X0055700Y0179555D02*
X0054144Y0179555D01*
X0054922Y0180139D02*
X0054922Y0178194D01*
X0052200Y0178972D01*
X0052200Y0175656D02*
X0055700Y0175656D01*
X0055700Y0174684D02*
X0055700Y0176629D01*
X0052978Y0174684D02*
X0052200Y0175656D01*
X0052200Y0172172D02*
X0052200Y0171200D01*
X0055700Y0171200D01*
X0054144Y0171200D02*
X0054144Y0172172D01*
X0054144Y0172367D02*
X0055700Y0173144D01*
X0054144Y0172172D02*
X0054142Y0172233D01*
X0054136Y0172294D01*
X0054127Y0172354D01*
X0054113Y0172414D01*
X0054096Y0172472D01*
X0054076Y0172530D01*
X0054051Y0172586D01*
X0054024Y0172640D01*
X0053993Y0172693D01*
X0053958Y0172743D01*
X0053921Y0172792D01*
X0053881Y0172837D01*
X0053837Y0172881D01*
X0053792Y0172921D01*
X0053743Y0172958D01*
X0053693Y0172993D01*
X0053640Y0173024D01*
X0053586Y0173051D01*
X0053530Y0173076D01*
X0053472Y0173096D01*
X0053414Y0173113D01*
X0053354Y0173127D01*
X0053294Y0173136D01*
X0053233Y0173142D01*
X0053172Y0173144D01*
X0053111Y0173142D01*
X0053050Y0173136D01*
X0052990Y0173127D01*
X0052930Y0173113D01*
X0052872Y0173096D01*
X0052814Y0173076D01*
X0052758Y0173051D01*
X0052704Y0173024D01*
X0052651Y0172993D01*
X0052601Y0172958D01*
X0052552Y0172921D01*
X0052507Y0172881D01*
X0052463Y0172837D01*
X0052423Y0172792D01*
X0052386Y0172743D01*
X0052351Y0172693D01*
X0052320Y0172640D01*
X0052293Y0172586D01*
X0052268Y0172530D01*
X0052248Y0172472D01*
X0052231Y0172414D01*
X0052217Y0172354D01*
X0052208Y0172294D01*
X0052202Y0172233D01*
X0052200Y0172172D01*
X0049800Y0181861D02*
X0046300Y0181861D01*
X0046300Y0182834D01*
X0046302Y0182895D01*
X0046308Y0182956D01*
X0046317Y0183016D01*
X0046331Y0183076D01*
X0046348Y0183134D01*
X0046368Y0183192D01*
X0046393Y0183248D01*
X0046420Y0183302D01*
X0046451Y0183355D01*
X0046486Y0183405D01*
X0046523Y0183454D01*
X0046563Y0183499D01*
X0046607Y0183543D01*
X0046652Y0183583D01*
X0046701Y0183620D01*
X0046751Y0183655D01*
X0046804Y0183686D01*
X0046858Y0183713D01*
X0046914Y0183738D01*
X0046972Y0183758D01*
X0047030Y0183775D01*
X0047090Y0183789D01*
X0047150Y0183798D01*
X0047211Y0183804D01*
X0047272Y0183806D01*
X0047333Y0183804D01*
X0047394Y0183798D01*
X0047454Y0183789D01*
X0047514Y0183775D01*
X0047572Y0183758D01*
X0047630Y0183738D01*
X0047686Y0183713D01*
X0047740Y0183686D01*
X0047793Y0183655D01*
X0047843Y0183620D01*
X0047892Y0183583D01*
X0047937Y0183543D01*
X0047981Y0183499D01*
X0048021Y0183454D01*
X0048058Y0183405D01*
X0048093Y0183355D01*
X0048124Y0183302D01*
X0048151Y0183248D01*
X0048176Y0183192D01*
X0048196Y0183134D01*
X0048213Y0183076D01*
X0048227Y0183016D01*
X0048236Y0182956D01*
X0048242Y0182895D01*
X0048244Y0182834D01*
X0048244Y0181861D01*
X0048244Y0183028D02*
X0049800Y0183806D01*
X0049800Y0185346D02*
X0049800Y0187290D01*
X0049800Y0186318D02*
X0046300Y0186318D01*
X0047078Y0185346D01*
X0046300Y0188856D02*
X0046300Y0190022D01*
X0046302Y0190078D01*
X0046308Y0190133D01*
X0046318Y0190187D01*
X0046332Y0190241D01*
X0046349Y0190294D01*
X0046370Y0190345D01*
X0046395Y0190395D01*
X0046424Y0190443D01*
X0046455Y0190488D01*
X0046490Y0190531D01*
X0046528Y0190572D01*
X0046569Y0190610D01*
X0046612Y0190645D01*
X0046657Y0190676D01*
X0046705Y0190705D01*
X0046755Y0190730D01*
X0046806Y0190751D01*
X0046859Y0190768D01*
X0046913Y0190782D01*
X0046967Y0190792D01*
X0047022Y0190798D01*
X0047078Y0190800D01*
X0047134Y0190798D01*
X0047189Y0190792D01*
X0047243Y0190782D01*
X0047297Y0190768D01*
X0047350Y0190751D01*
X0047401Y0190730D01*
X0047451Y0190705D01*
X0047499Y0190676D01*
X0047544Y0190645D01*
X0047587Y0190610D01*
X0047628Y0190572D01*
X0047666Y0190531D01*
X0047701Y0190488D01*
X0047732Y0190443D01*
X0047761Y0190395D01*
X0047786Y0190345D01*
X0047807Y0190294D01*
X0047824Y0190241D01*
X0047838Y0190187D01*
X0047848Y0190133D01*
X0047854Y0190078D01*
X0047856Y0190022D01*
X0047856Y0189244D01*
X0047856Y0189828D02*
X0047858Y0189889D01*
X0047864Y0189950D01*
X0047873Y0190010D01*
X0047887Y0190070D01*
X0047904Y0190128D01*
X0047924Y0190186D01*
X0047949Y0190242D01*
X0047976Y0190296D01*
X0048007Y0190349D01*
X0048042Y0190399D01*
X0048079Y0190448D01*
X0048119Y0190493D01*
X0048163Y0190537D01*
X0048208Y0190577D01*
X0048257Y0190614D01*
X0048307Y0190649D01*
X0048360Y0190680D01*
X0048414Y0190707D01*
X0048470Y0190732D01*
X0048528Y0190752D01*
X0048586Y0190769D01*
X0048646Y0190783D01*
X0048706Y0190792D01*
X0048767Y0190798D01*
X0048828Y0190800D01*
X0048889Y0190798D01*
X0048950Y0190792D01*
X0049010Y0190783D01*
X0049070Y0190769D01*
X0049128Y0190752D01*
X0049186Y0190732D01*
X0049242Y0190707D01*
X0049296Y0190680D01*
X0049349Y0190649D01*
X0049399Y0190614D01*
X0049448Y0190577D01*
X0049493Y0190537D01*
X0049537Y0190493D01*
X0049577Y0190448D01*
X0049614Y0190399D01*
X0049649Y0190349D01*
X0049680Y0190296D01*
X0049707Y0190242D01*
X0049732Y0190186D01*
X0049752Y0190128D01*
X0049769Y0190070D01*
X0049783Y0190010D01*
X0049792Y0189950D01*
X0049798Y0189889D01*
X0049800Y0189828D01*
X0049800Y0188856D01*
D17*
X0041000Y0191750D03*
X0061000Y0191750D03*
X0061000Y0170250D03*
X0041000Y0170250D03*
X0166000Y0170250D03*
X0186000Y0170250D03*
X0186000Y0191750D03*
X0166000Y0191750D03*
X0281000Y0191750D03*
X0301000Y0191750D03*
X0301000Y0170250D03*
X0281000Y0170250D03*
D18*
X0286250Y0069500D03*
X0286250Y0062500D03*
X0176250Y0062500D03*
X0176250Y0069500D03*
X0051250Y0069500D03*
X0051250Y0062500D03*
D19*
X0050500Y0066000D03*
X0175500Y0066000D03*
X0285500Y0066000D03*
D20*
X0166854Y0272850D02*
X0163354Y0272850D01*
X0165104Y0272850D02*
X0165104Y0279150D01*
X0163354Y0277750D01*
X0161050Y0279150D02*
X0156850Y0272850D01*
X0161050Y0272850D02*
X0156850Y0279150D01*
M02*
