%
M48
M72
T01C0.03200
T02C0.04400
T03C0.05200
%
T01
X38500Y56000
X38500Y66000
X38500Y76000
X41000Y96000
X51000Y96000
X61000Y96000
X71000Y96000
X76000Y76000
X76000Y66000
X71000Y126000
X61000Y126000
X51000Y126000
X41000Y126000
X91000Y126000
X101000Y126000
X61000Y166000
X41000Y166000
X41000Y196000
X61000Y196000
X166000Y196000
X186000Y196000
X186000Y166000
X166000Y166000
X166000Y126000
X176000Y126000
X186000Y126000
X196000Y126000
X216000Y126000
X226000Y126000
X196000Y96000
X186000Y96000
X176000Y96000
X166000Y96000
X163500Y76000
X163500Y66000
X163500Y56000
X201000Y66000
X201000Y76000
X273500Y76000
X273500Y66000
X273500Y56000
X316000Y66000
X316000Y76000
X311000Y96000
X301000Y96000
X291000Y96000
X281000Y96000
X281000Y126000
X291000Y126000
X301000Y126000
X311000Y126000
X336000Y126000
X346000Y126000
X301000Y166000
X281000Y166000
X281000Y196000
X301000Y196000
T02
X316000Y196000
X356000Y196000
X241000Y196000
X201000Y196000
X116000Y196000
X76000Y196000
T03
X166600Y246000
X186300Y246000
X206000Y246000
X225700Y246000
X245400Y246000
M30
