G75*
%MOIN*%
%OFA0B0*%
%FSLAX25Y25*%
%IPPOS*%
%LPD*%
%AMOC8*
5,1,8,0,0,1.08239X$1,22.5*
%
%ADD10OC8,0.06000*%
%ADD11C,0.07400*%
%ADD12C,0.06000*%
%ADD13C,0.06000*%
%ADD14C,0.08600*%
D10*
X0076000Y0066000D03*
X0076000Y0076000D03*
X0091000Y0126000D03*
X0101000Y0126000D03*
X0061000Y0166000D03*
X0041000Y0166000D03*
X0041000Y0196000D03*
X0061000Y0196000D03*
X0166000Y0196000D03*
X0186000Y0196000D03*
X0186000Y0166000D03*
X0166000Y0166000D03*
X0216000Y0126000D03*
X0226000Y0126000D03*
X0281000Y0166000D03*
X0301000Y0166000D03*
X0301000Y0196000D03*
X0281000Y0196000D03*
X0336000Y0126000D03*
X0346000Y0126000D03*
X0316000Y0076000D03*
X0316000Y0066000D03*
X0201000Y0066000D03*
X0201000Y0076000D03*
D11*
X0201000Y0196000D03*
X0241000Y0196000D03*
X0316000Y0196000D03*
X0356000Y0196000D03*
X0116000Y0196000D03*
X0076000Y0196000D03*
D12*
X0071000Y0126000D03*
X0061000Y0126000D03*
X0051000Y0126000D03*
X0041000Y0126000D03*
X0041000Y0096000D03*
X0051000Y0096000D03*
X0061000Y0096000D03*
X0071000Y0096000D03*
X0166000Y0096000D03*
X0176000Y0096000D03*
X0186000Y0096000D03*
X0196000Y0096000D03*
X0196000Y0126000D03*
X0186000Y0126000D03*
X0176000Y0126000D03*
X0166000Y0126000D03*
X0281000Y0126000D03*
X0291000Y0126000D03*
X0301000Y0126000D03*
X0311000Y0126000D03*
X0311000Y0096000D03*
X0301000Y0096000D03*
X0291000Y0096000D03*
X0281000Y0096000D03*
D13*
X0041100Y0056000D02*
X0035900Y0056000D01*
X0035900Y0066000D02*
X0041100Y0066000D01*
X0041100Y0076000D02*
X0035900Y0076000D01*
X0160900Y0076000D02*
X0166100Y0076000D01*
X0166100Y0066000D02*
X0160900Y0066000D01*
X0160900Y0056000D02*
X0166100Y0056000D01*
X0270900Y0056000D02*
X0276100Y0056000D01*
X0276100Y0066000D02*
X0270900Y0066000D01*
X0270900Y0076000D02*
X0276100Y0076000D01*
D14*
X0245400Y0242100D02*
X0245400Y0249900D01*
X0225700Y0249900D02*
X0225700Y0242100D01*
X0206000Y0242100D02*
X0206000Y0249900D01*
X0186300Y0249900D02*
X0186300Y0242100D01*
X0166600Y0242100D02*
X0166600Y0249900D01*
M02*
