G75*
%MOIN*%
%OFA0B0*%
%FSLAX25Y25*%
%IPPOS*%
%LPD*%
%AMOC8*
5,1,8,0,0,1.08239X$1,22.5*
%
%ADD10OC8,0.05200*%
%ADD11C,0.06600*%
%ADD12C,0.05200*%
%ADD13C,0.07800*%
%ADD14C,0.05200*%
D10*
X0076000Y0066000D03*
X0076000Y0076000D03*
X0091000Y0126000D03*
X0101000Y0126000D03*
X0201000Y0076000D03*
X0201000Y0066000D03*
X0216000Y0126000D03*
X0226000Y0126000D03*
X0316000Y0076000D03*
X0316000Y0066000D03*
X0336000Y0126000D03*
X0346000Y0126000D03*
D11*
X0356000Y0196000D03*
X0316000Y0196000D03*
X0241000Y0196000D03*
X0201000Y0196000D03*
X0116000Y0196000D03*
X0076000Y0196000D03*
D12*
X0071000Y0126000D03*
X0061000Y0126000D03*
X0051000Y0126000D03*
X0041000Y0126000D03*
X0041000Y0096000D03*
X0051000Y0096000D03*
X0061000Y0096000D03*
X0071000Y0096000D03*
X0166000Y0096000D03*
X0176000Y0096000D03*
X0186000Y0096000D03*
X0196000Y0096000D03*
X0196000Y0126000D03*
X0186000Y0126000D03*
X0176000Y0126000D03*
X0166000Y0126000D03*
X0281000Y0126000D03*
X0291000Y0126000D03*
X0301000Y0126000D03*
X0311000Y0126000D03*
X0311000Y0096000D03*
X0301000Y0096000D03*
X0291000Y0096000D03*
X0281000Y0096000D03*
D13*
X0245400Y0242100D02*
X0245400Y0249900D01*
X0225700Y0249900D02*
X0225700Y0242100D01*
X0206000Y0242100D02*
X0206000Y0249900D01*
X0186300Y0249900D02*
X0186300Y0242100D01*
X0166600Y0242100D02*
X0166600Y0249900D01*
D14*
X0175900Y0176000D02*
X0181100Y0176000D01*
X0181100Y0166000D02*
X0175900Y0166000D01*
X0175900Y0156000D02*
X0181100Y0156000D01*
X0235900Y0156000D02*
X0241100Y0156000D01*
X0241100Y0166000D02*
X0235900Y0166000D01*
X0235900Y0176000D02*
X0241100Y0176000D01*
X0290900Y0176000D02*
X0296100Y0176000D01*
X0296100Y0166000D02*
X0290900Y0166000D01*
X0290900Y0156000D02*
X0296100Y0156000D01*
X0335900Y0156000D02*
X0341100Y0156000D01*
X0341100Y0166000D02*
X0335900Y0166000D01*
X0335900Y0176000D02*
X0341100Y0176000D01*
X0096100Y0176000D02*
X0090900Y0176000D01*
X0090900Y0166000D02*
X0096100Y0166000D01*
X0096100Y0156000D02*
X0090900Y0156000D01*
X0061100Y0156000D02*
X0055900Y0156000D01*
X0055900Y0166000D02*
X0061100Y0166000D01*
X0061100Y0176000D02*
X0055900Y0176000D01*
M02*
